<svg width="32" height="31" viewBox="-1 0 32 31" fill="none" xmlns="http://www.w3.org/2000/svg">
<g id="Frame" clip-path="url(#clip0_2017_570)">
<g id="Group">
<path id="Vector" fill-rule="evenodd" clip-rule="evenodd" d="M15 30.1484C6.71705 30.1484 0 23.4314 0 15.1484C0 6.86548 6.71705 0.148438 15 0.148438C23.283 0.148438 30 6.86548 30 15.1484C30 23.4314 23.283 30.1484 15 30.1484ZM12.9363 17.7877L21.9377 8.78643C22.2491 8.47485 22.7606 8.47804 23.0689 8.78643L24.0896 9.80714C24.398 10.1155 24.398 10.6301 24.0896 10.9384L13.5177 21.5104C13.3286 21.6995 13.063 21.7739 12.8141 21.7312C12.6438 21.7098 12.4795 21.6351 12.3513 21.5069L5.9113 15.0669C5.6035 14.7591 5.59984 14.2471 5.9113 13.9356L6.93201 12.9149C7.24358 12.6034 7.75181 12.6034 8.06339 12.9149L12.9363 17.7877Z" fill="white"/>
</g>
</g>
<defs>
<clipPath id="clip0_2017_570">
<rect width="30" height="30" fill="white" transform="translate(0 0.148438)"/>
</clipPath>
</defs>
</svg>
