<svg width="24" height="24" viewBox="0 0 24 24" fill="none" xmlns="http://www.w3.org/2000/svg">
<g clip-path="url(#clip0_2053_12473)">
<path d="M1.17185 24C0.940043 24 0.713431 23.9313 0.520677 23.8026C0.327923 23.6738 0.177687 23.4908 0.0889723 23.2766C0.000257852 23.0625 -0.0229496 22.8268 0.0222856 22.5994C0.0675207 22.3721 0.179166 22.1633 0.3431 21.9994L21.9993 0.343127C22.2191 0.123329 22.5173 -0.000152588 22.8281 -0.000152588C23.1389 -0.000152588 23.4371 0.123329 23.6568 0.343127C23.8766 0.562925 24.0001 0.861035 24.0001 1.17188C24.0001 1.48272 23.8766 1.78083 23.6568 2.00063L2.0006 23.6569C1.89187 23.7658 1.76268 23.8522 1.62046 23.9111C1.47823 23.97 1.32578 24.0002 1.17185 24Z" fill="#1F3240"/>
<path d="M22.828 24C22.6741 24.0002 22.5217 23.97 22.3794 23.9111C22.2372 23.8522 22.108 23.7658 21.9993 23.6569L0.343035 2.00063C0.123237 1.78083 -0.000244141 1.48272 -0.000244141 1.17188C-0.000244141 0.861035 0.123237 0.562925 0.343035 0.343127C0.562834 0.123329 0.860944 -0.000152588 1.17179 -0.000152588C1.48263 -0.000152588 1.78074 0.123329 2.00054 0.343127L23.6568 21.9994C23.8207 22.1633 23.9324 22.3721 23.9776 22.5994C24.0228 22.8268 23.9996 23.0625 23.9109 23.2766C23.8222 23.4908 23.672 23.6738 23.4792 23.8026C23.2865 23.9313 23.0598 24 22.828 24Z" fill="#1F3240"/>
</g>
<defs>
<clipPath id="clip0_2053_12473">
<rect width="24" height="24" fill="white"/>
</clipPath>
</defs>
</svg>
