<svg width="32" height="31" viewBox="-1 0 32 31" fill="none" xmlns="http://www.w3.org/2000/svg">
<g id="Frame" clip-path="url(#clip0_2017_558)">
<g id="Group">
<path id="Vector" fill-rule="evenodd" clip-rule="evenodd" d="M15 0.148438C23.283 0.148438 30 6.86548 30 15.1484C30 23.4314 23.283 30.1484 15 30.1484C6.71705 30.1484 0 23.4314 0 15.1484C0 6.86548 6.71705 0.148438 15 0.148438ZM7.4185 20.5778L12.8479 15.1484L7.4185 9.71903C7.10705 9.40745 7.10705 8.89923 7.4185 8.58777L8.43933 7.56694C8.75079 7.25548 9.25902 7.25548 9.57059 7.56694L15 12.9964L20.4294 7.56694C20.741 7.25548 21.2492 7.25548 21.5607 7.56694L22.5815 8.58777C22.893 8.89923 22.893 9.40745 22.5815 9.71903L17.1521 15.1484L22.5815 20.5778C22.893 20.8894 22.893 21.3976 22.5815 21.7091L21.5607 22.7299C21.2492 23.0414 20.741 23.0414 20.4294 22.7299L15 17.3005L9.57059 22.7299C9.25902 23.0414 8.75079 23.0414 8.43933 22.7299L7.4185 21.7091C7.10705 21.3976 7.10705 20.8894 7.4185 20.5778Z" fill="#FF6F80"/>
</g>
</g>
<defs>
<clipPath id="clip0_2017_558">
<rect width="30" height="30" fill="white" transform="translate(0 0.148438)"/>
</clipPath>
</defs>
</svg>
