<svg width="60" height="56" viewBox="0 0 60 56" fill="none" xmlns="http://www.w3.org/2000/svg">
<g id="798, Business, Management, Team, Work">
<g id="Group">
<path id="Vector" d="M43.7598 12.975V17.105L39.8298 17.505C39.6298 18.415 39.2298 19.215 38.8198 20.025L41.3398 23.045L38.3099 25.965L35.2899 23.445C34.4799 23.945 33.6798 24.255 32.7698 24.455L32.2698 28.485H28.2399L27.8398 24.555C26.9298 24.355 26.1298 23.945 25.3198 23.545L22.1998 25.965L19.2798 23.045L21.7999 20.025C21.2999 19.215 20.9899 18.415 20.7899 17.505L16.8599 17.105V12.975L20.7899 12.575C20.9899 11.665 21.3999 10.865 21.7999 10.055L19.2798 7.02502L22.1998 4.10498L25.2198 6.625C26.0298 6.125 26.8299 5.81499 27.7399 5.61499L28.1398 1.685H32.2698L32.6699 5.61499C33.5799 5.81499 34.3799 6.225 35.1899 6.625L38.2098 4.10498L41.1298 7.02502L38.6099 10.055C39.1099 10.865 39.4199 11.665 39.6199 12.575L43.7499 12.975H43.7598ZM35.9999 14.995C35.9999 11.865 33.4799 9.245 30.2499 9.245C27.0199 9.245 24.4999 11.765 24.4999 14.995C24.4999 18.225 27.0199 20.745 30.2499 20.745C33.4799 20.745 35.9999 18.125 35.9999 14.995Z" fill="#97A2B2"/>
<path id="Vector_2" d="M53.54 9.64502C55.66 9.64502 57.37 11.355 57.37 13.475C57.37 15.595 55.66 17.305 53.54 17.305C51.42 17.305 49.71 15.595 49.71 13.475C49.71 11.355 51.42 9.64502 53.54 9.64502Z" fill="#97A2B2"/>
<path id="Vector_3" d="M8.16992 12.275C9.57992 12.275 10.6899 13.385 10.6899 14.795C10.6899 16.205 9.57992 17.315 8.16992 17.315C6.75992 17.315 5.6499 16.205 5.6499 14.795C5.6499 13.385 6.75992 12.275 8.16992 12.275Z" fill="#97A2B2"/>
<path id="Vector_4" d="M35.1899 54.515C34.5899 53.105 34.2799 51.495 34.2799 49.775C34.2799 42.815 39.9299 37.175 46.8799 37.175C53.8399 37.175 59.4799 42.825 59.4799 49.775C59.4799 51.485 59.1799 53.005 58.5699 54.515H35.1799H35.1899Z" fill="white"/>
<path id="Vector_5" d="M2.01984 54.515C1.40984 53.105 1.10986 51.495 1.10986 49.775C1.10986 42.815 6.75984 37.175 13.7098 37.175C20.6698 37.175 26.3099 42.825 26.3099 49.775C26.3099 51.485 26.0098 53.005 25.3998 54.515H2.00983H2.01984Z" fill="white"/>
<path id="Vector_6" d="M46.7799 37.175L50.0099 45.035L46.7799 48.165L43.6599 45.035L46.7799 37.175Z" fill="#97A2B2"/>
<path id="Vector_7" d="M13.71 37.175L16.84 45.035L13.71 48.165L10.49 45.035L13.71 37.175Z" fill="#97A2B2"/>
<path id="Vector_8" d="M55.7598 21.145C56.2598 21.145 56.6699 21.555 56.6699 22.055C56.6699 22.555 56.2598 22.965 55.7598 22.965C55.2598 22.965 54.8499 22.555 54.8499 22.055C54.8499 21.555 55.2598 21.145 55.7598 21.145Z" fill="#26303C"/>
<path id="Vector_9" d="M46.7799 24.575C50.2099 24.575 53.0299 27.395 53.0299 30.825C53.0299 34.255 50.2099 37.075 46.7799 37.075C43.3499 37.075 40.5299 34.255 40.5299 30.825C40.5299 27.395 43.3499 24.575 46.7799 24.575Z" fill="#97A2B2"/>
<path id="Vector_10" d="M45.6699 2.79498C46.1699 2.79498 46.5799 3.20502 46.5799 3.70502C46.5799 4.20502 46.1699 4.61499 45.6699 4.61499C45.1699 4.61499 44.7599 4.20502 44.7599 3.70502C44.7599 3.20502 45.1699 2.79498 45.6699 2.79498Z" fill="#26303C"/>
<path id="Vector_11" d="M36.9 31.825C37.4 31.825 37.81 32.235 37.81 32.735C37.81 33.235 37.4 33.645 36.9 33.645C36.4 33.645 35.99 33.235 35.99 32.735C35.99 32.235 36.4 31.825 36.9 31.825Z" fill="#26303C"/>
<path id="Vector_12" d="M24.91 35.565C25.41 35.565 25.8199 35.975 25.8199 36.475C25.8199 36.975 25.41 37.385 24.91 37.385C24.41 37.385 24 36.975 24 36.475C24 35.975 24.41 35.565 24.91 35.565Z" fill="#26303C"/>
<path id="Vector_13" d="M13.7099 24.575C17.1399 24.575 19.9599 27.395 19.9599 30.825C19.9599 34.255 17.1399 37.075 13.7099 37.075C10.2799 37.075 7.45986 34.255 7.45986 30.825C7.35986 27.395 10.1799 24.575 13.7099 24.575Z" fill="#97A2B2"/>
<path id="Vector_14" d="M12.2999 5.315C12.8025 5.315 13.2099 4.90761 13.2099 4.40503C13.2099 3.90245 12.8025 3.495 12.2999 3.495C11.7973 3.495 11.3899 3.90245 11.3899 4.40503C11.3899 4.90761 11.7973 5.315 12.2999 5.315Z" fill="#26303C"/>
<path id="Vector_15" d="M4.13995 23.665C4.63995 23.665 5.04999 24.075 5.04999 24.575C5.04999 25.075 4.63995 25.485 4.13995 25.485C3.63995 25.485 3.22998 25.075 3.22998 24.575C3.22998 24.075 3.63995 23.665 4.13995 23.665Z" fill="#26303C"/>
<path id="Vector_16" d="M13.71 37.775C9.87996 37.775 6.75 34.655 6.75 30.815C6.75 26.975 9.86996 23.855 13.71 23.855C17.55 23.855 20.67 26.975 20.67 30.815C20.57 34.745 17.44 37.775 13.71 37.775ZM13.71 25.275C10.58 25.275 8.06 27.795 8.06 30.925C8.06 34.055 10.58 36.575 13.71 36.575C16.84 36.575 19.36 34.055 19.36 30.925C19.36 27.795 16.74 25.275 13.71 25.275Z" fill="#26303C"/>
<path id="Vector_17" d="M7.35992 55.115C7.05992 55.115 6.75989 54.815 6.75989 54.505V49.765C6.75989 49.465 7.05992 49.165 7.35992 49.165C7.65992 49.165 7.96991 49.465 7.96991 49.765V54.505C7.96991 54.805 7.76992 55.115 7.35992 55.115Z" fill="#26303C"/>
<path id="Vector_18" d="M19.9598 55.115C19.6598 55.115 19.3599 54.815 19.3599 54.505V49.765C19.3599 49.465 19.6598 49.165 19.9598 49.165C20.2598 49.165 20.5698 49.465 20.5698 49.765V54.505C20.5698 54.805 20.2698 55.115 19.9598 55.115Z" fill="#26303C"/>
<path id="Vector_19" d="M13.71 48.765C13.51 48.765 13.41 48.665 13.31 48.565L10.08 45.445C9.87998 45.245 9.88 45.045 9.98 44.735L13.1 36.875C13.2 36.675 13.4 36.475 13.71 36.475C14.02 36.475 14.21 36.675 14.31 36.875L17.44 44.735C17.54 44.935 17.44 45.235 17.34 45.445L14.11 48.675C14.01 48.775 13.81 48.775 13.71 48.775V48.765ZM11.29 44.835L13.71 47.255L16.13 44.835L13.71 38.785L11.29 44.835Z" fill="#26303C"/>
<path id="Vector_20" d="M25.3099 55.115H2.0199C1.7199 55.115 1.51991 54.915 1.40991 54.715C0.809912 53.105 0.399902 51.485 0.399902 49.775C0.399902 42.515 6.34992 36.565 13.6099 36.565C20.8699 36.565 26.8199 42.515 26.8199 49.775C26.8199 51.485 26.5199 53.105 25.8099 54.715C25.8099 54.915 25.6099 55.115 25.3099 55.115ZM2.41992 53.805H24.8999C25.3999 52.495 25.6099 51.085 25.6099 49.775C25.6099 43.225 20.2699 37.875 13.7099 37.875C7.1499 37.875 1.7099 43.115 1.7099 49.775C1.7099 51.185 2.00991 52.495 2.40991 53.805H2.41992Z" fill="#26303C"/>
<path id="Vector_21" d="M46.7798 37.775C42.9498 37.775 39.8198 34.655 39.8198 30.815C39.8198 26.975 42.9498 23.855 46.7798 23.855C50.6098 23.855 53.7399 26.975 53.7399 30.815C53.7399 34.655 50.6198 37.775 46.7798 37.775ZM46.7798 25.275C43.6498 25.275 41.1298 27.795 41.1298 30.925C41.1298 34.055 43.6498 36.575 46.7798 36.575C49.9098 36.575 52.4299 34.055 52.4299 30.925C52.5299 27.795 49.9098 25.275 46.7798 25.275Z" fill="#26303C"/>
<path id="Vector_22" d="M40.5299 55.115C40.2299 55.115 39.9199 54.815 39.9199 54.505V49.765C39.9199 49.465 40.2199 49.165 40.5299 49.165C40.8399 49.165 41.1299 49.465 41.1299 49.765V54.505C41.1299 54.805 40.9299 55.115 40.5299 55.115Z" fill="#26303C"/>
<path id="Vector_23" d="M53.1399 55.115C52.8399 55.115 52.5399 54.815 52.5399 54.505V49.765C52.5399 49.465 52.8399 49.165 53.1399 49.165C53.4399 49.165 53.7399 49.465 53.7399 49.765V54.505C53.7399 54.805 53.4399 55.115 53.1399 55.115Z" fill="#26303C"/>
<path id="Vector_24" d="M46.7799 48.765C46.5799 48.765 46.4799 48.665 46.3799 48.565L43.2499 45.445C43.0499 45.245 43.0499 45.045 43.1499 44.735L46.2799 36.875C46.3799 36.675 46.5799 36.475 46.8799 36.475C47.1799 36.475 47.3799 36.675 47.4899 36.875L50.6099 44.735C50.7099 44.935 50.6099 45.235 50.5099 45.445L47.3799 48.565C47.1799 48.765 46.9799 48.765 46.7799 48.765ZM44.4599 44.835L46.8799 47.255L49.2999 44.835L46.8799 38.785L44.4599 44.835Z" fill="#26303C"/>
<path id="Vector_25" d="M58.4799 55.115H35.1899C34.8899 55.115 34.6898 54.915 34.5898 54.715C33.9798 53.105 33.5798 51.485 33.5798 49.775C33.5798 42.515 39.5299 36.565 46.7899 36.565C54.0499 36.565 59.9999 42.515 59.9999 49.775C59.9999 51.485 59.6999 53.105 58.9899 54.715C58.9899 54.915 58.7899 55.115 58.4899 55.115H58.4799ZM35.5898 53.805H58.0698C58.5698 52.495 58.7798 51.085 58.7798 49.775C58.7798 43.225 53.4398 37.875 46.8798 37.875C40.3198 37.875 34.9799 43.215 34.9799 49.775C34.8799 51.185 35.0798 52.495 35.5798 53.805H35.5898Z" fill="#26303C"/>
<path id="Vector_26" d="M32.2699 29.105H28.2399C27.9399 29.105 27.6399 28.905 27.6399 28.505L27.2399 25.075C26.6299 24.875 25.9299 24.575 25.3199 24.265L22.5999 26.485C22.3999 26.685 21.9899 26.685 21.7899 26.485L18.8699 23.565C18.6699 23.365 18.6699 22.965 18.8699 22.755L21.0899 20.035C20.7899 19.425 20.4899 18.825 20.2799 18.115L16.7499 17.715C16.4499 17.715 16.1399 17.415 16.1399 17.115V12.985C16.1399 12.685 16.3399 12.375 16.7499 12.375L20.2799 11.975C20.4799 11.375 20.7799 10.665 21.0899 10.055L18.8699 7.33502C18.6699 7.13502 18.6699 6.73502 18.8699 6.52502L21.7899 3.60498C21.9899 3.40498 22.3899 3.40498 22.5999 3.60498L25.3199 5.82501C25.9299 5.52501 26.5299 5.21501 27.2399 5.01501L27.6399 1.48499C27.6399 1.18499 27.9399 0.88501 28.2399 0.88501H32.2699C32.5699 0.88501 32.8699 1.08499 32.8699 1.48499L33.2699 5.01501C33.8799 5.21501 34.5799 5.51501 35.1899 5.82501L37.9099 3.60498C38.1099 3.40498 38.5099 3.40498 38.7199 3.60498L41.6399 6.52502C41.8399 6.72502 41.8399 7.13502 41.6399 7.33502L39.4199 10.055C39.7199 10.655 40.0299 11.265 40.2299 11.975L43.7599 12.375C44.0599 12.375 44.3599 12.675 44.3599 12.985V17.115C44.3599 17.415 44.1599 17.715 43.7599 17.715L40.3299 18.115C40.1299 18.715 39.8299 19.425 39.5199 20.035L41.7399 22.755C41.9399 22.955 41.9399 23.365 41.7399 23.565L38.8199 26.485C38.6199 26.685 38.2099 26.685 38.0099 26.485L35.2899 24.265C34.6899 24.565 34.0799 24.865 33.3799 25.075L32.9799 28.605C32.8799 28.905 32.6799 29.105 32.2699 29.105ZM28.7399 27.895H31.7699L32.0699 24.565C32.0699 24.265 32.2699 24.065 32.5699 24.065C33.3799 23.865 34.1799 23.565 34.8899 23.055C35.0899 22.955 35.3899 22.955 35.5999 23.155L38.2199 25.275L40.3399 23.155L38.2199 20.535C38.0199 20.335 38.0199 20.035 38.1199 19.825C38.5199 19.115 38.9299 18.315 39.1299 17.505C39.2299 17.205 39.4299 17.105 39.6299 17.005L42.9599 16.705V13.675L39.6299 13.375C39.3299 13.375 39.1299 13.175 39.1299 12.875C38.9299 12.065 38.6299 11.265 38.1199 10.555C38.0199 10.355 38.0199 10.055 38.2199 9.84503L40.3399 7.22504L38.3199 4.90503L35.6999 7.02502C35.4999 7.22502 35.1999 7.225 34.9899 7.125C34.2799 6.725 33.4799 6.31499 32.6699 6.11499C32.3699 6.01499 32.2699 5.81499 32.1699 5.61499L31.8699 2.28503H28.8499L28.5499 5.61499C28.5499 5.91499 28.3499 6.11499 28.0499 6.11499C27.2399 6.31499 26.4399 6.615 25.7299 7.125C25.5299 7.225 25.2299 7.22502 25.0199 7.02502L22.1999 4.90503L20.0799 7.02502L22.1999 9.64502C22.3999 9.84502 22.3999 10.145 22.2999 10.355C21.8999 11.065 21.4899 11.865 21.2899 12.675C21.1899 12.975 20.9899 13.075 20.7899 13.175L17.4599 13.475V16.495L20.7899 16.795C21.0899 16.795 21.2899 16.995 21.2899 17.295C21.4899 18.105 21.7899 18.905 22.2999 19.615C22.3999 19.815 22.3999 20.115 22.1999 20.325L20.0799 22.945L22.1999 25.065L24.8199 22.945C25.0199 22.745 25.3199 22.745 25.5299 22.845C26.2399 23.245 27.0399 23.655 27.8499 23.855C28.1499 23.955 28.2499 24.155 28.3499 24.355L28.7499 27.885L28.7399 27.895Z" fill="#26303C"/>
<path id="Vector_27" d="M30.2499 21.345C26.7199 21.345 23.8999 18.525 23.8999 14.995C23.8999 11.465 26.7199 8.64502 30.2499 8.64502C33.7799 8.64502 36.5999 11.465 36.5999 14.995C36.5999 18.525 33.7799 21.345 30.2499 21.345ZM30.2499 9.95502C27.4299 9.95502 25.2099 12.275 25.2099 14.995C25.2099 17.715 27.5299 20.035 30.2499 20.035C32.9699 20.035 35.2899 17.715 35.2899 14.995C35.2899 12.275 33.0699 9.95502 30.2499 9.95502Z" fill="#26303C"/>
<path id="Vector_28" d="M8.16992 17.915C6.45992 17.915 5.04993 16.505 5.04993 14.785C5.04993 13.065 6.45992 11.665 8.16992 11.665C9.87992 11.665 11.2999 13.075 11.2999 14.785C11.2999 16.495 9.88992 17.915 8.16992 17.915ZM8.16992 12.875C7.15992 12.875 6.25989 13.685 6.25989 14.795C6.25989 15.905 7.06992 16.715 8.16992 16.715C9.17992 16.715 10.0899 15.905 10.0899 14.795C10.0899 13.685 9.27992 12.875 8.16992 12.875Z" fill="#26303C"/>
<path id="Vector_29" d="M53.5399 17.915C51.1199 17.915 49.0999 15.895 49.0999 13.475C49.0999 11.055 51.1199 9.03503 53.5399 9.03503C55.9599 9.03503 57.9799 11.055 57.9799 13.475C57.9799 15.895 55.9599 17.915 53.5399 17.915ZM53.5399 10.355C51.8299 10.355 50.4099 11.765 50.4099 13.485C50.4099 15.205 51.8199 16.605 53.5399 16.605C55.2599 16.605 56.6599 15.195 56.6599 13.485C56.6599 11.775 55.2499 10.355 53.5399 10.355Z" fill="#26303C"/>
<path id="Vector_30" d="M43.7598 12.975V17.105L39.8298 17.505C39.6298 18.415 39.2298 19.215 38.8198 20.025L41.3398 23.045L38.3099 25.965L35.2899 23.445C34.4799 23.945 33.6798 24.255 32.7698 24.455L32.2698 28.485H28.2399L27.8398 24.555C26.9298 24.355 26.1298 23.945 25.3198 23.545L22.1998 25.965L19.2798 23.045L21.7999 20.025C21.2999 19.215 20.9899 18.415 20.7899 17.505L16.8599 17.105V12.975L20.7899 12.575C20.9899 11.665 21.3999 10.865 21.7999 10.055L19.2798 7.02502L22.1998 4.10498L25.2198 6.625C26.0298 6.125 26.8299 5.81499 27.7399 5.61499L28.1398 1.685H32.2698L32.6699 5.61499C33.5799 5.81499 34.3799 6.225 35.1899 6.625L38.2098 4.10498L41.1298 7.02502L38.6099 10.055C39.1099 10.865 39.4199 11.665 39.6199 12.575L43.7499 12.975H43.7598ZM35.9999 14.995C35.9999 11.865 33.4799 9.245 30.2499 9.245C27.0199 9.245 24.4999 11.765 24.4999 14.995C24.4999 18.225 27.0199 20.745 30.2499 20.745C33.4799 20.745 35.9999 18.125 35.9999 14.995Z" fill="#97A2B2"/>
<path id="Vector_31" d="M53.54 9.64502C55.66 9.64502 57.37 11.355 57.37 13.475C57.37 15.595 55.66 17.305 53.54 17.305C51.42 17.305 49.71 15.595 49.71 13.475C49.71 11.355 51.42 9.64502 53.54 9.64502Z" fill="#97A2B2"/>
<path id="Vector_32" d="M8.16992 12.275C9.57992 12.275 10.6899 13.385 10.6899 14.795C10.6899 16.205 9.57992 17.315 8.16992 17.315C6.75992 17.315 5.6499 16.205 5.6499 14.795C5.6499 13.385 6.75992 12.275 8.16992 12.275Z" fill="#97A2B2"/>
<path id="Vector_33" d="M35.1899 54.515C34.5899 53.105 34.2799 51.495 34.2799 49.775C34.2799 42.815 39.9299 37.175 46.8799 37.175C53.8399 37.175 59.4799 42.825 59.4799 49.775C59.4799 51.485 59.1799 53.005 58.5699 54.515H35.1799H35.1899Z" fill="white"/>
<path id="Vector_34" d="M2.01984 54.515C1.40984 53.105 1.10986 51.495 1.10986 49.775C1.10986 42.815 6.75984 37.175 13.7098 37.175C20.6698 37.175 26.3099 42.825 26.3099 49.775C26.3099 51.485 26.0098 53.005 25.3998 54.515H2.00983H2.01984Z" fill="white"/>
<path id="Vector_35" d="M46.7799 37.175L50.0099 45.035L46.7799 48.165L43.6599 45.035L46.7799 37.175Z" fill="#97A2B2"/>
<path id="Vector_36" d="M13.71 37.175L16.84 45.035L13.71 48.165L10.49 45.035L13.71 37.175Z" fill="#97A2B2"/>
<path id="Vector_37" d="M55.7598 21.145C56.2598 21.145 56.6699 21.555 56.6699 22.055C56.6699 22.555 56.2598 22.965 55.7598 22.965C55.2598 22.965 54.8499 22.555 54.8499 22.055C54.8499 21.555 55.2598 21.145 55.7598 21.145Z" fill="#26303C"/>
<path id="Vector_38" d="M46.7799 24.575C50.2099 24.575 53.0299 27.395 53.0299 30.825C53.0299 34.255 50.2099 37.075 46.7799 37.075C43.3499 37.075 40.5299 34.255 40.5299 30.825C40.5299 27.395 43.3499 24.575 46.7799 24.575Z" fill="#97A2B2"/>
<path id="Vector_39" d="M45.6699 2.79498C46.1699 2.79498 46.5799 3.20502 46.5799 3.70502C46.5799 4.20502 46.1699 4.61499 45.6699 4.61499C45.1699 4.61499 44.7599 4.20502 44.7599 3.70502C44.7599 3.20502 45.1699 2.79498 45.6699 2.79498Z" fill="#26303C"/>
<path id="Vector_40" d="M36.9 31.825C37.4 31.825 37.81 32.235 37.81 32.735C37.81 33.235 37.4 33.645 36.9 33.645C36.4 33.645 35.99 33.235 35.99 32.735C35.99 32.235 36.4 31.825 36.9 31.825Z" fill="#26303C"/>
<path id="Vector_41" d="M24.91 35.565C25.41 35.565 25.8199 35.975 25.8199 36.475C25.8199 36.975 25.41 37.385 24.91 37.385C24.41 37.385 24 36.975 24 36.475C24 35.975 24.41 35.565 24.91 35.565Z" fill="#26303C"/>
<path id="Vector_42" d="M13.7099 24.575C17.1399 24.575 19.9599 27.395 19.9599 30.825C19.9599 34.255 17.1399 37.075 13.7099 37.075C10.2799 37.075 7.45986 34.255 7.45986 30.825C7.35986 27.395 10.1799 24.575 13.7099 24.575Z" fill="#97A2B2"/>
<path id="Vector_43" d="M12.2999 5.315C12.8025 5.315 13.2099 4.90761 13.2099 4.40503C13.2099 3.90245 12.8025 3.495 12.2999 3.495C11.7973 3.495 11.3899 3.90245 11.3899 4.40503C11.3899 4.90761 11.7973 5.315 12.2999 5.315Z" fill="#26303C"/>
<path id="Vector_44" d="M4.13995 23.665C4.63995 23.665 5.04999 24.075 5.04999 24.575C5.04999 25.075 4.63995 25.485 4.13995 25.485C3.63995 25.485 3.22998 25.075 3.22998 24.575C3.22998 24.075 3.63995 23.665 4.13995 23.665Z" fill="#26303C"/>
<path id="Vector_45" d="M13.71 37.775C9.87996 37.775 6.75 34.655 6.75 30.815C6.75 26.975 9.86996 23.855 13.71 23.855C17.55 23.855 20.67 26.975 20.67 30.815C20.57 34.745 17.44 37.775 13.71 37.775ZM13.71 25.275C10.58 25.275 8.06 27.795 8.06 30.925C8.06 34.055 10.58 36.575 13.71 36.575C16.84 36.575 19.36 34.055 19.36 30.925C19.36 27.795 16.74 25.275 13.71 25.275Z" fill="#26303C"/>
<path id="Vector_46" d="M7.35992 55.115C7.05992 55.115 6.75989 54.815 6.75989 54.505V49.765C6.75989 49.465 7.05992 49.165 7.35992 49.165C7.65992 49.165 7.96991 49.465 7.96991 49.765V54.505C7.96991 54.805 7.76992 55.115 7.35992 55.115Z" fill="#26303C"/>
<path id="Vector_47" d="M19.9598 55.115C19.6598 55.115 19.3599 54.815 19.3599 54.505V49.765C19.3599 49.465 19.6598 49.165 19.9598 49.165C20.2598 49.165 20.5698 49.465 20.5698 49.765V54.505C20.5698 54.805 20.2698 55.115 19.9598 55.115Z" fill="#26303C"/>
<path id="Vector_48" d="M13.71 48.765C13.51 48.765 13.41 48.665 13.31 48.565L10.08 45.445C9.87998 45.245 9.88 45.045 9.98 44.735L13.1 36.875C13.2 36.675 13.4 36.475 13.71 36.475C14.02 36.475 14.21 36.675 14.31 36.875L17.44 44.735C17.54 44.935 17.44 45.235 17.34 45.445L14.11 48.675C14.01 48.775 13.81 48.775 13.71 48.775V48.765ZM11.29 44.835L13.71 47.255L16.13 44.835L13.71 38.785L11.29 44.835Z" fill="#26303C"/>
<path id="Vector_49" d="M25.3099 55.115H2.0199C1.7199 55.115 1.51991 54.915 1.40991 54.715C0.809912 53.105 0.399902 51.485 0.399902 49.775C0.399902 42.515 6.34992 36.565 13.6099 36.565C20.8699 36.565 26.8199 42.515 26.8199 49.775C26.8199 51.485 26.5199 53.105 25.8099 54.715C25.8099 54.915 25.6099 55.115 25.3099 55.115ZM2.41992 53.805H24.8999C25.3999 52.495 25.6099 51.085 25.6099 49.775C25.6099 43.225 20.2699 37.875 13.7099 37.875C7.1499 37.875 1.7099 43.115 1.7099 49.775C1.7099 51.185 2.00991 52.495 2.40991 53.805H2.41992Z" fill="#26303C"/>
<path id="Vector_50" d="M46.7798 37.775C42.9498 37.775 39.8198 34.655 39.8198 30.815C39.8198 26.975 42.9498 23.855 46.7798 23.855C50.6098 23.855 53.7399 26.975 53.7399 30.815C53.7399 34.655 50.6198 37.775 46.7798 37.775ZM46.7798 25.275C43.6498 25.275 41.1298 27.795 41.1298 30.925C41.1298 34.055 43.6498 36.575 46.7798 36.575C49.9098 36.575 52.4299 34.055 52.4299 30.925C52.5299 27.795 49.9098 25.275 46.7798 25.275Z" fill="#26303C"/>
<path id="Vector_51" d="M40.5299 55.115C40.2299 55.115 39.9199 54.815 39.9199 54.505V49.765C39.9199 49.465 40.2199 49.165 40.5299 49.165C40.8399 49.165 41.1299 49.465 41.1299 49.765V54.505C41.1299 54.805 40.9299 55.115 40.5299 55.115Z" fill="#26303C"/>
<path id="Vector_52" d="M53.1399 55.115C52.8399 55.115 52.5399 54.815 52.5399 54.505V49.765C52.5399 49.465 52.8399 49.165 53.1399 49.165C53.4399 49.165 53.7399 49.465 53.7399 49.765V54.505C53.7399 54.805 53.4399 55.115 53.1399 55.115Z" fill="#26303C"/>
<path id="Vector_53" d="M46.7799 48.765C46.5799 48.765 46.4799 48.665 46.3799 48.565L43.2499 45.445C43.0499 45.245 43.0499 45.045 43.1499 44.735L46.2799 36.875C46.3799 36.675 46.5799 36.475 46.8799 36.475C47.1799 36.475 47.3799 36.675 47.4899 36.875L50.6099 44.735C50.7099 44.935 50.6099 45.235 50.5099 45.445L47.3799 48.565C47.1799 48.765 46.9799 48.765 46.7799 48.765ZM44.4599 44.835L46.8799 47.255L49.2999 44.835L46.8799 38.785L44.4599 44.835Z" fill="#26303C"/>
<path id="Vector_54" d="M58.4799 55.115H35.1899C34.8899 55.115 34.6898 54.915 34.5898 54.715C33.9798 53.105 33.5798 51.485 33.5798 49.775C33.5798 42.515 39.5299 36.565 46.7899 36.565C54.0499 36.565 59.9999 42.515 59.9999 49.775C59.9999 51.485 59.6999 53.105 58.9899 54.715C58.9899 54.915 58.7899 55.115 58.4899 55.115H58.4799ZM35.5898 53.805H58.0698C58.5698 52.495 58.7798 51.085 58.7798 49.775C58.7798 43.225 53.4398 37.875 46.8798 37.875C40.3198 37.875 34.9799 43.215 34.9799 49.775C34.8799 51.185 35.0798 52.495 35.5798 53.805H35.5898Z" fill="#26303C"/>
<path id="Vector_55" d="M32.2699 29.105H28.2399C27.9399 29.105 27.6399 28.905 27.6399 28.505L27.2399 25.075C26.6299 24.875 25.9299 24.575 25.3199 24.265L22.5999 26.485C22.3999 26.685 21.9899 26.685 21.7899 26.485L18.8699 23.565C18.6699 23.365 18.6699 22.965 18.8699 22.755L21.0899 20.035C20.7899 19.425 20.4899 18.825 20.2799 18.115L16.7499 17.715C16.4499 17.715 16.1399 17.415 16.1399 17.115V12.985C16.1399 12.685 16.3399 12.375 16.7499 12.375L20.2799 11.975C20.4799 11.375 20.7799 10.665 21.0899 10.055L18.8699 7.33502C18.6699 7.13502 18.6699 6.73502 18.8699 6.52502L21.7899 3.60498C21.9899 3.40498 22.3899 3.40498 22.5999 3.60498L25.3199 5.82501C25.9299 5.52501 26.5299 5.21501 27.2399 5.01501L27.6399 1.48499C27.6399 1.18499 27.9399 0.88501 28.2399 0.88501H32.2699C32.5699 0.88501 32.8699 1.08499 32.8699 1.48499L33.2699 5.01501C33.8799 5.21501 34.5799 5.51501 35.1899 5.82501L37.9099 3.60498C38.1099 3.40498 38.5099 3.40498 38.7199 3.60498L41.6399 6.52502C41.8399 6.72502 41.8399 7.13502 41.6399 7.33502L39.4199 10.055C39.7199 10.655 40.0299 11.265 40.2299 11.975L43.7599 12.375C44.0599 12.375 44.3599 12.675 44.3599 12.985V17.115C44.3599 17.415 44.1599 17.715 43.7599 17.715L40.3299 18.115C40.1299 18.715 39.8299 19.425 39.5199 20.035L41.7399 22.755C41.9399 22.955 41.9399 23.365 41.7399 23.565L38.8199 26.485C38.6199 26.685 38.2099 26.685 38.0099 26.485L35.2899 24.265C34.6899 24.565 34.0799 24.865 33.3799 25.075L32.9799 28.605C32.8799 28.905 32.6799 29.105 32.2699 29.105ZM28.7399 27.895H31.7699L32.0699 24.565C32.0699 24.265 32.2699 24.065 32.5699 24.065C33.3799 23.865 34.1799 23.565 34.8899 23.055C35.0899 22.955 35.3899 22.955 35.5999 23.155L38.2199 25.275L40.3399 23.155L38.2199 20.535C38.0199 20.335 38.0199 20.035 38.1199 19.825C38.5199 19.115 38.9299 18.315 39.1299 17.505C39.2299 17.205 39.4299 17.105 39.6299 17.005L42.9599 16.705V13.675L39.6299 13.375C39.3299 13.375 39.1299 13.175 39.1299 12.875C38.9299 12.065 38.6299 11.265 38.1199 10.555C38.0199 10.355 38.0199 10.055 38.2199 9.84503L40.3399 7.22504L38.3199 4.90503L35.6999 7.02502C35.4999 7.22502 35.1999 7.225 34.9899 7.125C34.2799 6.725 33.4799 6.31499 32.6699 6.11499C32.3699 6.01499 32.2699 5.81499 32.1699 5.61499L31.8699 2.28503H28.8499L28.5499 5.61499C28.5499 5.91499 28.3499 6.11499 28.0499 6.11499C27.2399 6.31499 26.4399 6.615 25.7299 7.125C25.5299 7.225 25.2299 7.22502 25.0199 7.02502L22.1999 4.90503L20.0799 7.02502L22.1999 9.64502C22.3999 9.84502 22.3999 10.145 22.2999 10.355C21.8999 11.065 21.4899 11.865 21.2899 12.675C21.1899 12.975 20.9899 13.075 20.7899 13.175L17.4599 13.475V16.495L20.7899 16.795C21.0899 16.795 21.2899 16.995 21.2899 17.295C21.4899 18.105 21.7899 18.905 22.2999 19.615C22.3999 19.815 22.3999 20.115 22.1999 20.325L20.0799 22.945L22.1999 25.065L24.8199 22.945C25.0199 22.745 25.3199 22.745 25.5299 22.845C26.2399 23.245 27.0399 23.655 27.8499 23.855C28.1499 23.955 28.2499 24.155 28.3499 24.355L28.7499 27.885L28.7399 27.895Z" fill="#26303C"/>
<path id="Vector_56" d="M30.2499 21.345C26.7199 21.345 23.8999 18.525 23.8999 14.995C23.8999 11.465 26.7199 8.64502 30.2499 8.64502C33.7799 8.64502 36.5999 11.465 36.5999 14.995C36.5999 18.525 33.7799 21.345 30.2499 21.345ZM30.2499 9.95502C27.4299 9.95502 25.2099 12.275 25.2099 14.995C25.2099 17.715 27.5299 20.035 30.2499 20.035C32.9699 20.035 35.2899 17.715 35.2899 14.995C35.2899 12.275 33.0699 9.95502 30.2499 9.95502Z" fill="#26303C"/>
<path id="Vector_57" d="M8.16992 17.915C6.45992 17.915 5.04993 16.505 5.04993 14.785C5.04993 13.065 6.45992 11.665 8.16992 11.665C9.87992 11.665 11.2999 13.075 11.2999 14.785C11.2999 16.495 9.88992 17.915 8.16992 17.915ZM8.16992 12.875C7.15992 12.875 6.25989 13.685 6.25989 14.795C6.25989 15.905 7.06992 16.715 8.16992 16.715C9.17992 16.715 10.0899 15.905 10.0899 14.795C10.0899 13.685 9.27992 12.875 8.16992 12.875Z" fill="#26303C"/>
<path id="Vector_58" d="M53.5399 17.915C51.1199 17.915 49.0999 15.895 49.0999 13.475C49.0999 11.055 51.1199 9.03503 53.5399 9.03503C55.9599 9.03503 57.9799 11.055 57.9799 13.475C57.9799 15.895 55.9599 17.915 53.5399 17.915ZM53.5399 10.355C51.8299 10.355 50.4099 11.765 50.4099 13.485C50.4099 15.205 51.8199 16.605 53.5399 16.605C55.2599 16.605 56.6599 15.195 56.6599 13.485C56.6599 11.775 55.2499 10.355 53.5399 10.355Z" fill="#26303C"/>
</g>
</g>
</svg>
