<svg width="57" height="58" viewBox="0 0 57 58" fill="none" xmlns="http://www.w3.org/2000/svg">
<g id="777, Affiliate, Affiliate Marketing, Marketing, User">
<g id="Group">
<path id="Vector" d="M28.5701 13.33C37.2401 13.33 44.3001 20.39 44.3001 29.06C44.3001 37.73 37.2401 44.79 28.5701 44.79C19.9001 44.79 12.8401 37.73 12.8401 29.06C12.8401 20.39 19.9001 13.33 28.5701 13.33Z" fill="white"/>
<path id="Vector_2" d="M28.47 26.94C32.2 26.94 35.22 29.96 35.22 33.69C35.22 34.6 35.02 35.4 34.72 36.21H22.22C21.92 35.4 21.72 34.6 21.72 33.69C21.82 29.96 24.74 26.94 28.47 26.94Z" fill="#97A2B2"/>
<path id="Vector_3" d="M5.28006 50.53C6.99006 50.53 8.41003 51.94 8.41003 53.66C8.41003 55.38 7.00006 56.78 5.28006 56.78C3.56006 56.78 2.16003 55.37 2.16003 53.66C2.16003 51.95 3.47006 50.53 5.28006 50.53Z" fill="#97A2B2"/>
<path id="Vector_4" d="M52.56 3.23999C53.57 3.23999 54.47 4.04997 54.47 5.15997C54.47 6.26997 53.66 7.08002 52.56 7.08002C51.55 7.08002 50.64 6.26997 50.64 5.15997C50.64 4.04997 51.45 3.23999 52.56 3.23999Z" fill="#97A2B2"/>
<path id="Vector_5" d="M53.77 29.05C53.77 29.96 53.06 30.56 52.26 30.56C51.35 30.56 50.75 29.85 50.75 29.05C50.75 28.14 51.46 27.54 52.26 27.54C53.06 27.54 53.77 28.15 53.77 29.05Z" fill="#97A2B2"/>
<path id="Vector_6" d="M6.38998 29.05C6.38998 29.96 5.67997 30.56 4.87997 30.56C3.96997 30.56 3.37 29.85 3.37 29.05C3.37 28.14 4.07997 27.54 4.87997 27.54C5.67997 27.54 6.38998 28.15 6.38998 29.05Z" fill="#97A2B2"/>
<path id="Vector_7" d="M46.41 44.68C47.01 45.29 47.01 46.29 46.41 46.9C45.81 47.51 44.8 47.51 44.19 46.9C43.58 46.3 43.58 45.29 44.19 44.68C44.79 44.08 45.8 44.08 46.41 44.68Z" fill="#97A2B2"/>
<path id="Vector_8" d="M27.0601 52.75C27.0601 51.84 27.77 51.24 28.57 51.24C29.37 51.24 30.08 51.95 30.08 52.75C30.08 53.66 29.37 54.26 28.57 54.26C27.66 54.26 27.0601 53.55 27.0601 52.75Z" fill="#97A2B2"/>
<path id="Vector_9" d="M12.94 46.9C12.33 47.51 11.33 47.51 10.72 46.9C10.11 46.29 10.12 45.29 10.72 44.68C11.33 44.08 12.33 44.08 12.94 44.68C13.54 45.29 13.54 46.29 12.94 46.9Z" fill="#97A2B2"/>
<path id="Vector_10" d="M12.94 13.43C12.33 14.04 11.33 14.04 10.72 13.43C10.12 12.83 10.12 11.82 10.72 11.21C11.32 10.6 12.33 10.6 12.94 11.21C13.54 11.81 13.54 12.82 12.94 13.43Z" fill="#97A2B2"/>
<path id="Vector_11" d="M27.0601 5.35999C27.0601 4.44999 27.77 3.84998 28.57 3.84998C29.37 3.84998 30.08 4.55999 30.08 5.35999C30.08 6.26999 29.37 6.87 28.57 6.87C27.66 6.97 27.0601 6.25999 27.0601 5.35999Z" fill="#97A2B2"/>
<path id="Vector_12" d="M46.41 11.21C47.01 11.81 47.01 12.82 46.41 13.43C45.81 14.04 44.8 14.04 44.19 13.43C43.58 12.83 43.58 11.82 44.19 11.21C44.79 10.6 45.8 10.6 46.41 11.21Z" fill="#97A2B2"/>
<path id="Vector_13" d="M24.53 5.35999C24.53 3.13999 26.35 1.33002 28.56 1.33002C30.77 1.33002 32.59 3.14999 32.59 5.35999C32.59 5.75999 32.59 6.06999 32.49 6.37C31.99 8.08 30.47 9.40002 28.56 9.40002C26.65 9.40002 25.03 8.09 24.63 6.37C24.53 6.06999 24.53 5.76999 24.53 5.35999ZM27.05 5.35999C27.05 6.26999 27.76 6.87 28.56 6.87C29.36 6.87 30.07 6.15999 30.07 5.35999C30.07 4.44999 29.36 3.84998 28.56 3.84998C27.76 3.84998 27.05 4.55999 27.05 5.35999Z" fill="white"/>
<path id="Vector_14" d="M44.2 13.43C44.8 14.04 45.81 14.04 46.42 13.43C47.02 12.83 47.02 11.82 46.42 11.21C45.82 10.6 44.81 10.6 44.2 11.21C43.59 11.81 43.59 12.82 44.2 13.43ZM45.31 8.28998C47.53 8.28998 49.34 10.1 49.34 12.32C49.34 13.83 48.53 15.14 47.32 15.85C46.72 16.25 46.01 16.35 45.3 16.35C43.08 16.35 41.27 14.54 41.27 12.32C41.27 11.51 41.47 10.81 41.87 10.2C42.48 9.09001 43.79 8.28003 45.3 8.28003L45.31 8.28998Z" fill="white"/>
<path id="Vector_15" d="M50.65 29.05C50.65 29.96 51.3599 30.56 52.1599 30.56C53.0699 30.56 53.67 29.85 53.67 29.05C53.67 28.14 52.9599 27.54 52.1599 27.54C51.3599 27.54 50.65 28.15 50.65 29.05ZM52.2599 25.02C54.4799 25.02 56.2899 26.83 56.2899 29.05C56.2899 31.27 54.4699 33.08 52.2599 33.08C51.8599 33.08 51.55 33.08 51.25 32.98C49.54 32.48 48.22 30.96 48.22 29.05C48.22 27.14 49.53 25.52 51.25 25.12C51.55 25.02 51.8499 25.02 52.2599 25.02Z" fill="white"/>
<path id="Vector_16" d="M44.2 46.9C44.8 47.51 45.81 47.51 46.42 46.9C47.02 46.3 47.02 45.29 46.42 44.68C45.82 44.08 44.81 44.08 44.2 44.68C43.59 45.29 43.59 46.29 44.2 46.9ZM47.32 42.26C48.53 42.97 49.34 44.2799 49.34 45.7899C49.34 48.0099 47.53 49.82 45.31 49.82C43.8 49.82 42.49 49.01 41.78 47.8C41.38 47.19 41.28 46.49 41.28 45.78C41.28 43.56 43.09 41.75 45.31 41.75C46.02 41.65 46.72 41.85 47.33 42.25L47.32 42.26Z" fill="white"/>
<path id="Vector_17" d="M27.0601 52.75C27.0601 53.66 27.77 54.26 28.57 54.26C29.37 54.26 30.08 53.55 30.08 52.75C30.08 51.84 29.37 51.24 28.57 51.24C27.66 51.14 27.0601 51.84 27.0601 52.75ZM24.64 51.64C25.14 49.93 26.66 48.62 28.57 48.62C30.48 48.62 32.1001 49.93 32.5001 51.64C32.6001 51.94 32.6 52.35 32.6 52.65C32.6 54.87 30.79 56.68 28.57 56.68C26.35 56.68 24.54 54.87 24.54 52.65C24.54 52.35 24.54 52.05 24.64 51.64Z" fill="white"/>
<path id="Vector_18" d="M10.7201 46.9C11.3301 47.51 12.3301 47.51 12.9401 46.9C13.5401 46.3 13.5401 45.29 12.9401 44.68C12.3301 44.08 11.3301 44.08 10.7201 44.68C10.1201 45.29 10.1201 46.29 10.7201 46.9ZM11.83 41.66C14.05 41.66 15.86 43.47 15.86 45.69C15.86 46.5 15.6601 47.2 15.2501 47.81C14.5401 49.02 13.2301 49.83 11.7201 49.83C9.50006 49.83 7.69006 48.01 7.69006 45.8C7.69006 44.29 8.50005 42.98 9.71005 42.27C10.4201 41.87 11.12 41.67 11.83 41.67V41.66Z" fill="white"/>
<path id="Vector_19" d="M4.87009 30.57C5.78009 30.57 6.38007 29.86 6.38007 29.06C6.38007 28.15 5.67009 27.55 4.87009 27.55C3.96009 27.55 3.36008 28.26 3.36008 29.06C3.36008 29.86 4.07009 30.57 4.87009 30.57ZM5.98007 25.13C7.69007 25.63 9.00009 27.15 9.00009 29.06C9.00009 30.97 7.69007 32.59 5.98007 32.99C3.36007 33.7 0.840088 31.68 0.840088 29.06C0.840088 26.44 3.36007 24.42 5.98007 25.13Z" fill="white"/>
<path id="Vector_20" d="M10.7201 13.43C11.3301 14.04 12.3301 14.04 12.9401 13.43C13.5501 12.82 13.5401 11.82 12.9401 11.21C12.3301 10.6 11.3301 10.6 10.7201 11.21C10.1101 11.82 10.1201 12.82 10.7201 13.43ZM15.9601 12.32C15.9601 14.54 14.1501 16.35 11.9301 16.35C11.1201 16.35 10.4201 16.15 9.81006 15.75C8.60006 15.04 7.79004 13.73 7.79004 12.22C7.79004 9.99997 9.61004 8.19 11.82 8.19C13.33 8.19 14.64 9.00002 15.35 10.21C15.75 10.92 15.95 11.62 15.95 12.33L15.9601 12.32Z" fill="white"/>
<path id="Vector_21" d="M28.47 20.28C30.31 20.28 31.8 21.77 31.8 23.61C31.8 25.45 30.31 26.94 28.47 26.94C26.63 26.94 25.14 25.45 25.14 23.61C25.14 21.77 26.63 20.28 28.47 20.28Z" fill="#97A2B2"/>
<path id="Vector_22" d="M28.47 26.94L30.18 31.17L28.47 32.88L26.85 31.17L28.47 26.94Z" fill="white"/>
<path id="Vector_23" d="M54.08 40.45C54.58 40.45 54.9901 40.86 54.9901 41.36C54.9901 41.86 54.58 42.27 54.08 42.27C53.58 42.27 53.17 41.86 53.17 41.36C53.17 40.86 53.58 40.45 54.08 40.45Z" fill="#26303C"/>
<path id="Vector_24" d="M52.16 13.33C52.66 13.33 53.07 13.74 53.07 14.24C53.07 14.74 52.66 15.15 52.16 15.15C51.66 15.15 51.25 14.74 51.25 14.24C51.25 13.74 51.66 13.33 52.16 13.33Z" fill="#26303C"/>
<path id="Vector_25" d="M43.9901 54.26C44.4901 54.26 44.9001 54.67 44.9001 55.17C44.9001 55.67 44.4901 56.08 43.9901 56.08C43.4901 56.08 43.0801 55.67 43.0801 55.17C43.0801 54.67 43.4901 54.26 43.9901 54.26Z" fill="#26303C"/>
<path id="Vector_26" d="M41.17 28.15C41.67 28.15 42.08 28.56 42.08 29.06C42.08 29.56 41.67 29.97 41.17 29.97C40.67 29.97 40.26 29.56 40.26 29.06C40.26 28.56 40.67 28.15 41.17 28.15Z" fill="#26303C"/>
<path id="Vector_27" d="M40.87 1.33002C41.37 1.33002 41.78 1.73999 41.78 2.23999C41.78 2.73999 41.37 3.15002 40.87 3.15002C40.37 3.15002 39.96 2.73999 39.96 2.23999C39.96 1.73999 40.37 1.33002 40.87 1.33002Z" fill="#26303C"/>
<path id="Vector_28" d="M40.26 23.31C40.76 23.31 41.17 23.71 41.17 24.22C41.17 24.73 40.77 25.13 40.26 25.13C39.75 25.13 39.35 24.73 39.35 24.22C39.25 23.82 39.75 23.31 40.26 23.31Z" fill="#26303C"/>
<path id="Vector_29" d="M40.16 32.99C40.66 32.99 41.07 33.39 41.07 33.9C41.07 34.41 40.67 34.81 40.16 34.81C39.65 34.81 39.25 34.41 39.25 33.9C39.25 33.39 39.65 32.99 40.16 32.99Z" fill="#26303C"/>
<path id="Vector_30" d="M37.44 19.17C37.94 19.17 38.35 19.57 38.35 20.08C38.35 20.59 37.95 20.99 37.44 20.99C36.93 20.99 36.53 20.59 36.53 20.08C36.53 19.57 36.93 19.17 37.44 19.17Z" fill="#26303C"/>
<path id="Vector_31" d="M37.44 37.02C37.94 37.02 38.35 37.42 38.35 37.93C38.35 38.44 37.95 38.84 37.44 38.84C36.93 38.84 36.53 38.44 36.53 37.93C36.53 37.42 36.93 37.02 37.44 37.02Z" fill="#26303C"/>
<path id="Vector_32" d="M33.41 16.55C33.91 16.55 34.32 16.96 34.32 17.46C34.32 17.96 33.91 18.37 33.41 18.37C32.91 18.37 32.5 17.96 32.5 17.46C32.5 16.96 32.91 16.55 33.41 16.55Z" fill="#26303C"/>
<path id="Vector_33" d="M33.31 39.74C33.81 39.74 34.22 40.14 34.22 40.65C34.22 41.16 33.82 41.56 33.31 41.56C32.8 41.56 32.4 41.16 32.4 40.65C32.4 40.25 32.8 39.74 33.31 39.74Z" fill="#26303C"/>
<path id="Vector_34" d="M28.57 15.54C29.07 15.54 29.48 15.95 29.48 16.45C29.48 16.95 29.07 17.36 28.57 17.36C28.07 17.36 27.66 16.95 27.66 16.45C27.66 15.95 28.07 15.54 28.57 15.54Z" fill="#26303C"/>
<path id="Vector_35" d="M28.57 40.75C29.07 40.75 29.48 41.16 29.48 41.66C29.48 42.16 29.07 42.57 28.57 42.57C28.07 42.57 27.66 42.16 27.66 41.66C27.66 41.16 28.07 40.75 28.57 40.75Z" fill="#26303C"/>
<path id="Vector_36" d="M23.8301 16.45C24.3301 16.45 24.7401 16.85 24.7401 17.36C24.7401 17.87 24.3401 18.27 23.8301 18.27C23.3201 18.27 22.9201 17.87 22.9201 17.36C22.8201 16.86 23.2201 16.45 23.8301 16.45Z" fill="#26303C"/>
<path id="Vector_37" d="M23.73 39.74C24.23 39.74 24.64 40.14 24.64 40.65C24.64 41.16 24.24 41.56 23.73 41.56C23.22 41.56 22.82 41.16 22.82 40.65C22.72 40.15 23.12 39.74 23.73 39.74Z" fill="#26303C"/>
<path id="Vector_38" d="M19.7 19.27C20.2 19.27 20.61 19.68 20.61 20.18C20.61 20.68 20.2 21.09 19.7 21.09C19.2 21.09 18.79 20.68 18.79 20.18C18.79 19.68 19.2 19.27 19.7 19.27Z" fill="#26303C"/>
<path id="Vector_39" d="M19.7 37.02C20.2 37.02 20.61 37.43 20.61 37.93C20.61 38.43 20.2 38.84 19.7 38.84C19.2 38.84 18.79 38.43 18.79 37.93C18.79 37.43 19.2 37.02 19.7 37.02Z" fill="#26303C"/>
<path id="Vector_40" d="M16.9701 23.31C17.4701 23.31 17.88 23.72 17.88 24.22C17.88 24.72 17.4701 25.13 16.9701 25.13C16.4701 25.13 16.0601 24.72 16.0601 24.22C16.0601 23.72 16.4701 23.31 16.9701 23.31Z" fill="#26303C"/>
<path id="Vector_41" d="M16.87 54.26C17.37 54.26 17.78 54.67 17.78 55.17C17.78 55.67 17.37 56.08 16.87 56.08C16.37 56.08 15.96 55.67 15.96 55.17C15.96 54.67 16.37 54.26 16.87 54.26Z" fill="#26303C"/>
<path id="Vector_42" d="M16.87 32.88C17.37 32.88 17.78 33.28 17.78 33.79C17.78 34.3 17.38 34.7 16.87 34.7C16.36 34.7 15.96 34.3 15.96 33.79C15.96 33.28 16.36 32.88 16.87 32.88Z" fill="#26303C"/>
<path id="Vector_43" d="M15.9701 28.15C16.4701 28.15 16.88 28.56 16.88 29.06C16.88 29.56 16.4701 29.97 15.9701 29.97C15.4701 29.97 15.0601 29.56 15.0601 29.06C15.0601 28.56 15.4701 28.15 15.9701 28.15Z" fill="#26303C"/>
<path id="Vector_44" d="M7.50009 3.84998C8.00267 3.84998 8.41006 3.44258 8.41006 2.94C8.41006 2.43742 8.00267 2.03003 7.50009 2.03003C6.99751 2.03003 6.59009 2.43742 6.59009 2.94C6.59009 3.44258 6.99751 3.84998 7.50009 3.84998Z" fill="#26303C"/>
<path id="Vector_45" d="M2.46005 41.66C2.96005 41.66 3.37006 42.07 3.37006 42.57C3.37006 43.07 2.96005 43.48 2.46005 43.48C1.96005 43.48 1.55005 43.07 1.55005 42.57C1.55005 42.07 1.96005 41.66 2.46005 41.66Z" fill="#26303C"/>
<path id="Vector_46" d="M1.75009 11.41C2.25009 11.41 2.66006 11.82 2.66006 12.32C2.66006 12.82 2.25009 13.23 1.75009 13.23C1.25009 13.23 0.840088 12.82 0.840088 12.32C0.840088 11.82 1.25009 11.41 1.75009 11.41Z" fill="#26303C"/>
<path id="Vector_47" d="M41.7801 10.91H41.5801L32.3001 7.08001C32.0001 6.98001 31.8001 6.58001 32.0001 6.27001C32.1001 5.97001 32.5001 5.76996 32.8101 5.96996L42.0901 9.79998C42.3901 9.89998 42.59 10.3 42.39 10.61C42.29 10.71 41.99 10.91 41.79 10.91H41.7801Z" fill="#26303C"/>
<path id="Vector_48" d="M51.15 25.73C50.95 25.73 50.65 25.63 50.55 25.33L46.72 16.05C46.62 15.75 46.72 15.34 47.02 15.24C47.32 15.14 47.73 15.24 47.83 15.54L51.66 24.82C51.76 25.12 51.66 25.53 51.36 25.63C51.36 25.73 51.26 25.73 51.16 25.73H51.15Z" fill="#26303C"/>
<path id="Vector_49" d="M47.32 42.87H47.12C46.82 42.77 46.62 42.37 46.82 42.06L50.65 32.78C50.75 32.48 51.15 32.28 51.46 32.48C51.76 32.58 51.96 32.98 51.76 33.29L47.93 42.57C47.83 42.77 47.63 42.87 47.32 42.87Z" fill="#26303C"/>
<path id="Vector_50" d="M32.5001 52.3401C32.3001 52.3401 32 52.24 31.89 51.94C31.79 51.64 31.8901 51.23 32.1901 51.13L41.4701 47.3C41.7701 47.2 42.1801 47.3 42.2801 47.6C42.3801 47.9 42.28 48.31 41.98 48.41L32.81 52.24C32.71 52.34 32.61 52.3401 32.51 52.3401H32.5001Z" fill="#26303C"/>
<path id="Vector_51" d="M24.64 52.34H24.4401L15.16 48.51C14.86 48.41 14.66 48.01 14.86 47.7C14.96 47.4 15.36 47.2 15.67 47.4L24.95 51.23C25.25 51.33 25.4501 51.73 25.2501 52.04C25.1501 52.14 24.8501 52.34 24.6501 52.34H24.64Z" fill="#26303C"/>
<path id="Vector_52" d="M9.81005 42.87C9.61005 42.87 9.31004 42.77 9.21004 42.47L5.38003 33.3C5.28003 33 5.38004 32.59 5.68004 32.49C5.98004 32.39 6.39004 32.49 6.49004 32.79L10.32 42.07C10.42 42.37 10.32 42.78 10.02 42.88H9.82003L9.81005 42.87Z" fill="#26303C"/>
<path id="Vector_53" d="M5.98004 25.73H5.78006C5.48006 25.63 5.28004 25.23 5.48004 24.92L9.31006 15.64C9.41006 15.34 9.81005 15.14 10.1201 15.34C10.4201 15.44 10.62 15.84 10.42 16.15L6.59005 25.43C6.49005 25.63 6.19004 25.73 5.98004 25.73Z" fill="#26303C"/>
<path id="Vector_54" d="M15.36 10.91C15.16 10.91 14.86 10.81 14.75 10.51C14.65 10.21 14.75 9.81004 15.05 9.70004L24.33 5.87002C24.63 5.77002 25.04 5.87001 25.14 6.17001C25.24 6.47001 25.14 6.88001 24.84 6.98001L15.56 10.91H15.36Z" fill="#26303C"/>
<path id="Vector_55" d="M28.57 10.1C26.45 10.1 24.5401 8.69001 24.0301 6.57001C23.9301 6.17001 23.9301 5.75999 23.9301 5.35999C23.9301 2.73999 26.05 0.619995 28.67 0.619995C31.29 0.619995 33.41 2.73999 33.41 5.35999C33.41 5.75999 33.3101 6.17001 33.2101 6.57001C32.6101 8.69001 30.69 10.1 28.57 10.1ZM28.57 1.92999C26.66 1.92999 25.14 3.43999 25.14 5.35999C25.14 5.65999 25.1401 5.96002 25.2401 6.27002C25.6401 7.78002 27.06 8.89001 28.57 8.89001C30.18 8.89001 31.4901 7.88 31.9001 6.37C32.0001 6.06999 32.0001 5.77002 32.0001 5.46002C32.0001 3.55002 30.49 1.92999 28.57 1.92999Z" fill="#26303C"/>
<path id="Vector_56" d="M28.57 7.58002C27.36 7.58002 26.35 6.56999 26.35 5.35999C26.35 4.14999 27.36 3.14001 28.57 3.14001C29.78 3.14001 30.79 4.14999 30.79 5.35999C30.79 6.56999 29.78 7.58002 28.57 7.58002ZM28.57 4.46002C28.07 4.46002 27.66 4.86 27.66 5.37C27.66 5.88 28.06 6.28003 28.57 6.28003C29.08 6.28003 29.48 5.88 29.48 5.37C29.48 4.86 29.08 4.46002 28.57 4.46002Z" fill="#26303C"/>
<path id="Vector_57" d="M28.5701 57.38C25.9501 57.38 23.8301 55.26 23.8301 52.64C23.8301 52.24 23.9301 51.83 24.0301 51.43C24.5301 49.41 26.4501 47.9 28.5701 47.9C30.6901 47.9 32.6001 49.31 33.1101 51.43C33.2101 51.83 33.2101 52.24 33.2101 52.64C33.3101 55.26 31.1901 57.38 28.5701 57.38ZM28.5701 49.21C26.9601 49.21 25.6501 50.22 25.2401 51.73C25.1401 52.03 25.1401 52.34 25.1401 52.64C25.1401 54.56 26.6501 56.07 28.5701 56.07C30.4901 56.07 32.0001 54.56 32.0001 52.64C32.0001 52.34 32.0001 52.04 31.9001 51.73C31.5001 50.32 30.1901 49.21 28.5701 49.21Z" fill="#26303C"/>
<path id="Vector_58" d="M28.57 54.86C27.36 54.86 26.35 53.85 26.35 52.64C26.35 51.43 27.36 50.42 28.57 50.42C29.78 50.42 30.79 51.43 30.79 52.64C30.79 53.95 29.78 54.86 28.57 54.86ZM28.57 51.73C28.07 51.73 27.66 52.13 27.66 52.64C27.66 53.15 28.06 53.55 28.57 53.55C29.08 53.55 29.48 53.15 29.48 52.64C29.48 52.13 29.08 51.73 28.57 51.73Z" fill="#26303C"/>
<path id="Vector_59" d="M45.3 14.54C44.7 14.54 44.19 14.34 43.79 13.94C42.98 13.13 42.98 11.72 43.79 10.81C44.19 10.41 44.8 10.21 45.3 10.21C45.91 10.21 46.41 10.41 46.81 10.81C47.62 11.62 47.62 13.03 46.81 13.94C46.41 14.34 45.9 14.54 45.3 14.54ZM45.3 11.41C45.1 11.41 44.8 11.51 44.7 11.71C44.3 12.11 44.3 12.62 44.7 13.02C44.9 13.22 45.1 13.32 45.3 13.32C45.5 13.32 45.8 13.22 45.91 13.02C46.31 12.62 46.31 12.11 45.91 11.71C45.81 11.51 45.51 11.41 45.3 11.41Z" fill="#26303C"/>
<path id="Vector_60" d="M11.83 48.01C11.23 48.01 10.7199 47.81 10.3199 47.41C9.91995 47.01 9.71997 46.4 9.71997 45.9C9.71997 45.3 9.91995 44.79 10.3199 44.39C10.7199 43.99 11.33 43.78 11.83 43.78C12.44 43.78 12.94 43.98 13.34 44.39C14.15 45.2 14.15 46.61 13.34 47.51C12.94 47.71 12.43 48.01 11.83 48.01ZM11.83 44.89C11.63 44.89 11.3299 44.99 11.2299 45.19C11.0299 45.39 10.93 45.59 10.93 45.9C10.93 46.1 11.0299 46.4 11.2299 46.51C11.4299 46.71 11.63 46.81 11.94 46.81C12.14 46.81 12.44 46.71 12.65 46.51C13.05 46.11 13.05 45.6 12.65 45.2C12.35 45 12.15 44.9 11.84 44.9L11.83 44.89Z" fill="#26303C"/>
<path id="Vector_61" d="M52.26 31.27C51.05 31.27 50.04 30.26 50.04 29.05C50.04 27.84 51.05 26.83 52.26 26.83C53.47 26.83 54.48 27.84 54.48 29.05C54.38 30.26 53.47 31.27 52.26 31.27ZM52.26 28.15C51.76 28.15 51.35 28.55 51.35 29.06C51.35 29.57 51.75 29.97 52.26 29.97C52.77 29.97 53.17 29.57 53.17 29.06C53.17 28.55 52.77 28.15 52.26 28.15Z" fill="#26303C"/>
<path id="Vector_62" d="M4.87003 31.27C3.66003 31.27 2.65002 30.26 2.65002 29.05C2.65002 27.84 3.66003 26.83 4.87003 26.83C6.08003 26.83 7.09003 27.84 7.09003 29.05C7.09003 30.26 6.08003 31.27 4.87003 31.27ZM4.87003 28.15C4.37003 28.15 3.96002 28.55 3.96002 29.06C3.96002 29.57 4.36003 29.97 4.87003 29.97C5.38003 29.97 5.78003 29.57 5.78003 29.06C5.78003 28.55 5.48003 28.15 4.87003 28.15Z" fill="#26303C"/>
<path id="Vector_63" d="M11.83 14.54C11.23 14.54 10.7199 14.34 10.3199 13.94C9.91995 13.54 9.71997 12.93 9.71997 12.43C9.71997 11.82 9.91995 11.32 10.3199 10.92C10.7199 10.52 11.33 10.32 11.83 10.32C12.44 10.32 12.94 10.52 13.34 10.92C14.15 11.73 14.15 13.14 13.34 14.05C12.94 14.35 12.43 14.55 11.83 14.55V14.54ZM11.83 11.41C11.63 11.41 11.3299 11.51 11.2299 11.71C11.0299 11.91 10.93 12.11 10.93 12.32C10.93 12.53 11.0299 12.82 11.2299 13.02C11.4299 13.22 11.63 13.32 11.83 13.32C12.03 13.32 12.3299 13.22 12.5399 13.02C12.9399 12.62 12.9399 12.11 12.5399 11.71C12.3399 11.51 12.14 11.41 11.83 11.41Z" fill="#26303C"/>
<path id="Vector_64" d="M45.3 48.01C44.7 48.01 44.19 47.81 43.79 47.41C42.98 46.6 42.98 45.19 43.79 44.28C44.19 43.88 44.8 43.68 45.3 43.68C45.91 43.68 46.41 43.88 46.81 44.28C47.62 45.09 47.62 46.5 46.81 47.41C46.41 47.71 45.9 48.01 45.3 48.01ZM45.3 44.89C45.1 44.89 44.8 44.99 44.7 45.19C44.3 45.59 44.3 46.1 44.7 46.5C44.9 46.7 45.1 46.8 45.3 46.8C45.5 46.8 45.8 46.7 45.91 46.5C46.31 46.1 46.31 45.59 45.91 45.19C45.81 44.99 45.51 44.89 45.3 44.89Z" fill="#26303C"/>
<path id="Vector_65" d="M45.3 17.06C42.68 17.06 40.5601 14.94 40.5601 12.32C40.5601 11.51 40.76 10.61 41.16 9.90002C41.97 8.49002 43.5801 7.58002 45.1901 7.58002C47.8101 7.58002 49.9301 9.70001 49.9301 12.32C49.9301 14.03 49.02 15.55 47.61 16.35C46.9 16.85 46.1 17.06 45.29 17.06H45.3ZM45.3 8.89001C44.09 8.89001 42.98 9.49998 42.38 10.6C42.08 11.1 41.88 11.71 41.88 12.31C41.88 14.22 43.3901 15.74 45.3101 15.74C45.9201 15.74 46.5201 15.54 47.0201 15.24C48.0301 14.63 48.73 13.53 48.73 12.21C48.73 10.4 47.22 8.88 45.3 8.88V8.89001Z" fill="#26303C"/>
<path id="Vector_66" d="M11.8301 50.53C9.21008 50.53 7.09009 48.41 7.09009 45.79C7.09009 44.08 8.00006 42.56 9.41006 41.76C10.1201 41.36 10.9201 41.16 11.8301 41.16C14.4501 41.16 16.5701 43.28 16.5701 45.9C16.5701 46.71 16.3701 47.61 15.9701 48.32C15.0601 49.63 13.5501 50.54 11.8401 50.54L11.8301 50.53ZM11.8301 42.36C11.2301 42.36 10.6201 42.56 10.1201 42.86C9.11009 43.46 8.41006 44.57 8.41006 45.88C8.41006 47.8 9.92009 49.31 11.8401 49.31C13.0501 49.31 14.1601 48.71 14.7601 47.6C15.0601 47.1 15.2601 46.49 15.2601 45.89C15.2601 43.87 13.7501 42.36 11.8301 42.36Z" fill="#26303C"/>
<path id="Vector_67" d="M52.26 33.79C51.86 33.79 51.45 33.69 51.05 33.59C49.03 33.09 47.52 31.17 47.52 29.05C47.52 26.93 48.93 25.02 51.05 24.51C51.45 24.41 51.86 24.41 52.26 24.41C54.88 24.41 57 26.53 57 29.15C57 31.77 54.78 33.79 52.26 33.79ZM52.26 25.62C51.96 25.62 51.66 25.62 51.35 25.72C49.84 26.12 48.73 27.43 48.73 29.05C48.73 30.67 49.74 31.97 51.25 32.38C51.55 32.48 51.85 32.48 52.16 32.48C54.07 32.48 55.59 30.97 55.59 29.05C55.59 27.13 54.08 25.62 52.26 25.62Z" fill="#26303C"/>
<path id="Vector_68" d="M4.87003 33.79C2.25003 33.79 0.130005 31.67 0.130005 29.05C0.130005 26.43 2.25003 24.31 4.87003 24.31C5.27003 24.31 5.68002 24.41 6.08002 24.51C8.10002 25.01 9.61002 26.93 9.61002 29.05C9.61002 31.17 8.20002 33.08 6.08002 33.59C5.68002 33.69 5.27003 33.79 4.87003 33.79ZM4.87003 25.62C2.96003 25.62 1.44003 27.13 1.44003 29.05C1.44003 30.97 2.95003 32.48 4.87003 32.48C5.17003 32.48 5.48003 32.48 5.78003 32.38C7.29003 31.98 8.40002 30.56 8.40002 29.05C8.40002 27.44 7.39001 26.13 5.88 25.72C5.48 25.62 5.17003 25.62 4.87003 25.62Z" fill="#26303C"/>
<path id="Vector_69" d="M11.8301 17.06C11.0201 17.06 10.1201 16.86 9.41006 16.46C8.00006 15.65 7.09009 14.04 7.09009 12.43C7.09009 9.80999 9.21008 7.69 11.8301 7.69C13.5401 7.69 15.0601 8.60001 15.8601 10.01C16.2601 10.72 16.4601 11.52 16.4601 12.43C16.5601 14.95 14.4401 17.07 11.8201 17.07L11.8301 17.06ZM11.8301 8.89001C9.91008 8.89001 8.40009 10.4 8.40009 12.32C8.40009 13.53 9.00008 14.64 10.1101 15.24C10.6101 15.54 11.2201 15.74 11.8201 15.74C13.7401 15.74 15.2501 14.23 15.2501 12.31C15.2501 11.7 15.0501 11.1 14.7501 10.6C14.2501 9.48998 13.0401 8.89001 11.8301 8.89001Z" fill="#26303C"/>
<path id="Vector_70" d="M45.3 50.53C43.59 50.53 42.0701 49.62 41.2701 48.21C40.8701 47.5 40.66 46.7 40.66 45.79C40.66 43.17 42.7801 41.05 45.4001 41.05C46.2101 41.05 47.11 41.25 47.82 41.65C49.23 42.46 50.14 44.07 50.14 45.68C50.04 48.4 47.92 50.52 45.3 50.52V50.53ZM45.3 42.36C43.39 42.36 41.8701 43.87 41.8701 45.79C41.8701 46.39 42.0701 47 42.3701 47.5C42.9801 48.51 44.0801 49.21 45.4001 49.21C47.3101 49.21 48.83 47.7 48.83 45.78C48.83 44.57 48.2201 43.46 47.1201 42.86C46.5101 42.46 45.91 42.36 45.3 42.36Z" fill="#26303C"/>
<path id="Vector_71" d="M5.27997 57.38C3.15997 57.38 1.44995 55.67 1.44995 53.55C1.44995 51.43 3.15997 49.72 5.27997 49.72C7.39997 49.72 9.10995 51.43 9.10995 53.55C9.10995 55.67 7.28997 57.38 5.27997 57.38ZM5.27997 51.13C3.86997 51.13 2.75995 52.24 2.75995 53.65C2.75995 55.06 3.86997 56.17 5.27997 56.17C6.68997 56.17 7.79996 55.06 7.79996 53.65C7.79996 52.24 6.68997 51.13 5.27997 51.13Z" fill="#26303C"/>
<path id="Vector_72" d="M52.5601 7.67999C51.1501 7.67999 50.04 6.56997 50.04 5.15997C50.04 3.74997 51.1501 2.64001 52.5601 2.64001C53.9701 2.64001 55.08 3.74997 55.08 5.15997C55.08 6.56997 53.8701 7.67999 52.5601 7.67999ZM52.5601 3.84998C51.8501 3.84998 51.2501 4.45997 51.2501 5.15997C51.2501 5.85997 51.8501 6.46997 52.5601 6.46997C53.2701 6.46997 53.8701 5.85997 53.8701 5.15997C53.7701 4.44997 53.1601 3.84998 52.5601 3.84998Z" fill="#26303C"/>
<path id="Vector_73" d="M28.57 45.49C19.5 45.49 12.14 38.13 12.14 29.06C12.14 19.99 19.5 12.63 28.57 12.63C37.64 12.63 45 19.99 45 29.06C45 38.13 37.64 45.49 28.57 45.49ZM28.57 13.93C20.2 13.93 13.45 20.68 13.45 29.05C13.45 37.42 20.2 44.17 28.57 44.17C36.94 44.17 43.69 37.42 43.69 29.05C43.69 20.68 36.94 13.93 28.57 13.93Z" fill="#26303C"/>
<path id="Vector_74" d="M28.4701 27.64C26.2501 27.64 24.4401 25.83 24.4401 23.61C24.4401 21.39 26.2601 19.58 28.4701 19.58C30.6801 19.58 32.5001 21.39 32.5001 23.61C32.5001 25.83 30.6801 27.64 28.4701 27.64ZM28.4701 20.89C26.9601 20.89 25.7501 22.1 25.7501 23.61C25.7501 25.12 26.9601 26.33 28.4701 26.33C29.9801 26.33 31.1901 25.12 31.1901 23.61C31.1901 22.1 29.9801 20.89 28.4701 20.89Z" fill="#26303C"/>
<path id="Vector_75" d="M25.14 36.82C24.84 36.82 24.53 36.52 24.53 36.22V33.7C24.53 33.4 24.83 33.09 25.14 33.09C25.45 33.09 25.74 33.39 25.74 33.7V36.22C25.74 36.62 25.44 36.82 25.14 36.82Z" fill="#26303C"/>
<path id="Vector_76" d="M31.89 36.82C31.59 36.82 31.29 36.52 31.29 36.22V33.7C31.29 33.4 31.59 33.09 31.89 33.09C32.19 33.09 32.5001 33.39 32.5001 33.7V36.22C32.5001 36.62 32.2 36.82 31.89 36.82Z" fill="#26303C"/>
<path id="Vector_77" d="M28.47 33.49C28.27 33.49 28.17 33.39 28.07 33.29L26.36 31.58C26.16 31.38 26.16 31.18 26.26 30.87L27.97 26.64C28.07 26.44 28.27 26.24 28.57 26.24C28.87 26.24 29.07 26.44 29.18 26.64L30.89 30.87C30.99 31.07 30.89 31.37 30.79 31.58L29.08 33.29C28.88 33.39 28.68 33.49 28.48 33.49H28.47ZM27.56 31.07L28.47 31.98L29.38 31.07L28.47 28.75L27.56 31.07Z" fill="#26303C"/>
<path id="Vector_78" d="M34.72 36.82H22.22C21.92 36.82 21.72 36.62 21.62 36.42C21.22 35.51 21.12 34.61 21.12 33.7C21.12 29.67 24.45 26.34 28.48 26.34C32.51 26.34 35.84 29.67 35.84 33.7C35.84 34.61 35.64 35.61 35.34 36.42C35.24 36.72 35.04 36.82 34.74 36.82H34.72ZM22.72 35.61H34.31C34.51 35.01 34.61 34.4 34.61 33.7C34.61 30.37 31.89 27.55 28.46 27.55C25.03 27.55 22.31 30.27 22.31 33.7C22.41 34.3 22.51 35.01 22.71 35.61H22.72Z" fill="#26303C"/>
<path id="Vector_79" d="M28.5701 13.33C37.2401 13.33 44.3001 20.39 44.3001 29.06C44.3001 37.73 37.2401 44.79 28.5701 44.79C19.9001 44.79 12.8401 37.73 12.8401 29.06C12.8401 20.39 19.9001 13.33 28.5701 13.33Z" fill="white"/>
<path id="Vector_80" d="M28.47 26.94C32.2 26.94 35.22 29.96 35.22 33.69C35.22 34.6 35.02 35.4 34.72 36.21H22.22C21.92 35.4 21.72 34.6 21.72 33.69C21.82 29.96 24.74 26.94 28.47 26.94Z" fill="#97A2B2"/>
<path id="Vector_81" d="M5.28006 50.53C6.99006 50.53 8.41003 51.94 8.41003 53.66C8.41003 55.38 7.00006 56.78 5.28006 56.78C3.56006 56.78 2.16003 55.37 2.16003 53.66C2.16003 51.95 3.47006 50.53 5.28006 50.53Z" fill="#97A2B2"/>
<path id="Vector_82" d="M52.56 3.23999C53.57 3.23999 54.47 4.04997 54.47 5.15997C54.47 6.26997 53.66 7.08002 52.56 7.08002C51.55 7.08002 50.64 6.26997 50.64 5.15997C50.64 4.04997 51.45 3.23999 52.56 3.23999Z" fill="#97A2B2"/>
<path id="Vector_83" d="M53.77 29.05C53.77 29.96 53.06 30.56 52.26 30.56C51.35 30.56 50.75 29.85 50.75 29.05C50.75 28.14 51.46 27.54 52.26 27.54C53.06 27.54 53.77 28.15 53.77 29.05Z" fill="#97A2B2"/>
<path id="Vector_84" d="M6.38998 29.05C6.38998 29.96 5.67997 30.56 4.87997 30.56C3.96997 30.56 3.37 29.85 3.37 29.05C3.37 28.14 4.07997 27.54 4.87997 27.54C5.67997 27.54 6.38998 28.15 6.38998 29.05Z" fill="#97A2B2"/>
<path id="Vector_85" d="M46.41 44.68C47.01 45.29 47.01 46.29 46.41 46.9C45.81 47.51 44.8 47.51 44.19 46.9C43.58 46.3 43.58 45.29 44.19 44.68C44.79 44.08 45.8 44.08 46.41 44.68Z" fill="#97A2B2"/>
<path id="Vector_86" d="M27.0601 52.75C27.0601 51.84 27.77 51.24 28.57 51.24C29.37 51.24 30.08 51.95 30.08 52.75C30.08 53.66 29.37 54.26 28.57 54.26C27.66 54.26 27.0601 53.55 27.0601 52.75Z" fill="#97A2B2"/>
<path id="Vector_87" d="M12.94 46.9C12.33 47.51 11.33 47.51 10.72 46.9C10.11 46.29 10.12 45.29 10.72 44.68C11.33 44.08 12.33 44.08 12.94 44.68C13.54 45.29 13.54 46.29 12.94 46.9Z" fill="#97A2B2"/>
<path id="Vector_88" d="M12.94 13.43C12.33 14.04 11.33 14.04 10.72 13.43C10.12 12.83 10.12 11.82 10.72 11.21C11.32 10.6 12.33 10.6 12.94 11.21C13.54 11.81 13.54 12.82 12.94 13.43Z" fill="#97A2B2"/>
<path id="Vector_89" d="M27.0601 5.35999C27.0601 4.44999 27.77 3.84998 28.57 3.84998C29.37 3.84998 30.08 4.55999 30.08 5.35999C30.08 6.26999 29.37 6.87 28.57 6.87C27.66 6.97 27.0601 6.25999 27.0601 5.35999Z" fill="#97A2B2"/>
<path id="Vector_90" d="M46.41 11.21C47.01 11.81 47.01 12.82 46.41 13.43C45.81 14.04 44.8 14.04 44.19 13.43C43.58 12.83 43.58 11.82 44.19 11.21C44.79 10.6 45.8 10.6 46.41 11.21Z" fill="#97A2B2"/>
<path id="Vector_91" d="M24.53 5.35999C24.53 3.13999 26.35 1.33002 28.56 1.33002C30.77 1.33002 32.59 3.14999 32.59 5.35999C32.59 5.75999 32.59 6.06999 32.49 6.37C31.99 8.08 30.47 9.40002 28.56 9.40002C26.65 9.40002 25.03 8.09 24.63 6.37C24.53 6.06999 24.53 5.76999 24.53 5.35999ZM27.05 5.35999C27.05 6.26999 27.76 6.87 28.56 6.87C29.36 6.87 30.07 6.15999 30.07 5.35999C30.07 4.44999 29.36 3.84998 28.56 3.84998C27.76 3.84998 27.05 4.55999 27.05 5.35999Z" fill="white"/>
<path id="Vector_92" d="M44.2 13.43C44.8 14.04 45.81 14.04 46.42 13.43C47.02 12.83 47.02 11.82 46.42 11.21C45.82 10.6 44.81 10.6 44.2 11.21C43.59 11.81 43.59 12.82 44.2 13.43ZM45.31 8.28998C47.53 8.28998 49.34 10.1 49.34 12.32C49.34 13.83 48.53 15.14 47.32 15.85C46.72 16.25 46.01 16.35 45.3 16.35C43.08 16.35 41.27 14.54 41.27 12.32C41.27 11.51 41.47 10.81 41.87 10.2C42.48 9.09001 43.79 8.28003 45.3 8.28003L45.31 8.28998Z" fill="white"/>
<path id="Vector_93" d="M50.65 29.05C50.65 29.96 51.3599 30.56 52.1599 30.56C53.0699 30.56 53.67 29.85 53.67 29.05C53.67 28.14 52.9599 27.54 52.1599 27.54C51.3599 27.54 50.65 28.15 50.65 29.05ZM52.2599 25.02C54.4799 25.02 56.2899 26.83 56.2899 29.05C56.2899 31.27 54.4699 33.08 52.2599 33.08C51.8599 33.08 51.55 33.08 51.25 32.98C49.54 32.48 48.22 30.96 48.22 29.05C48.22 27.14 49.53 25.52 51.25 25.12C51.55 25.02 51.8499 25.02 52.2599 25.02Z" fill="white"/>
<path id="Vector_94" d="M44.2 46.9C44.8 47.51 45.81 47.51 46.42 46.9C47.02 46.3 47.02 45.29 46.42 44.68C45.82 44.08 44.81 44.08 44.2 44.68C43.59 45.29 43.59 46.29 44.2 46.9ZM47.32 42.26C48.53 42.97 49.34 44.2799 49.34 45.7899C49.34 48.0099 47.53 49.82 45.31 49.82C43.8 49.82 42.49 49.01 41.78 47.8C41.38 47.19 41.28 46.49 41.28 45.78C41.28 43.56 43.09 41.75 45.31 41.75C46.02 41.65 46.72 41.85 47.33 42.25L47.32 42.26Z" fill="white"/>
<path id="Vector_95" d="M27.0601 52.75C27.0601 53.66 27.77 54.26 28.57 54.26C29.37 54.26 30.08 53.55 30.08 52.75C30.08 51.84 29.37 51.24 28.57 51.24C27.66 51.14 27.0601 51.84 27.0601 52.75ZM24.64 51.64C25.14 49.93 26.66 48.62 28.57 48.62C30.48 48.62 32.1001 49.93 32.5001 51.64C32.6001 51.94 32.6 52.35 32.6 52.65C32.6 54.87 30.79 56.68 28.57 56.68C26.35 56.68 24.54 54.87 24.54 52.65C24.54 52.35 24.54 52.05 24.64 51.64Z" fill="white"/>
<path id="Vector_96" d="M10.7201 46.9C11.3301 47.51 12.3301 47.51 12.9401 46.9C13.5401 46.3 13.5401 45.29 12.9401 44.68C12.3301 44.08 11.3301 44.08 10.7201 44.68C10.1201 45.29 10.1201 46.29 10.7201 46.9ZM11.83 41.66C14.05 41.66 15.86 43.47 15.86 45.69C15.86 46.5 15.6601 47.2 15.2501 47.81C14.5401 49.02 13.2301 49.83 11.7201 49.83C9.50006 49.83 7.69006 48.01 7.69006 45.8C7.69006 44.29 8.50005 42.98 9.71005 42.27C10.4201 41.87 11.12 41.67 11.83 41.67V41.66Z" fill="white"/>
<path id="Vector_97" d="M4.87009 30.57C5.78009 30.57 6.38007 29.86 6.38007 29.06C6.38007 28.15 5.67009 27.55 4.87009 27.55C3.96009 27.55 3.36008 28.26 3.36008 29.06C3.36008 29.86 4.07009 30.57 4.87009 30.57ZM5.98007 25.13C7.69007 25.63 9.00009 27.15 9.00009 29.06C9.00009 30.97 7.69007 32.59 5.98007 32.99C3.36007 33.7 0.840088 31.68 0.840088 29.06C0.840088 26.44 3.36007 24.42 5.98007 25.13Z" fill="white"/>
<path id="Vector_98" d="M10.7201 13.43C11.3301 14.04 12.3301 14.04 12.9401 13.43C13.5501 12.82 13.5401 11.82 12.9401 11.21C12.3301 10.6 11.3301 10.6 10.7201 11.21C10.1101 11.82 10.1201 12.82 10.7201 13.43ZM15.9601 12.32C15.9601 14.54 14.1501 16.35 11.9301 16.35C11.1201 16.35 10.4201 16.15 9.81006 15.75C8.60006 15.04 7.79004 13.73 7.79004 12.22C7.79004 9.99997 9.61004 8.19 11.82 8.19C13.33 8.19 14.64 9.00002 15.35 10.21C15.75 10.92 15.95 11.62 15.95 12.33L15.9601 12.32Z" fill="white"/>
<path id="Vector_99" d="M28.47 20.28C30.31 20.28 31.8 21.77 31.8 23.61C31.8 25.45 30.31 26.94 28.47 26.94C26.63 26.94 25.14 25.45 25.14 23.61C25.14 21.77 26.63 20.28 28.47 20.28Z" fill="#97A2B2"/>
<path id="Vector_100" d="M28.47 26.94L30.18 31.17L28.47 32.88L26.85 31.17L28.47 26.94Z" fill="white"/>
<path id="Vector_101" d="M54.08 40.45C54.58 40.45 54.9901 40.86 54.9901 41.36C54.9901 41.86 54.58 42.27 54.08 42.27C53.58 42.27 53.17 41.86 53.17 41.36C53.17 40.86 53.58 40.45 54.08 40.45Z" fill="#26303C"/>
<path id="Vector_102" d="M52.16 13.33C52.66 13.33 53.07 13.74 53.07 14.24C53.07 14.74 52.66 15.15 52.16 15.15C51.66 15.15 51.25 14.74 51.25 14.24C51.25 13.74 51.66 13.33 52.16 13.33Z" fill="#26303C"/>
<path id="Vector_103" d="M43.9901 54.26C44.4901 54.26 44.9001 54.67 44.9001 55.17C44.9001 55.67 44.4901 56.08 43.9901 56.08C43.4901 56.08 43.0801 55.67 43.0801 55.17C43.0801 54.67 43.4901 54.26 43.9901 54.26Z" fill="#26303C"/>
<path id="Vector_104" d="M41.17 28.15C41.67 28.15 42.08 28.56 42.08 29.06C42.08 29.56 41.67 29.97 41.17 29.97C40.67 29.97 40.26 29.56 40.26 29.06C40.26 28.56 40.67 28.15 41.17 28.15Z" fill="#26303C"/>
<path id="Vector_105" d="M40.87 1.33002C41.37 1.33002 41.78 1.73999 41.78 2.23999C41.78 2.73999 41.37 3.15002 40.87 3.15002C40.37 3.15002 39.96 2.73999 39.96 2.23999C39.96 1.73999 40.37 1.33002 40.87 1.33002Z" fill="#26303C"/>
<path id="Vector_106" d="M40.26 23.31C40.76 23.31 41.17 23.71 41.17 24.22C41.17 24.73 40.77 25.13 40.26 25.13C39.75 25.13 39.35 24.73 39.35 24.22C39.25 23.82 39.75 23.31 40.26 23.31Z" fill="#26303C"/>
<path id="Vector_107" d="M40.16 32.99C40.66 32.99 41.07 33.39 41.07 33.9C41.07 34.41 40.67 34.81 40.16 34.81C39.65 34.81 39.25 34.41 39.25 33.9C39.25 33.39 39.65 32.99 40.16 32.99Z" fill="#26303C"/>
<path id="Vector_108" d="M37.44 19.17C37.94 19.17 38.35 19.57 38.35 20.08C38.35 20.59 37.95 20.99 37.44 20.99C36.93 20.99 36.53 20.59 36.53 20.08C36.53 19.57 36.93 19.17 37.44 19.17Z" fill="#26303C"/>
<path id="Vector_109" d="M37.44 37.02C37.94 37.02 38.35 37.42 38.35 37.93C38.35 38.44 37.95 38.84 37.44 38.84C36.93 38.84 36.53 38.44 36.53 37.93C36.53 37.42 36.93 37.02 37.44 37.02Z" fill="#26303C"/>
<path id="Vector_110" d="M33.41 16.55C33.91 16.55 34.32 16.96 34.32 17.46C34.32 17.96 33.91 18.37 33.41 18.37C32.91 18.37 32.5 17.96 32.5 17.46C32.5 16.96 32.91 16.55 33.41 16.55Z" fill="#26303C"/>
<path id="Vector_111" d="M33.31 39.74C33.81 39.74 34.22 40.14 34.22 40.65C34.22 41.16 33.82 41.56 33.31 41.56C32.8 41.56 32.4 41.16 32.4 40.65C32.4 40.25 32.8 39.74 33.31 39.74Z" fill="#26303C"/>
<path id="Vector_112" d="M28.57 15.54C29.07 15.54 29.48 15.95 29.48 16.45C29.48 16.95 29.07 17.36 28.57 17.36C28.07 17.36 27.66 16.95 27.66 16.45C27.66 15.95 28.07 15.54 28.57 15.54Z" fill="#26303C"/>
<path id="Vector_113" d="M28.57 40.75C29.07 40.75 29.48 41.16 29.48 41.66C29.48 42.16 29.07 42.57 28.57 42.57C28.07 42.57 27.66 42.16 27.66 41.66C27.66 41.16 28.07 40.75 28.57 40.75Z" fill="#26303C"/>
<path id="Vector_114" d="M23.8301 16.45C24.3301 16.45 24.7401 16.85 24.7401 17.36C24.7401 17.87 24.3401 18.27 23.8301 18.27C23.3201 18.27 22.9201 17.87 22.9201 17.36C22.8201 16.86 23.2201 16.45 23.8301 16.45Z" fill="#26303C"/>
<path id="Vector_115" d="M23.73 39.74C24.23 39.74 24.64 40.14 24.64 40.65C24.64 41.16 24.24 41.56 23.73 41.56C23.22 41.56 22.82 41.16 22.82 40.65C22.72 40.15 23.12 39.74 23.73 39.74Z" fill="#26303C"/>
<path id="Vector_116" d="M19.7 19.27C20.2 19.27 20.61 19.68 20.61 20.18C20.61 20.68 20.2 21.09 19.7 21.09C19.2 21.09 18.79 20.68 18.79 20.18C18.79 19.68 19.2 19.27 19.7 19.27Z" fill="#26303C"/>
<path id="Vector_117" d="M19.7 37.02C20.2 37.02 20.61 37.43 20.61 37.93C20.61 38.43 20.2 38.84 19.7 38.84C19.2 38.84 18.79 38.43 18.79 37.93C18.79 37.43 19.2 37.02 19.7 37.02Z" fill="#26303C"/>
<path id="Vector_118" d="M16.9701 23.31C17.4701 23.31 17.88 23.72 17.88 24.22C17.88 24.72 17.4701 25.13 16.9701 25.13C16.4701 25.13 16.0601 24.72 16.0601 24.22C16.0601 23.72 16.4701 23.31 16.9701 23.31Z" fill="#26303C"/>
<path id="Vector_119" d="M16.87 54.26C17.37 54.26 17.78 54.67 17.78 55.17C17.78 55.67 17.37 56.08 16.87 56.08C16.37 56.08 15.96 55.67 15.96 55.17C15.96 54.67 16.37 54.26 16.87 54.26Z" fill="#26303C"/>
<path id="Vector_120" d="M16.87 32.88C17.37 32.88 17.78 33.28 17.78 33.79C17.78 34.3 17.38 34.7 16.87 34.7C16.36 34.7 15.96 34.3 15.96 33.79C15.96 33.28 16.36 32.88 16.87 32.88Z" fill="#26303C"/>
<path id="Vector_121" d="M15.9701 28.15C16.4701 28.15 16.88 28.56 16.88 29.06C16.88 29.56 16.4701 29.97 15.9701 29.97C15.4701 29.97 15.0601 29.56 15.0601 29.06C15.0601 28.56 15.4701 28.15 15.9701 28.15Z" fill="#26303C"/>
<path id="Vector_122" d="M7.50009 3.84998C8.00267 3.84998 8.41006 3.44258 8.41006 2.94C8.41006 2.43742 8.00267 2.03003 7.50009 2.03003C6.99751 2.03003 6.59009 2.43742 6.59009 2.94C6.59009 3.44258 6.99751 3.84998 7.50009 3.84998Z" fill="#26303C"/>
<path id="Vector_123" d="M2.46005 41.66C2.96005 41.66 3.37006 42.07 3.37006 42.57C3.37006 43.07 2.96005 43.48 2.46005 43.48C1.96005 43.48 1.55005 43.07 1.55005 42.57C1.55005 42.07 1.96005 41.66 2.46005 41.66Z" fill="#26303C"/>
<path id="Vector_124" d="M1.75009 11.41C2.25009 11.41 2.66006 11.82 2.66006 12.32C2.66006 12.82 2.25009 13.23 1.75009 13.23C1.25009 13.23 0.840088 12.82 0.840088 12.32C0.840088 11.82 1.25009 11.41 1.75009 11.41Z" fill="#26303C"/>
<path id="Vector_125" d="M41.7801 10.91H41.5801L32.3001 7.08001C32.0001 6.98001 31.8001 6.58001 32.0001 6.27001C32.1001 5.97001 32.5001 5.76996 32.8101 5.96996L42.0901 9.79998C42.3901 9.89998 42.59 10.3 42.39 10.61C42.29 10.71 41.99 10.91 41.79 10.91H41.7801Z" fill="#26303C"/>
<path id="Vector_126" d="M51.15 25.73C50.95 25.73 50.65 25.63 50.55 25.33L46.72 16.05C46.62 15.75 46.72 15.34 47.02 15.24C47.32 15.14 47.73 15.24 47.83 15.54L51.66 24.82C51.76 25.12 51.66 25.53 51.36 25.63C51.36 25.73 51.26 25.73 51.16 25.73H51.15Z" fill="#26303C"/>
<path id="Vector_127" d="M47.32 42.87H47.12C46.82 42.77 46.62 42.37 46.82 42.06L50.65 32.78C50.75 32.48 51.15 32.28 51.46 32.48C51.76 32.58 51.96 32.98 51.76 33.29L47.93 42.57C47.83 42.77 47.63 42.87 47.32 42.87Z" fill="#26303C"/>
<path id="Vector_128" d="M32.5001 52.3401C32.3001 52.3401 32 52.24 31.89 51.94C31.79 51.64 31.8901 51.23 32.1901 51.13L41.4701 47.3C41.7701 47.2 42.1801 47.3 42.2801 47.6C42.3801 47.9 42.28 48.31 41.98 48.41L32.81 52.24C32.71 52.34 32.61 52.3401 32.51 52.3401H32.5001Z" fill="#26303C"/>
<path id="Vector_129" d="M24.64 52.34H24.4401L15.16 48.51C14.86 48.41 14.66 48.01 14.86 47.7C14.96 47.4 15.36 47.2 15.67 47.4L24.95 51.23C25.25 51.33 25.4501 51.73 25.2501 52.04C25.1501 52.14 24.8501 52.34 24.6501 52.34H24.64Z" fill="#26303C"/>
<path id="Vector_130" d="M9.81005 42.87C9.61005 42.87 9.31004 42.77 9.21004 42.47L5.38003 33.3C5.28003 33 5.38004 32.59 5.68004 32.49C5.98004 32.39 6.39004 32.49 6.49004 32.79L10.32 42.07C10.42 42.37 10.32 42.78 10.02 42.88H9.82003L9.81005 42.87Z" fill="#26303C"/>
<path id="Vector_131" d="M5.98004 25.73H5.78006C5.48006 25.63 5.28004 25.23 5.48004 24.92L9.31006 15.64C9.41006 15.34 9.81005 15.14 10.1201 15.34C10.4201 15.44 10.62 15.84 10.42 16.15L6.59005 25.43C6.49005 25.63 6.19004 25.73 5.98004 25.73Z" fill="#26303C"/>
<path id="Vector_132" d="M15.36 10.91C15.16 10.91 14.86 10.81 14.75 10.51C14.65 10.21 14.75 9.81004 15.05 9.70004L24.33 5.87002C24.63 5.77002 25.04 5.87001 25.14 6.17001C25.24 6.47001 25.14 6.88001 24.84 6.98001L15.56 10.91H15.36Z" fill="#26303C"/>
<path id="Vector_133" d="M28.57 10.1C26.45 10.1 24.5401 8.69001 24.0301 6.57001C23.9301 6.17001 23.9301 5.75999 23.9301 5.35999C23.9301 2.73999 26.05 0.619995 28.67 0.619995C31.29 0.619995 33.41 2.73999 33.41 5.35999C33.41 5.75999 33.3101 6.17001 33.2101 6.57001C32.6101 8.69001 30.69 10.1 28.57 10.1ZM28.57 1.92999C26.66 1.92999 25.14 3.43999 25.14 5.35999C25.14 5.65999 25.1401 5.96002 25.2401 6.27002C25.6401 7.78002 27.06 8.89001 28.57 8.89001C30.18 8.89001 31.4901 7.88 31.9001 6.37C32.0001 6.06999 32.0001 5.77002 32.0001 5.46002C32.0001 3.55002 30.49 1.92999 28.57 1.92999Z" fill="#26303C"/>
<path id="Vector_134" d="M28.57 7.58002C27.36 7.58002 26.35 6.56999 26.35 5.35999C26.35 4.14999 27.36 3.14001 28.57 3.14001C29.78 3.14001 30.79 4.14999 30.79 5.35999C30.79 6.56999 29.78 7.58002 28.57 7.58002ZM28.57 4.46002C28.07 4.46002 27.66 4.86 27.66 5.37C27.66 5.88 28.06 6.28003 28.57 6.28003C29.08 6.28003 29.48 5.88 29.48 5.37C29.48 4.86 29.08 4.46002 28.57 4.46002Z" fill="#26303C"/>
<path id="Vector_135" d="M28.5701 57.38C25.9501 57.38 23.8301 55.26 23.8301 52.64C23.8301 52.24 23.9301 51.83 24.0301 51.43C24.5301 49.41 26.4501 47.9 28.5701 47.9C30.6901 47.9 32.6001 49.31 33.1101 51.43C33.2101 51.83 33.2101 52.24 33.2101 52.64C33.3101 55.26 31.1901 57.38 28.5701 57.38ZM28.5701 49.21C26.9601 49.21 25.6501 50.22 25.2401 51.73C25.1401 52.03 25.1401 52.34 25.1401 52.64C25.1401 54.56 26.6501 56.07 28.5701 56.07C30.4901 56.07 32.0001 54.56 32.0001 52.64C32.0001 52.34 32.0001 52.04 31.9001 51.73C31.5001 50.32 30.1901 49.21 28.5701 49.21Z" fill="#26303C"/>
<path id="Vector_136" d="M28.57 54.86C27.36 54.86 26.35 53.85 26.35 52.64C26.35 51.43 27.36 50.42 28.57 50.42C29.78 50.42 30.79 51.43 30.79 52.64C30.79 53.95 29.78 54.86 28.57 54.86ZM28.57 51.73C28.07 51.73 27.66 52.13 27.66 52.64C27.66 53.15 28.06 53.55 28.57 53.55C29.08 53.55 29.48 53.15 29.48 52.64C29.48 52.13 29.08 51.73 28.57 51.73Z" fill="#26303C"/>
<path id="Vector_137" d="M45.3 14.54C44.7 14.54 44.19 14.34 43.79 13.94C42.98 13.13 42.98 11.72 43.79 10.81C44.19 10.41 44.8 10.21 45.3 10.21C45.91 10.21 46.41 10.41 46.81 10.81C47.62 11.62 47.62 13.03 46.81 13.94C46.41 14.34 45.9 14.54 45.3 14.54ZM45.3 11.41C45.1 11.41 44.8 11.51 44.7 11.71C44.3 12.11 44.3 12.62 44.7 13.02C44.9 13.22 45.1 13.32 45.3 13.32C45.5 13.32 45.8 13.22 45.91 13.02C46.31 12.62 46.31 12.11 45.91 11.71C45.81 11.51 45.51 11.41 45.3 11.41Z" fill="#26303C"/>
<path id="Vector_138" d="M11.83 48.01C11.23 48.01 10.7199 47.81 10.3199 47.41C9.91995 47.01 9.71997 46.4 9.71997 45.9C9.71997 45.3 9.91995 44.79 10.3199 44.39C10.7199 43.99 11.33 43.78 11.83 43.78C12.44 43.78 12.94 43.98 13.34 44.39C14.15 45.2 14.15 46.61 13.34 47.51C12.94 47.71 12.43 48.01 11.83 48.01ZM11.83 44.89C11.63 44.89 11.3299 44.99 11.2299 45.19C11.0299 45.39 10.93 45.59 10.93 45.9C10.93 46.1 11.0299 46.4 11.2299 46.51C11.4299 46.71 11.63 46.81 11.94 46.81C12.14 46.81 12.44 46.71 12.65 46.51C13.05 46.11 13.05 45.6 12.65 45.2C12.35 45 12.15 44.9 11.84 44.9L11.83 44.89Z" fill="#26303C"/>
<path id="Vector_139" d="M52.26 31.27C51.05 31.27 50.04 30.26 50.04 29.05C50.04 27.84 51.05 26.83 52.26 26.83C53.47 26.83 54.48 27.84 54.48 29.05C54.38 30.26 53.47 31.27 52.26 31.27ZM52.26 28.15C51.76 28.15 51.35 28.55 51.35 29.06C51.35 29.57 51.75 29.97 52.26 29.97C52.77 29.97 53.17 29.57 53.17 29.06C53.17 28.55 52.77 28.15 52.26 28.15Z" fill="#26303C"/>
<path id="Vector_140" d="M4.87003 31.27C3.66003 31.27 2.65002 30.26 2.65002 29.05C2.65002 27.84 3.66003 26.83 4.87003 26.83C6.08003 26.83 7.09003 27.84 7.09003 29.05C7.09003 30.26 6.08003 31.27 4.87003 31.27ZM4.87003 28.15C4.37003 28.15 3.96002 28.55 3.96002 29.06C3.96002 29.57 4.36003 29.97 4.87003 29.97C5.38003 29.97 5.78003 29.57 5.78003 29.06C5.78003 28.55 5.48003 28.15 4.87003 28.15Z" fill="#26303C"/>
<path id="Vector_141" d="M11.83 14.54C11.23 14.54 10.7199 14.34 10.3199 13.94C9.91995 13.54 9.71997 12.93 9.71997 12.43C9.71997 11.82 9.91995 11.32 10.3199 10.92C10.7199 10.52 11.33 10.32 11.83 10.32C12.44 10.32 12.94 10.52 13.34 10.92C14.15 11.73 14.15 13.14 13.34 14.05C12.94 14.35 12.43 14.55 11.83 14.55V14.54ZM11.83 11.41C11.63 11.41 11.3299 11.51 11.2299 11.71C11.0299 11.91 10.93 12.11 10.93 12.32C10.93 12.53 11.0299 12.82 11.2299 13.02C11.4299 13.22 11.63 13.32 11.83 13.32C12.03 13.32 12.3299 13.22 12.5399 13.02C12.9399 12.62 12.9399 12.11 12.5399 11.71C12.3399 11.51 12.14 11.41 11.83 11.41Z" fill="#26303C"/>
<path id="Vector_142" d="M45.3 48.01C44.7 48.01 44.19 47.81 43.79 47.41C42.98 46.6 42.98 45.19 43.79 44.28C44.19 43.88 44.8 43.68 45.3 43.68C45.91 43.68 46.41 43.88 46.81 44.28C47.62 45.09 47.62 46.5 46.81 47.41C46.41 47.71 45.9 48.01 45.3 48.01ZM45.3 44.89C45.1 44.89 44.8 44.99 44.7 45.19C44.3 45.59 44.3 46.1 44.7 46.5C44.9 46.7 45.1 46.8 45.3 46.8C45.5 46.8 45.8 46.7 45.91 46.5C46.31 46.1 46.31 45.59 45.91 45.19C45.81 44.99 45.51 44.89 45.3 44.89Z" fill="#26303C"/>
<path id="Vector_143" d="M45.3 17.06C42.68 17.06 40.5601 14.94 40.5601 12.32C40.5601 11.51 40.76 10.61 41.16 9.90002C41.97 8.49002 43.5801 7.58002 45.1901 7.58002C47.8101 7.58002 49.9301 9.70001 49.9301 12.32C49.9301 14.03 49.02 15.55 47.61 16.35C46.9 16.85 46.1 17.06 45.29 17.06H45.3ZM45.3 8.89001C44.09 8.89001 42.98 9.49998 42.38 10.6C42.08 11.1 41.88 11.71 41.88 12.31C41.88 14.22 43.3901 15.74 45.3101 15.74C45.9201 15.74 46.5201 15.54 47.0201 15.24C48.0301 14.63 48.73 13.53 48.73 12.21C48.73 10.4 47.22 8.88 45.3 8.88V8.89001Z" fill="#26303C"/>
<path id="Vector_144" d="M11.8301 50.53C9.21008 50.53 7.09009 48.41 7.09009 45.79C7.09009 44.08 8.00006 42.56 9.41006 41.76C10.1201 41.36 10.9201 41.16 11.8301 41.16C14.4501 41.16 16.5701 43.28 16.5701 45.9C16.5701 46.71 16.3701 47.61 15.9701 48.32C15.0601 49.63 13.5501 50.54 11.8401 50.54L11.8301 50.53ZM11.8301 42.36C11.2301 42.36 10.6201 42.56 10.1201 42.86C9.11009 43.46 8.41006 44.57 8.41006 45.88C8.41006 47.8 9.92009 49.31 11.8401 49.31C13.0501 49.31 14.1601 48.71 14.7601 47.6C15.0601 47.1 15.2601 46.49 15.2601 45.89C15.2601 43.87 13.7501 42.36 11.8301 42.36Z" fill="#26303C"/>
<path id="Vector_145" d="M52.26 33.79C51.86 33.79 51.45 33.69 51.05 33.59C49.03 33.09 47.52 31.17 47.52 29.05C47.52 26.93 48.93 25.02 51.05 24.51C51.45 24.41 51.86 24.41 52.26 24.41C54.88 24.41 57 26.53 57 29.15C57 31.77 54.78 33.79 52.26 33.79ZM52.26 25.62C51.96 25.62 51.66 25.62 51.35 25.72C49.84 26.12 48.73 27.43 48.73 29.05C48.73 30.67 49.74 31.97 51.25 32.38C51.55 32.48 51.85 32.48 52.16 32.48C54.07 32.48 55.59 30.97 55.59 29.05C55.59 27.13 54.08 25.62 52.26 25.62Z" fill="#26303C"/>
<path id="Vector_146" d="M4.87003 33.79C2.25003 33.79 0.130005 31.67 0.130005 29.05C0.130005 26.43 2.25003 24.31 4.87003 24.31C5.27003 24.31 5.68002 24.41 6.08002 24.51C8.10002 25.01 9.61002 26.93 9.61002 29.05C9.61002 31.17 8.20002 33.08 6.08002 33.59C5.68002 33.69 5.27003 33.79 4.87003 33.79ZM4.87003 25.62C2.96003 25.62 1.44003 27.13 1.44003 29.05C1.44003 30.97 2.95003 32.48 4.87003 32.48C5.17003 32.48 5.48003 32.48 5.78003 32.38C7.29003 31.98 8.40002 30.56 8.40002 29.05C8.40002 27.44 7.39001 26.13 5.88 25.72C5.48 25.62 5.17003 25.62 4.87003 25.62Z" fill="#26303C"/>
<path id="Vector_147" d="M11.8301 17.06C11.0201 17.06 10.1201 16.86 9.41006 16.46C8.00006 15.65 7.09009 14.04 7.09009 12.43C7.09009 9.80999 9.21008 7.69 11.8301 7.69C13.5401 7.69 15.0601 8.60001 15.8601 10.01C16.2601 10.72 16.4601 11.52 16.4601 12.43C16.5601 14.95 14.4401 17.07 11.8201 17.07L11.8301 17.06ZM11.8301 8.89001C9.91008 8.89001 8.40009 10.4 8.40009 12.32C8.40009 13.53 9.00008 14.64 10.1101 15.24C10.6101 15.54 11.2201 15.74 11.8201 15.74C13.7401 15.74 15.2501 14.23 15.2501 12.31C15.2501 11.7 15.0501 11.1 14.7501 10.6C14.2501 9.48998 13.0401 8.89001 11.8301 8.89001Z" fill="#26303C"/>
<path id="Vector_148" d="M45.3 50.53C43.59 50.53 42.0701 49.62 41.2701 48.21C40.8701 47.5 40.66 46.7 40.66 45.79C40.66 43.17 42.7801 41.05 45.4001 41.05C46.2101 41.05 47.11 41.25 47.82 41.65C49.23 42.46 50.14 44.07 50.14 45.68C50.04 48.4 47.92 50.52 45.3 50.52V50.53ZM45.3 42.36C43.39 42.36 41.8701 43.87 41.8701 45.79C41.8701 46.39 42.0701 47 42.3701 47.5C42.9801 48.51 44.0801 49.21 45.4001 49.21C47.3101 49.21 48.83 47.7 48.83 45.78C48.83 44.57 48.2201 43.46 47.1201 42.86C46.5101 42.46 45.91 42.36 45.3 42.36Z" fill="#26303C"/>
<path id="Vector_149" d="M5.27997 57.38C3.15997 57.38 1.44995 55.67 1.44995 53.55C1.44995 51.43 3.15997 49.72 5.27997 49.72C7.39997 49.72 9.10995 51.43 9.10995 53.55C9.10995 55.67 7.28997 57.38 5.27997 57.38ZM5.27997 51.13C3.86997 51.13 2.75995 52.24 2.75995 53.65C2.75995 55.06 3.86997 56.17 5.27997 56.17C6.68997 56.17 7.79996 55.06 7.79996 53.65C7.79996 52.24 6.68997 51.13 5.27997 51.13Z" fill="#26303C"/>
<path id="Vector_150" d="M52.5601 7.67999C51.1501 7.67999 50.04 6.56997 50.04 5.15997C50.04 3.74997 51.1501 2.64001 52.5601 2.64001C53.9701 2.64001 55.08 3.74997 55.08 5.15997C55.08 6.56997 53.8701 7.67999 52.5601 7.67999ZM52.5601 3.84998C51.8501 3.84998 51.2501 4.45997 51.2501 5.15997C51.2501 5.85997 51.8501 6.46997 52.5601 6.46997C53.2701 6.46997 53.8701 5.85997 53.8701 5.15997C53.7701 4.44997 53.1601 3.84998 52.5601 3.84998Z" fill="#26303C"/>
<path id="Vector_151" d="M28.57 45.49C19.5 45.49 12.14 38.13 12.14 29.06C12.14 19.99 19.5 12.63 28.57 12.63C37.64 12.63 45 19.99 45 29.06C45 38.13 37.64 45.49 28.57 45.49ZM28.57 13.93C20.2 13.93 13.45 20.68 13.45 29.05C13.45 37.42 20.2 44.17 28.57 44.17C36.94 44.17 43.69 37.42 43.69 29.05C43.69 20.68 36.94 13.93 28.57 13.93Z" fill="#26303C"/>
<path id="Vector_152" d="M28.4701 27.64C26.2501 27.64 24.4401 25.83 24.4401 23.61C24.4401 21.39 26.2601 19.58 28.4701 19.58C30.6801 19.58 32.5001 21.39 32.5001 23.61C32.5001 25.83 30.6801 27.64 28.4701 27.64ZM28.4701 20.89C26.9601 20.89 25.7501 22.1 25.7501 23.61C25.7501 25.12 26.9601 26.33 28.4701 26.33C29.9801 26.33 31.1901 25.12 31.1901 23.61C31.1901 22.1 29.9801 20.89 28.4701 20.89Z" fill="#26303C"/>
<path id="Vector_153" d="M25.14 36.82C24.84 36.82 24.53 36.52 24.53 36.22V33.7C24.53 33.4 24.83 33.09 25.14 33.09C25.45 33.09 25.74 33.39 25.74 33.7V36.22C25.74 36.62 25.44 36.82 25.14 36.82Z" fill="#26303C"/>
<path id="Vector_154" d="M31.89 36.82C31.59 36.82 31.29 36.52 31.29 36.22V33.7C31.29 33.4 31.59 33.09 31.89 33.09C32.19 33.09 32.5001 33.39 32.5001 33.7V36.22C32.5001 36.62 32.2 36.82 31.89 36.82Z" fill="#26303C"/>
<path id="Vector_155" d="M28.47 33.49C28.27 33.49 28.17 33.39 28.07 33.29L26.36 31.58C26.16 31.38 26.16 31.18 26.26 30.87L27.97 26.64C28.07 26.44 28.27 26.24 28.57 26.24C28.87 26.24 29.07 26.44 29.18 26.64L30.89 30.87C30.99 31.07 30.89 31.37 30.79 31.58L29.08 33.29C28.88 33.39 28.68 33.49 28.48 33.49H28.47ZM27.56 31.07L28.47 31.98L29.38 31.07L28.47 28.75L27.56 31.07Z" fill="#26303C"/>
<path id="Vector_156" d="M34.72 36.82H22.22C21.92 36.82 21.72 36.62 21.62 36.42C21.22 35.51 21.12 34.61 21.12 33.7C21.12 29.67 24.45 26.34 28.48 26.34C32.51 26.34 35.84 29.67 35.84 33.7C35.84 34.61 35.64 35.61 35.34 36.42C35.24 36.72 35.04 36.82 34.74 36.82H34.72ZM22.72 35.61H34.31C34.51 35.01 34.61 34.4 34.61 33.7C34.61 30.37 31.89 27.55 28.46 27.55C25.03 27.55 22.31 30.27 22.31 33.7C22.41 34.3 22.51 35.01 22.71 35.61H22.72Z" fill="#26303C"/>
</g>
</g>
</svg>
