<svg width="24" height="11" viewBox="-6 0 24 11" fill="none" xmlns="http://www.w3.org/2000/svg">
<path id="email" d="M11.6667 0H2.33333C1.05 0 0 1.1 0 2.44444V8.55556C0 9.9 1.05 11 2.33333 11H11.6667C12.95 11 14 9.9 14 8.55556V2.44444C14 1.1 12.95 0 11.6667 0ZM12.6 3.54444L7.99167 6.78333C7.7 6.96667 7.35 7.08889 7 7.08889C6.65 7.08889 6.3 6.96667 6.00833 6.78333L1.4 3.54444C1.16667 3.36111 1.10833 2.99444 1.28333 2.68889C1.45833 2.44444 1.80833 2.38333 2.1 2.56667L6.70833 5.80556C6.88333 5.92778 7.175 5.92778 7.35 5.80556L11.9583 2.56667C12.25 2.38333 12.6 2.44444 12.775 2.75C12.8917 2.99444 12.8333 3.36111 12.6 3.54444Z" fill="#016AC7"/>
</svg>
