<svg width="40" height="41" viewBox="0 0 40 41" fill="none" xmlns="http://www.w3.org/2000/svg">
<g id="vk" clip-path="url(#clip0_2020_86594)">
<path id="Vector" d="M0 19.8484C0 10.7974 0 6.27199 2.81178 3.46021C5.62355 0.648438 10.149 0.648438 19.2 0.648438H20.8C29.851 0.648438 34.3764 0.648438 37.1883 3.46021C40 6.27199 40 10.7974 40 19.8484V21.4484C40 30.4994 40 35.0249 37.1883 37.8367C34.3764 40.6484 29.851 40.6484 20.8 40.6484H19.2C10.149 40.6484 5.62355 40.6484 2.81178 37.8367C0 35.0249 0 30.4994 0 21.4484V19.8484Z" fill=""/>
<path id="Vector_2" d="M20.8931 27.1484C14.0599 27.1484 10.1624 22.6439 10 15.1484H13.4229C13.5353 20.6499 16.0587 22.9803 18.0574 23.4607V15.1484H21.2805V19.8932C23.2543 19.689 25.3277 17.5268 26.0273 15.1484H29.2503C28.7132 18.0794 26.4646 20.2415 24.8656 21.1304C26.4646 21.8511 29.0256 23.737 30 27.1484H26.4521C25.6901 24.8662 23.7914 23.1004 21.2805 22.8601V27.1484H20.8931Z" fill="#4DB6DA"/>
</g>
<defs>
<clipPath id="clip0_2020_86594">
<rect width="40" height="40" fill="" transform="translate(0 0.648438)"/>
</clipPath>
</defs>
</svg>
