<svg width="40" height="41" viewBox="0 0 40 41" fill="none" xmlns="http://www.w3.org/2000/svg">
<g id="tg" clip-path="url(#clip0_2020_86600)">
<path id="Vector" d="M0 19.8484C0 10.7974 0 6.27199 2.81177 3.46021C5.62355 0.648438 10.149 0.648438 19.2 0.648438H20.8C29.851 0.648438 34.3764 0.648438 37.1882 3.46021C40 6.27199 40 10.7974 40 19.8484V21.4484C40 30.4994 40 35.0249 37.1882 37.8367C34.3764 40.6484 29.851 40.6484 20.8 40.6484H19.2C10.149 40.6484 5.62355 40.6484 2.81177 37.8367C0 35.0249 0 30.4994 0 21.4484V19.8484Z" fill=""/>
<path id="Vector_2" fill-rule="evenodd" clip-rule="evenodd" d="M15.1538 16.6869H11V29.1484H15.1538V16.6869ZM20.6923 16.6869H16.5385V29.1484H20.6923V22.2254C20.8862 21.8252 21.1838 21.4832 21.5563 21.2381C21.9274 20.993 22.358 20.8532 22.8025 20.8324C23.0918 20.8255 23.3799 20.8809 23.6457 20.9972C23.9115 21.1121 24.1483 21.2852 24.3408 21.5026C24.5332 21.72 24.6745 21.9761 24.7562 22.2544C24.8392 22.5327 24.8586 22.8249 24.8157 23.1115L24.8462 29.1484H29V22.2254C29 19.2789 28.1388 16.6869 24.482 16.6869C23.7398 16.6827 23.0088 16.8544 22.3469 17.1881C21.6837 17.5232 21.1105 18.0092 20.6743 18.6087L20.6923 16.6869ZM13.0769 11.1484C13.4882 11.1484 13.8897 11.2703 14.2303 11.4987C14.5723 11.7272 14.8382 12.0512 14.996 12.4306C15.1525 12.81 15.194 13.2281 15.1137 13.6311C15.0334 14.034 14.8354 14.4037 14.546 14.6944C14.2552 14.9838 13.8855 15.1818 13.4826 15.2621C13.0797 15.3424 12.6615 15.3009 12.2822 15.1444C11.9028 14.9866 11.5788 14.7208 11.3503 14.3788C11.1218 14.0381 11 13.6366 11 13.2254C11 12.6743 11.2188 12.1467 11.6079 11.7563C11.9983 11.3672 12.5258 11.1484 13.0769 11.1484Z" fill="#4DB6DA"/>
</g>
<defs>
<clipPath id="clip0_2020_86600">
<rect width="40" height="40" fill="" transform="translate(0 0.648438)"/>
</clipPath>
</defs>
</svg>
