<svg width="40" height="41" viewBox="0 0 40 41" fill="none" xmlns="http://www.w3.org/2000/svg">
<g id="tg" clip-path="url(#clip0_2020_86597)">
<path id="Vector" d="M0 19.8484C0 10.7974 0 6.27199 2.81177 3.46021C5.62355 0.648438 10.149 0.648438 19.2 0.648438H20.8C29.851 0.648438 34.3764 0.648438 37.1882 3.46021C40 6.27199 40 10.7974 40 19.8484V21.4484C40 30.4994 40 35.0249 37.1882 37.8367C34.3764 40.6484 29.851 40.6484 20.8 40.6484H19.2C10.149 40.6484 5.62355 40.6484 2.81177 37.8367C0 35.0249 0 30.4994 0 21.4484V19.8484Z" fill=""/>
<path id="Vector_2" fill-rule="evenodd" clip-rule="evenodd" d="M10.7946 19.3116C16.1615 16.9733 19.7403 15.4317 21.5309 14.687C26.6436 12.5605 27.706 12.1911 28.3984 12.1788C28.5507 12.1762 28.8912 12.2139 29.1118 12.3929C29.439 12.6584 29.4409 13.2348 29.4046 13.6162C29.1275 16.5273 27.9287 23.5917 27.3188 26.8521C27.0607 28.2317 26.5525 28.6944 26.0606 28.7396C24.9915 28.838 24.1797 28.033 23.1442 27.3543C21.5239 26.2921 20.6085 25.6309 19.0357 24.5945C17.218 23.3967 18.3963 22.7384 19.4322 21.6625C19.7033 21.3809 24.4138 17.0963 24.505 16.7077C24.5164 16.659 24.527 16.4778 24.4193 16.3822C24.3117 16.2865 24.1528 16.3192 24.0382 16.3452C23.8756 16.3821 21.2872 18.093 16.2727 21.4779C15.538 21.9824 14.8725 22.2282 14.2762 22.2154C13.6188 22.2012 12.3544 21.8437 11.4145 21.5381C10.2615 21.1634 9.34519 20.9652 9.42501 20.3288C9.46658 19.9972 9.92309 19.6582 10.7946 19.3116Z" fill="#4DB6DA"/>
</g>
<defs>
<clipPath id="clip0_2020_86597">
<rect width="40" height="40" fill="" transform="translate(0 0.648438)"/>
</clipPath>
</defs>
</svg>
