<svg width="28" height="29" viewBox="0 0 28 29" fill="none" xmlns="http://www.w3.org/2000/svg">
<g id="Frame 1321317770">
<rect id="Rectangle 24" y="0.636719" width="28" height="28" rx="14" fill="#4DB6DA"/>
<path id="Vector" fill-rule="evenodd" clip-rule="evenodd" d="M24.2667 14.101C21.6921 13.5526 19.1154 13.5127 17.1211 11.5157C15.124 9.52125 15.0823 6.94611 14.5414 4.37005L14.1867 0.636719H13.8133L13.4587 4.37005C12.9177 6.94611 12.876 9.52125 10.8789 11.5157C8.88456 13.5127 6.30786 13.5526 3.73333 14.101L0 14.4407V8.10339C0 6.12285 0.785861 4.22445 2.18773 2.82445C3.58773 1.42258 5.48613 0.636719 7.46667 0.636719H20.5333C22.5139 0.636719 24.4123 1.42258 25.8123 2.82445C27.2141 4.22445 28 6.12285 28 8.10339V14.45L24.2667 14.101ZM3.73333 15.1724C6.30786 15.7208 8.88456 15.7607 10.8789 17.7578C12.876 19.7522 12.9177 22.3273 13.4587 24.9034L13.8133 28.6367H14.1867L14.5414 24.9034C15.0823 22.3273 15.124 19.7522 17.1211 17.7578C19.1154 15.7607 21.6921 15.7208 24.2667 15.1724L28 14.8327V21.1701C28 23.1506 27.2141 25.049 25.8123 26.449C24.4123 27.8509 22.5139 28.6367 20.5333 28.6367H7.46667C5.48613 28.6367 3.58773 27.8509 2.18773 26.449C0.785861 25.049 0 23.1506 0 21.1701V14.8327L3.73333 15.1724Z" fill="white"/>
</g>
</svg>
