<svg width="188" height="60" viewBox="0 0 188 60" fill="none" xmlns="http://www.w3.org/2000/svg">
<g id="_&#208;&#160;&#208;&#142;&#208;&#160;&#194;&#187;&#208;&#160;&#209;&#149;&#208;&#160;&#226;&#132;&#150;_1">
<g id="Group">
<path id="Vector" d="M19.8728 1.91692C9.03225 5.30478 0 18.0603 0 30.0291C0 47.3038 15.9208 61.5261 33.0827 59.608C40.9866 58.5956 49.5645 53.5123 53.6293 47.1879C56.0018 43.6903 57.807 41.9979 59.6153 41.9979C61.3077 41.882 62.0975 41.202 62.0975 39.7383C62.0975 38.0459 61.1918 37.3659 58.487 37.1402C56.1146 36.9146 54.6448 36.1217 54.4191 34.8807C54.0807 33.298 55.0991 32.9626 60.0635 32.6211C65.1438 32.2826 66.0494 31.9411 66.0494 30.023C66.0494 28.1049 65.1438 27.7634 60.0635 27.4249C55.0991 27.0865 54.0776 26.751 54.4191 25.1653C54.6448 23.9273 56.1115 23.1314 58.487 22.9058C61.1948 22.6801 62.0975 22.0001 62.0975 20.3077C62.0975 18.844 61.3077 18.164 59.6153 18.164C57.807 18.164 56.2274 16.8101 54.4191 13.6479C50.0189 5.97869 38.9527 -0.0041832 29.3563 0.22452C27.2126 0.22452 22.9221 1.01431 19.8758 1.91692H19.8728ZM37.3731 14.7883C45.7254 19.1886 49.1132 28.2208 45.3869 36.6889C40.4225 47.7551 27.548 50.6917 18.6286 42.8975C11.5144 36.5792 10.6088 26.3028 16.5947 19.1886C22.2391 12.5287 29.6948 10.9522 37.3731 14.7883Z" fill="#FF6F80"/>
<path id="Vector_2" d="M70.4497 28.9008C70.1143 29.8065 70.1143 31.0445 70.4497 31.6087C71.4682 33.0785 74.5176 31.8404 74.5176 30.0291C74.5176 27.8854 71.1297 26.9828 70.4497 28.9008Z" fill="#FF6F80"/>
</g>
<g id="Group_2">
<path id="Vector_3" d="M104.115 24.0889H99.9005V13.3673L95.1313 21.192H94.6587L89.8925 13.3673V24.0889H85.6783V5.6524H89.8925L94.8965 13.8461L99.9005 5.6524H104.115V24.092V24.0889Z" fill="#FF6F80"/>
<path id="Vector_4" d="M120.655 10.9187V24.0889H116.703V22.8509C115.834 23.8511 114.544 24.4579 112.778 24.4579C109.326 24.4579 106.481 21.4299 106.481 17.5053C106.481 13.5808 109.326 10.5497 112.778 10.5497C114.544 10.5497 115.834 11.1565 116.703 12.1567V10.9187H120.655ZM116.703 17.5053C116.703 15.5293 115.385 14.2913 113.568 14.2913C111.75 14.2913 110.433 15.5293 110.433 17.5053C110.433 19.4813 111.75 20.7194 113.568 20.7194C115.385 20.7194 116.703 19.4813 116.703 17.5053Z" fill="#FF6F80"/>
<path id="Vector_5" d="M122.89 17.5053C122.89 13.5808 125.866 10.5497 129.87 10.5497C132.425 10.5497 134.691 11.8945 135.822 13.9223L132.37 15.9257C131.922 15.0048 130.974 14.4498 129.815 14.4498C128.101 14.4498 126.839 15.6879 126.839 17.5053C126.839 19.3227 128.104 20.5608 129.815 20.5608C130.974 20.5608 131.949 20.0089 132.37 19.0849L135.822 21.0609C134.691 23.1162 132.45 24.4579 129.87 24.4579C125.866 24.4579 122.89 21.4299 122.89 17.5053Z" fill="#FF6F80"/>
<path id="Vector_6" d="M150.047 16.002V24.0889H146.096V16.5814C146.096 14.9499 145.068 14.1846 143.802 14.1846C142.354 14.1846 141.354 15.0262 141.354 16.8985V24.0889H137.402V5.6524H141.354V12.1598C142.064 11.184 143.382 10.5527 145.12 10.5527C147.779 10.5527 150.044 12.4495 150.044 16.005L150.047 16.002Z" fill="#FF6F80"/>
<path id="Vector_7" d="M152.365 7.39055C152.365 6.10066 153.444 5.01814 154.734 5.01814C156.024 5.01814 157.104 6.09761 157.104 7.39055C157.104 8.68348 156.024 9.75991 154.734 9.75991C153.444 9.75991 152.365 8.68043 152.365 7.39055ZM152.758 10.9187H156.71V24.0889H152.758V10.9187Z" fill="#FF6F80"/>
<path id="Vector_8" d="M172.25 16.002V24.0889H168.298V16.5814C168.298 14.9499 167.27 14.1846 166.005 14.1846C164.556 14.1846 163.556 15.0262 163.556 16.8985V24.0889H159.604V10.9187H163.556V12.1567C164.267 11.1809 165.584 10.5497 167.322 10.5497C169.981 10.5497 172.247 12.4464 172.247 16.002H172.25Z" fill="#FF6F80"/>
<path id="Vector_9" d="M181.651 20.9298C182.731 20.9298 183.655 20.509 184.179 19.9296L187.341 21.747C186.051 23.54 184.1 24.4609 181.599 24.4609C177.095 24.4609 174.302 21.4329 174.302 17.5084C174.302 13.5838 177.147 10.5527 181.31 10.5527C185.155 10.5527 188 13.5289 188 17.5084C188 18.0603 187.948 18.5879 187.841 19.0879H178.489C178.989 20.4571 180.203 20.9328 181.651 20.9328V20.9298ZM184.075 16.1362C183.655 14.6084 182.468 14.0565 181.282 14.0565C179.782 14.0565 178.779 14.7944 178.41 16.1362H184.072H184.075Z" fill="#FF6F80"/>
<path id="Vector_10" d="M99.9005 32.7491V51.1887H95.6863V43.8641H89.8925V51.1887H85.6783V32.7491H89.8925V39.8084H95.6863V32.7491H99.9005Z" fill="#FF6F80"/>
<path id="Vector_11" d="M102.532 34.4873C102.532 33.1974 103.612 32.1149 104.902 32.1149C106.191 32.1149 107.271 33.1943 107.271 34.4873C107.271 35.7802 106.191 36.8566 104.902 36.8566C103.612 36.8566 102.532 35.7772 102.532 34.4873ZM102.926 38.0185H106.877V51.1887H102.926V38.0185Z" fill="#FF6F80"/>
<path id="Vector_12" d="M117.678 37.7532V42.2296C116.047 41.9674 113.726 42.6261 113.726 45.2333V51.1857H109.774V38.0154H113.726V40.3604C114.251 38.5948 116.016 37.7532 117.678 37.7532Z" fill="#FF6F80"/>
<path id="Vector_13" d="M119.127 34.4873C119.127 33.1974 120.206 32.1149 121.496 32.1149C122.786 32.1149 123.866 33.1943 123.866 34.4873C123.866 35.7802 122.786 36.8566 121.496 36.8566C120.206 36.8566 119.127 35.7772 119.127 34.4873ZM119.52 38.0185H123.472V51.1887H119.52V38.0185Z" fill="#FF6F80"/>
<path id="Vector_14" d="M139.012 43.1018V51.1887H135.06V43.6811C135.06 42.0497 134.032 41.2843 132.767 41.2843C131.318 41.2843 130.318 42.129 130.318 43.9983V51.1887H126.366V38.0185H130.318V39.2565C131.029 38.2807 132.346 37.6495 134.084 37.6495C136.743 37.6495 139.009 39.5462 139.009 43.1018H139.012Z" fill="#FF6F80"/>
<path id="Vector_15" d="M155.238 38.0185V50.53C155.238 54.9547 151.786 56.827 148.285 56.827C145.544 56.827 143.253 55.7994 142.043 53.6404L145.415 51.6919C145.916 52.6128 146.678 53.3507 148.419 53.3507C150.264 53.3507 151.395 52.4024 151.395 50.5331V49.3225C150.526 50.402 149.261 51.0362 147.55 51.0362C143.808 51.0362 141.07 47.9808 141.07 44.3459C141.07 40.7111 143.808 37.6556 147.55 37.6556C149.264 37.6556 150.526 38.2899 151.395 39.3693V38.0276H155.241L155.238 38.0185ZM151.392 44.3398C151.392 42.5224 150.075 41.2843 148.206 41.2843C146.336 41.2843 145.019 42.5224 145.019 44.3398C145.019 46.1572 146.336 47.3953 148.206 47.3953C150.075 47.3953 151.392 46.1572 151.392 44.3398Z" fill="#FF6F80"/>
</g>
</g>
</svg>
