<svg width="1792" height="759" viewBox="0 0 1792 759" fill="none" xmlns="http://www.w3.org/2000/svg">
<path d="M832.466 162.777C832.246 162.777 831.989 162.777 831.768 162.89C830.556 163.305 829.895 164.625 830.299 165.869C832.834 173.862 834.891 181.93 836.36 189.923C836.617 191.205 837.829 192.034 839.041 191.808C840.29 191.582 841.098 190.337 840.878 189.056C839.372 180.874 837.278 172.58 834.67 164.436C834.34 163.456 833.458 162.815 832.503 162.815L832.466 162.777ZM841.539 212.091C841.539 212.091 841.466 212.091 841.429 212.091C840.143 212.167 839.188 213.26 839.225 214.542C839.335 217.03 839.409 219.556 839.409 222.007C839.409 227.851 839.078 233.657 838.453 239.312C838.307 240.594 839.225 241.763 840.474 241.914C841.723 242.065 842.861 241.122 843.008 239.84C843.669 234.034 844 228.002 844 222.007C844 219.481 843.927 216.917 843.816 214.354C843.743 213.072 842.751 212.091 841.539 212.091ZM835.809 261.82C834.817 261.82 833.899 262.499 833.605 263.517C831.328 271.359 828.316 279.088 824.679 286.44C824.091 287.608 824.569 289.003 825.671 289.607C826.81 290.21 828.169 289.72 828.756 288.589C832.54 280.973 835.625 273.018 838.013 264.874C838.38 263.63 837.682 262.31 836.47 261.933C836.25 261.858 836.029 261.82 835.809 261.82ZM813.807 306.459C813.109 306.459 812.411 306.799 811.97 307.402C807.305 313.849 801.942 320.108 796.102 326.065C795.184 326.969 795.184 328.477 796.102 329.42C796.984 330.363 798.453 330.363 799.371 329.42C805.395 323.312 810.868 316.865 815.68 310.23C816.451 309.174 816.231 307.704 815.203 306.912C814.798 306.61 814.321 306.459 813.843 306.459H813.807ZM311.283 331.644C303.607 331.644 295.966 332.285 288.62 333.605C287.371 333.831 286.526 335.038 286.747 336.319C286.967 337.601 288.143 338.468 289.391 338.242C297.142 336.885 305.223 336.244 313.377 336.357C314.663 336.357 315.691 335.339 315.691 334.02C315.691 332.7 314.699 331.644 313.414 331.644C312.679 331.644 311.981 331.644 311.247 331.644H311.283ZM337.767 334.02C336.665 334.02 335.71 334.849 335.49 335.98C335.269 337.262 336.114 338.468 337.363 338.695C344.856 340.014 352.606 341.824 360.981 344.237C362.193 344.576 363.479 343.86 363.809 342.616C364.14 341.371 363.442 340.052 362.23 339.713C353.672 337.224 345.774 335.377 338.134 334.02C337.987 334.02 337.877 334.02 337.73 334.02H337.767ZM265.406 340.165C265.149 340.165 264.855 340.203 264.598 340.316C258.353 342.729 252.036 345.707 245.865 349.176C244.616 349.854 243.404 350.571 242.192 351.249C241.09 351.89 240.686 353.323 241.31 354.454C241.934 355.585 243.33 356 244.432 355.359C245.644 354.68 246.856 353.964 248.069 353.285C254.056 349.93 260.153 347.027 266.214 344.689C267.389 344.237 268.014 342.88 267.573 341.635C267.242 340.693 266.361 340.09 265.406 340.09V340.165ZM779.242 341.824C778.765 341.824 778.251 341.975 777.847 342.314C771.639 347.178 764.917 351.89 757.828 356.377C756.763 357.056 756.395 358.526 757.057 359.619C757.718 360.75 759.15 361.09 760.216 360.411C767.452 355.887 774.32 351.061 780.638 346.084C781.63 345.293 781.85 343.822 781.079 342.766C780.638 342.163 779.94 341.824 779.242 341.824ZM384.967 347.366C384.012 347.366 383.13 347.969 382.8 348.95C382.359 350.194 382.983 351.513 384.195 351.966C390.881 354.416 398.117 357.244 407.042 360.863C408.218 361.354 409.54 360.75 410.018 359.544C410.495 358.337 409.907 356.98 408.732 356.49C399.77 352.833 392.46 350.005 385.738 347.555C385.481 347.479 385.224 347.404 384.967 347.404V347.366ZM222.283 363.88C221.842 363.88 221.438 363.993 221.034 364.257C213.908 368.969 207.113 373.833 200.795 378.772C199.767 379.564 199.583 381.034 200.354 382.09C201.126 383.108 202.558 383.334 203.587 382.542C209.794 377.716 216.48 372.89 223.532 368.253C224.597 367.537 224.891 366.104 224.23 365.011C223.789 364.294 223.054 363.917 222.283 363.917V363.88ZM430.624 365.689C429.706 365.689 428.861 366.255 428.494 367.16C428.016 368.366 428.604 369.761 429.779 370.214C437.015 373.192 444.766 376.397 452.589 379.526C453.765 379.978 455.087 379.375 455.565 378.169C456.005 376.962 455.418 375.605 454.242 375.115C446.455 372.023 438.705 368.819 431.506 365.84C431.212 365.727 430.918 365.652 430.661 365.652L430.624 365.689ZM737.589 368.215C737.258 368.215 736.891 368.291 736.56 368.479C729.545 372.061 722.125 375.567 714.411 378.81C713.236 379.3 712.685 380.695 713.162 381.901C713.64 383.108 714.999 383.673 716.174 383.183C723.962 379.865 731.528 376.359 738.617 372.702C739.756 372.136 740.197 370.704 739.646 369.535C739.242 368.705 738.434 368.215 737.589 368.215ZM476.391 383.673C475.436 383.673 474.555 384.276 474.224 385.257C473.82 386.501 474.445 387.82 475.657 388.273C483.885 391.214 491.525 393.74 499.091 396.002C500.304 396.379 501.589 395.662 501.957 394.418C502.324 393.174 501.626 391.854 500.414 391.477C492.921 389.215 485.317 386.727 477.2 383.824C476.942 383.748 476.685 383.711 476.428 383.711L476.391 383.673ZM692.372 387.519C692.115 387.519 691.858 387.556 691.638 387.632C683.851 390.346 676.027 392.835 668.35 394.908C667.138 395.248 666.403 396.529 666.734 397.811C667.064 399.055 668.313 399.81 669.562 399.47C677.349 397.359 685.283 394.871 693.144 392.081C694.356 391.666 694.98 390.309 694.576 389.102C694.246 388.122 693.364 387.519 692.409 387.519H692.372ZM183.421 394.418C182.87 394.418 182.319 394.644 181.878 395.059C175.597 401.016 169.831 407.199 164.725 413.382C163.917 414.363 164.027 415.871 164.982 416.7C165.937 417.529 167.406 417.416 168.214 416.436C173.21 410.366 178.83 404.334 184.964 398.528C185.882 397.661 185.956 396.152 185.074 395.21C184.633 394.72 184.009 394.456 183.384 394.456L183.421 394.418ZM523.444 397.661C522.379 397.661 521.461 398.415 521.204 399.508C520.91 400.79 521.718 402.034 522.93 402.336C531.085 404.221 539.239 405.766 547.173 406.973C548.422 407.161 549.597 406.294 549.781 404.975C549.965 403.693 549.083 402.486 547.834 402.298C540.01 401.091 531.966 399.546 523.922 397.698C523.738 397.661 523.591 397.623 523.408 397.623L523.444 397.661ZM645.062 400.413C645.062 400.413 644.768 400.413 644.622 400.45C636.614 401.996 628.533 403.203 620.562 404.032C619.314 404.183 618.395 405.314 618.505 406.634C618.652 407.915 619.754 408.858 621.04 408.745C629.121 407.878 637.349 406.671 645.466 405.088C646.715 404.862 647.523 403.617 647.303 402.336C647.083 401.205 646.128 400.413 645.062 400.413ZM571.857 404.975C570.644 404.975 569.653 405.917 569.579 407.161C569.506 408.443 570.461 409.574 571.71 409.687C579.901 410.253 588.129 410.441 596.393 410.291C597.679 410.291 598.671 409.197 598.634 407.878C598.597 406.558 597.605 405.616 596.283 405.578C588.129 405.729 580.048 405.54 572.003 404.975C571.967 404.975 571.893 404.975 571.857 404.975ZM152.126 432.912C151.355 432.912 150.583 433.327 150.142 434.043C145.698 441.546 142.062 449.275 139.233 457.003C138.792 458.21 139.417 459.567 140.592 460.02C141.768 460.472 143.09 459.831 143.531 458.625C146.249 451.16 149.775 443.695 154.036 436.456C154.697 435.325 154.367 433.892 153.265 433.213C152.897 432.987 152.493 432.874 152.089 432.874L152.126 432.912ZM135.413 479.813C134.274 479.813 133.283 480.68 133.136 481.849C132.401 487.127 132.034 492.519 132.034 497.91C132.034 501.077 132.144 504.282 132.401 507.486C132.511 508.768 133.613 509.748 134.862 509.635C136.111 509.522 137.066 508.391 136.956 507.109C136.699 504.055 136.589 500.964 136.589 497.91C136.589 492.783 136.956 487.58 137.617 482.528C137.801 481.246 136.919 480.039 135.67 479.851C135.56 479.851 135.45 479.851 135.34 479.851L135.413 479.813ZM139.16 529.542C138.939 529.542 138.756 529.542 138.535 529.617C137.323 529.957 136.625 531.276 136.956 532.52C139.16 540.4 142.135 548.431 145.808 556.348C146.359 557.517 147.718 558.045 148.857 557.479C149.996 556.914 150.51 555.519 149.959 554.35C146.396 546.659 143.531 538.892 141.4 531.239C141.107 530.221 140.188 529.542 139.197 529.542H139.16ZM159.84 574.935C159.399 574.935 158.958 575.048 158.591 575.312C157.526 576.029 157.232 577.499 157.93 578.592C162.264 585.416 167.223 592.316 172.585 599.064C173.394 600.082 174.826 600.233 175.818 599.404C176.81 598.574 176.956 597.104 176.148 596.086C170.859 589.488 166.047 582.74 161.786 576.029C161.346 575.35 160.611 574.973 159.876 574.973L159.84 574.935ZM190.767 613.881C190.18 613.881 189.592 614.108 189.151 614.56C188.233 615.465 188.233 616.973 189.151 617.878C194.771 623.722 200.832 629.565 207.15 635.221C208.105 636.088 209.574 635.975 210.382 634.994C211.227 634.014 211.117 632.506 210.162 631.677C203.917 626.097 197.93 620.328 192.42 614.56C191.98 614.108 191.392 613.844 190.767 613.844V613.881Z" fill="white"/>
<path d="M817.663 127.939C817.259 127.939 816.855 128.052 816.488 128.278C815.386 128.957 815.055 130.389 815.717 131.52C815.717 131.558 818.104 135.555 821.263 142.454C821.814 143.623 823.173 144.151 824.312 143.585C825.45 143.02 825.965 141.625 825.414 140.456C822.145 133.292 819.72 129.258 819.647 129.07C819.206 128.354 818.471 127.939 817.7 127.939H817.663Z" fill="white"/>
<path d="M600.325 665.091L610.815 678.228L700.706 648.7L600.325 665.091Z" fill="white"/>
<path d="M607.549 624.974L597.943 637.279L602.769 650.449L589.55 651.646L576.038 676.062L703.55 648.068L607.549 624.974Z" fill="#EBEBEB"/>
<path d="M602.769 650.449L597.943 637.279L665.165 645.693L602.769 650.449Z" fill="white"/>
<path d="M69.1166 159.53C83.6432 149.892 82.3204 143.987 91.3198 142.476C100.343 140.964 102.752 148.333 116.546 145.381C130.317 142.428 130.105 106.171 169.929 106.762C209.753 107.352 208.241 153.317 220.405 153.317C232.57 153.317 231.979 142.476 250.191 142.476C268.402 142.476 276.504 174.316 315.194 174.316H18.9232C42.709 170.891 59.4322 165.954 69.1166 159.53Z" fill="white"/>
<path d="M1259.28 363.484C1275.25 352.902 1273.78 346.407 1283.68 344.73C1293.58 343.053 1296.24 351.178 1311.39 347.918C1326.53 344.659 1326.27 304.811 1370.06 305.472C1413.83 306.134 1412.17 356.634 1425.52 356.634C1438.86 356.634 1438.23 344.73 1458.26 344.73C1478.29 344.73 1487.17 379.735 1529.71 379.735H1204.1C1230.23 375.956 1248.63 370.547 1259.28 363.484Z" fill="white"/>
<path d="M1545.45 283.327C1559.98 273.69 1558.66 267.785 1567.66 266.273C1576.68 264.762 1579.09 272.131 1592.88 269.179C1606.66 266.226 1606.44 229.969 1646.27 230.559C1686.09 231.15 1684.58 277.115 1696.74 277.115C1708.91 277.115 1708.32 266.273 1726.53 266.273C1744.74 266.273 1752.84 298.114 1791.53 298.114H1495.26C1519.05 294.689 1535.77 289.752 1545.45 283.327Z" fill="white"/>
<path d="M1618.59 452.198H1506.49V457.678H1618.59V452.198Z" fill="white"/>
<path d="M1535.33 509.43H1423.23V514.91H1535.33V509.43Z" fill="white"/>
<path d="M1535.33 532.53H1479.28V538.01H1535.33V532.53Z" fill="white"/>
<path d="M276.315 679.261H167.307V684.741H276.315V679.261Z" fill="white"/>
<path d="M276.291 702.361H183.77V707.841H276.291V702.361Z" fill="white"/>
<path d="M1066.84 733.563H905.823V739.043H1066.84V733.563Z" fill="white"/>
<path d="M1100.36 752.531H1019.84V758.011H1100.36V752.531Z" fill="white"/>
<path d="M109.737 292.145H0.729065V297.625H109.737V292.145Z" fill="white"/>
<path d="M109.714 315.247H17.1924V320.727H109.714V315.247Z" fill="white"/>
<path d="M1325.89 45.2642H1250.02V50.7441H1325.89V45.2642Z" fill="white"/>
<path d="M1285.73 68.3657H1226.33V73.8457H1285.73V68.3657Z" fill="white"/>
<path d="M1319.65 19.8965H1282.24V25.3764H1319.65V19.8965Z" fill="white"/>
<path d="M221.775 258.581H172.739V266.73H221.775V258.581Z" fill="white"/>
<path d="M430.178 26.3452H344.483V34.4943H430.178V26.3452Z" fill="white"/>
<path d="M638.227 0.125977H552.532V8.27502H638.227V0.125977Z" fill="white"/>
<path d="M638.227 34.4932H595.38V42.6422H638.227V34.4932Z" fill="white"/>
<path d="M1148.97 30.2399L1162.95 16.3983C1164.35 15.0047 1166.31 15.1228 1167.8 16.6581C1169.33 18.1935 1169.4 20.1303 1168.01 21.5239L1154 35.3655C1152.61 36.7591 1150.65 36.6646 1149.14 35.1057C1147.62 33.594 1147.53 31.6335 1148.95 30.2635L1148.97 30.2399Z" fill="white"/>
<path d="M1148.38 15.6433C1149.77 14.2733 1151.71 14.3442 1153.25 15.9032L1168.41 31.2328C1169.92 32.7681 1169.99 34.705 1168.6 36.0986C1167.21 37.4922 1165.27 37.3741 1163.76 35.8624L1148.57 20.5091C1147.03 18.9738 1146.96 17.0369 1148.38 15.6669V15.6433Z" fill="white"/>
<path d="M1249.19 176.308L1263.18 162.467C1264.57 161.073 1266.53 161.191 1268.02 162.726C1269.55 164.262 1269.62 166.222 1268.23 167.592L1254.22 181.434C1252.83 182.827 1250.87 182.733 1249.36 181.174C1247.85 179.662 1247.75 177.702 1249.17 176.332L1249.19 176.308Z" fill="white"/>
<path d="M1248.58 161.712C1249.97 160.342 1251.91 160.413 1253.44 161.972L1268.61 177.301C1270.12 178.837 1270.19 180.773 1268.8 182.167C1267.4 183.561 1265.47 183.442 1263.96 181.907L1248.77 166.554C1247.23 165.019 1247.16 163.082 1248.58 161.712Z" fill="white"/>
<path d="M798.61 266.969L813.939 251.781C815.474 250.269 817.506 250.269 819.018 251.804C820.553 253.34 820.529 255.371 819.018 256.883L803.664 272.047C802.129 273.582 800.098 273.559 798.586 272.023C797.074 270.512 797.074 268.457 798.633 266.945L798.61 266.969Z" fill="white"/>
<path d="M798.704 251.711C800.216 250.199 802.271 250.199 803.782 251.735L818.947 267.064C820.458 268.6 820.435 270.631 818.899 272.143C817.388 273.654 815.333 273.654 813.845 272.119L798.657 256.766C797.121 255.23 797.145 253.199 798.68 251.687L798.704 251.711Z" fill="white"/>
<path d="M874.313 210.209L889.643 195.021C891.178 193.509 893.209 193.509 894.721 195.045C896.256 196.58 896.233 198.611 894.721 200.123L879.368 215.287C877.832 216.823 875.801 216.799 874.289 215.264C872.778 213.752 872.778 211.697 874.337 210.185L874.313 210.209Z" fill="white"/>
<path d="M874.384 194.952C875.896 193.44 877.951 193.44 879.462 194.975L894.627 210.305C896.138 211.84 896.115 213.872 894.579 215.407C893.068 216.919 891.013 216.919 889.525 215.383L874.337 200.03C872.801 198.495 872.825 196.463 874.36 194.952H874.384Z" fill="white"/>
</svg>
