<svg width="560" height="561" viewBox="0 0 560 561" fill="none" xmlns="http://www.w3.org/2000/svg">
<g clip-path="url(#clip0_2017_714)">
<rect y="0.148438" width="260" height="260" rx="30" fill="#4DB6DA"/>
<path d="M14.2535 191.943L11.4199 190.336C10.6362 191.583 9.68305 192.702 8.75754 193.547C7.98427 194.251 6.79927 194.233 6.04675 193.509L5.9568 193.42C5.12817 192.621 5.1472 191.28 6.0087 190.518C6.8875 189.739 7.73862 188.765 8.40118 187.597C9.36475 185.897 9.36821 184.361 8.17629 183.684C7.04319 183.041 5.78554 183.591 3.78748 185.374C0.903698 187.957 -1.82266 189.289 -4.71509 187.648C-7.33938 186.16 -8.34965 183.143 -7.16639 179.597L-10 177.989L-8.34273 175.066L-5.71844 176.555C-5.05415 175.498 -4.4037 174.689 -3.78266 174.056C-3.02322 173.282 -1.77941 173.272 -0.999215 174.024C-0.193071 174.803 -0.187882 176.095 -0.994026 176.874C-1.59777 177.458 -2.25514 178.23 -2.85196 179.283C-3.95219 181.223 -3.47127 182.321 -2.63572 182.795C-1.6514 183.354 -0.433532 182.665 1.95895 180.671C5.22504 177.832 7.67634 177.33 10.3612 178.853C13.0166 180.358 14.2172 183.523 12.8678 187.291L15.9108 189.016L14.2535 191.94V191.943Z" fill="#F4F9FF"/>
<path d="M150.556 237.431C157.7 227.814 163.44 227.73 163.44 227.73C163.44 227.73 166.045 210.834 163.966 203.647C161.888 196.46 152.491 202.763 152.491 202.763C152.491 202.763 164.95 178.342 159.84 175.6C150.322 170.49 135.331 196.394 135.331 196.394C135.331 196.394 138.842 184.992 132.111 185.035C121.96 185.099 121.083 211.242 121.083 211.242C121.083 211.242 119.081 206.092 112.819 209.041C106.074 212.219 104.246 231.359 103.863 246.15H139.422C144.51 243.034 148.665 239.979 150.557 237.433L150.556 237.431Z" fill="#EBEBEB"/>
<path d="M136.573 194.309C136.573 194.309 136.991 181.317 130.26 181.359C120.109 181.423 121.081 211.238 121.081 211.238C121.081 211.238 116.841 202.803 110.579 205.753C103.706 208.991 102.89 230.146 103.159 246.146H114.971L159.84 175.597C150.322 170.486 136.575 194.307 136.575 194.307L136.573 194.309Z" fill="white"/>
<path d="M191.844 245.302C191.844 245.302 224.247 249.033 232.096 246.283C239.944 243.534 234.748 239.138 234.748 239.138C234.748 239.138 251.348 237.017 252.948 232.076C254.55 227.136 246.695 227.105 246.695 227.105C246.695 227.105 263.357 217.912 261.487 214.346C258.003 207.707 239.306 216.767 239.306 216.767C239.306 216.767 245.76 211.577 241.875 208.984C236.014 205.072 225.34 219.759 225.34 219.759C225.34 219.759 226.193 216.019 221.445 215.281C212.925 213.954 191.844 245.302 191.844 245.302Z" fill="#EBEBEB"/>
<path d="M221.436 212.522C226.184 213.263 225.34 219.762 225.34 219.762C225.34 219.762 236.381 202.243 242.24 206.154C246.125 208.749 240.832 216.055 240.832 216.055C240.832 216.055 258.003 207.708 261.487 214.349L194.946 243.227C197.388 239.554 213.478 211.284 221.436 212.522Z" fill="white"/>
<path d="M191.643 245.774C191.643 245.774 221.13 225.259 225.372 216.239C229.613 207.219 221.49 207.972 221.49 207.972C221.49 207.972 233.618 191.999 230.739 186.481C227.861 180.962 221.237 187.65 221.237 187.65C221.237 187.65 227.371 165.684 222.754 164.289C214.151 161.691 205.735 189.508 205.735 189.508C205.735 189.508 202.521 174.119 197.041 175.262C188.773 176.987 197.022 199.739 197.022 199.739C197.022 199.739 194.582 192.328 189.962 195.765C181.672 201.934 191.643 245.776 191.643 245.776V245.774Z" fill="#EBEBEB"/>
<path d="M181.897 196.12C187.102 193.656 188.149 188.475 188.149 188.475C188.149 188.475 188.183 175.61 196.451 173.885C201.933 172.742 205.77 183.078 205.77 183.078C205.77 183.078 214.151 161.691 222.754 164.289L191.553 245.431C190.465 240.259 175.695 199.054 181.895 196.122L181.897 196.12Z" fill="white"/>
<path d="M182.552 245.838H123.093C121.197 245.838 119.659 244.301 119.659 242.404C119.659 240.508 121.197 238.97 123.093 238.97H182.552C184.448 238.97 185.986 240.508 185.986 242.404C185.986 244.3 184.448 245.838 182.552 245.838Z" fill="#7FEBFF"/>
<path d="M192.951 239.174H133.492C131.596 239.174 130.058 237.637 130.058 235.741C130.058 233.845 131.596 232.307 133.492 232.307H192.951C194.847 232.307 196.385 233.845 196.385 235.741C196.385 237.637 194.847 239.174 192.951 239.174Z" fill="white"/>
<path d="M184.632 232.863H125.173C123.277 232.863 121.739 231.325 121.739 229.429C121.739 227.533 123.277 225.995 125.173 225.995H184.632C186.528 225.995 188.066 227.533 188.066 229.429C188.066 231.325 186.528 232.863 184.632 232.863Z" fill="#7FEBFF"/>
<path d="M177.698 226.025H118.239C116.343 226.025 114.805 224.487 114.805 222.591C114.805 220.695 116.343 219.157 118.239 219.157H177.698C179.594 219.157 181.132 220.695 181.132 222.591C181.132 224.487 179.594 226.025 177.698 226.025Z" fill="white"/>
<path d="M211.109 239.127C222.719 227.517 222.719 208.694 211.109 197.084C199.499 185.474 180.676 185.474 169.066 197.084C157.456 208.694 157.456 227.517 169.066 239.127C180.676 250.737 199.499 250.737 211.109 239.127Z" fill="#DDE8FE"/>
<path d="M207.728 235.746C217.47 226.003 217.47 210.208 207.728 200.465C197.985 190.723 182.19 190.723 172.447 200.465C162.705 210.208 162.705 226.003 172.447 235.746C182.19 245.488 197.985 245.488 207.728 235.746Z" fill="#7FEBFF"/>
<path d="M182.365 234.123L183.786 230.208C182.045 229.487 180.431 228.525 179.17 227.539C178.118 226.715 177.885 225.217 178.639 224.114L178.729 223.98C179.559 222.764 181.253 222.501 182.4 223.425C183.569 224.366 184.979 225.231 186.592 225.816C188.941 226.667 190.877 226.343 191.475 224.695C192.043 223.129 191.082 221.661 188.406 219.526C184.535 216.443 182.274 213.291 183.723 209.295C185.038 205.669 188.624 203.751 193.349 204.484L194.769 200.569L198.808 202.033L197.494 205.659C198.967 206.269 200.127 206.916 201.057 207.565C202.194 208.357 202.472 209.923 201.692 211.068C200.884 212.251 199.255 212.533 198.101 211.684C197.236 211.047 196.122 210.385 194.667 209.857C191.987 208.887 190.704 209.726 190.287 210.88C189.794 212.239 190.922 213.629 193.947 216.216C198.224 219.726 199.381 222.709 198.035 226.418C196.705 230.085 192.973 232.277 187.934 231.383L186.41 235.586L182.371 234.121L182.365 234.123Z" fill="white"/>
<path d="M82.8743 244.63C82.8743 244.63 36.6767 221.852 28.7312 209.971C20.7856 198.09 32.4644 197.417 32.4644 197.417C32.4644 197.417 11.8489 177.367 14.7482 168.925C17.6493 160.485 28.4717 168.55 28.4717 168.55C28.4717 168.55 15.0717 138.717 21.3219 135.75C32.9643 130.225 49.2965 161.974 49.2965 161.974C49.2965 161.974 45.7865 148.181 53.8029 148.63C65.8934 149.306 65.3934 180.505 65.3934 180.505C65.3934 180.505 66.7583 168.543 74.0465 172.428C87.1212 179.4 82.8725 244.628 82.8725 244.628L82.8743 244.63Z" fill="white"/>
<path d="M76.6795 167.604C70.9898 164.447 65.3225 173.677 65.3225 173.677C65.3225 173.677 65.8969 149.309 53.8065 148.632C45.79 148.184 49.3 161.977 49.3 161.977C49.3 161.977 32.9678 130.228 21.3254 135.753L82.928 244.124C83.3639 236.556 87.9517 173.862 76.6795 167.606V167.604Z" fill="#EBEBEB"/>
<path d="M81.6788 244.913C81.6788 244.913 43.8955 249.607 34.1128 245.424C24.3301 241.242 31.3415 236.077 31.3415 236.077C31.3415 236.077 10.3351 231.948 8.71413 225.505C7.09319 219.061 17.1215 219.695 17.1215 219.695C17.1215 219.695 -3.359 206.532 -0.665512 202.141C4.35126 193.964 27.4388 207.13 27.4388 207.13C27.4388 207.13 19.6455 199.953 24.8283 196.975C32.6441 192.485 45.0096 212.147 45.0096 212.147C45.0096 212.147 44.2415 207.3 50.3655 206.763C61.3539 205.8 81.6788 244.912 81.6788 244.912V244.913Z" fill="white"/>
<path d="M50.6131 203.242C44.4891 203.78 45.0098 212.147 45.0098 212.147C45.0098 212.147 32.4195 188.838 24.6037 193.331C19.4208 196.308 25.5534 206.089 25.5534 206.089C25.5534 206.089 4.35149 193.964 -0.665283 202.14L81.7949 244.703C78.9907 239.805 60.8784 202.34 50.6148 203.242H50.6131Z" fill="#EBEBEB"/>
<path d="M188.414 62.1094L187.068 65.4654L181.425 63.8964L178.851 68.562L174.436 68.0776L174.19 70.3109L180.094 70.9614L182.534 66.538L188.403 68.1728L190.431 63.1196L188.414 62.1094Z" fill="#7FEBFF"/>
<path d="M208.481 152.055L209.868 148.615C208.341 147.919 206.934 147.011 205.843 146.094C204.931 145.328 204.772 143.987 205.478 143.027L205.562 142.911C206.339 141.854 207.854 141.674 208.847 142.532C209.859 143.406 211.086 144.221 212.504 144.793C214.568 145.625 216.303 145.397 216.886 143.949C217.442 142.572 216.632 141.236 214.316 139.25C210.965 136.384 209.05 133.507 210.467 129.994C211.752 126.805 215.004 125.212 219.187 126.013L220.575 122.572L224.124 124.003L222.839 127.191C224.133 127.781 225.143 128.393 225.953 129.001C226.941 129.741 227.14 131.144 226.408 132.139C225.652 133.168 224.192 133.367 223.19 132.573C222.439 131.98 221.469 131.355 220.191 130.84C217.836 129.892 216.667 130.599 216.258 131.613C215.776 132.808 216.738 134.08 219.35 136.479C223.047 139.738 223.982 142.43 222.669 145.691C221.37 148.916 217.978 150.749 213.522 149.794L212.032 153.489L208.482 152.059L208.481 152.055Z" fill="#DDE8FE"/>
<path d="M132.282 245.799H62.4438C59.6621 245.799 57.4062 243.543 57.4062 240.761C57.4062 237.979 59.6621 235.724 62.4438 235.724H132.282C135.064 235.724 137.32 237.979 137.32 240.761C137.32 243.543 135.064 245.799 132.282 245.799Z" fill="#161F2A"/>
<path d="M142.78 235.826H77.0324C74.2507 235.826 71.9949 233.57 71.9949 230.789C71.9949 228.007 74.2507 225.751 77.0324 225.751H142.78C145.562 225.751 147.817 228.007 147.817 230.789C147.817 233.57 145.562 235.826 142.78 235.826Z" fill="#EBEBEB"/>
<path d="M133.414 215.667H70.5225C67.8034 215.667 65.5991 217.871 65.5991 220.59V220.824C65.5991 223.543 67.8034 225.747 70.5225 225.747H133.414C136.133 225.747 138.337 223.543 138.337 220.824V220.59C138.337 217.871 136.133 215.667 133.414 215.667Z" fill="#161F2A"/>
<path d="M70.1645 205.618H133.35C136.021 205.618 138.189 207.786 138.189 210.457V210.856C138.189 213.527 136.021 215.695 133.35 215.695H70.1645C67.4935 215.695 65.3259 213.527 65.3259 210.856V210.459C65.3259 207.788 67.4935 205.62 70.1645 205.62V205.618Z" fill="#EBEBEB"/>
<path d="M135.433 206.209H71.6679C68.8862 206.209 66.6304 203.953 66.6304 201.171C66.6304 198.39 68.8862 196.134 71.6679 196.134H135.433C138.216 196.134 140.47 198.39 140.47 201.171C140.47 203.953 138.215 206.209 135.433 206.209Z" fill="#161F2A"/>
<path d="M132.68 196.261H68.9155C66.1337 196.261 63.8779 194.005 63.8779 191.223C63.8779 188.441 66.1337 186.186 68.9155 186.186H132.68C135.462 186.186 137.718 188.441 137.718 191.223C137.718 194.005 135.462 196.261 132.68 196.261Z" fill="#EBEBEB"/>
<path d="M74.7971 166.72H135.875C138.602 166.72 140.814 168.932 140.814 171.659V171.858C140.814 174.584 138.602 176.797 135.875 176.797H74.7971C72.0707 176.797 69.8582 174.584 69.8582 171.858V171.659C69.8582 168.932 72.0707 166.72 74.7971 166.72Z" fill="#EBEBEB"/>
<path d="M141.349 176.407H82.6702C79.9932 176.407 77.823 178.577 77.823 181.254V181.637C77.823 184.314 79.9932 186.484 82.6702 186.484H141.349C144.026 186.484 146.196 184.314 146.196 181.637V181.254C146.196 178.577 144.026 176.407 141.349 176.407Z" fill="#161F2A"/>
<path d="M74.3108 238.582C85.8631 227.03 85.8631 208.3 74.3108 196.748C62.7584 185.195 44.0283 185.195 32.476 196.748C20.9236 208.3 20.9236 227.03 32.476 238.582C44.0283 250.135 62.7584 250.135 74.3108 238.582Z" fill="#DDE8FE"/>
<path d="M70.2217 199.418C80.2985 208.713 80.9334 224.415 71.6403 234.494C62.3454 244.57 46.6429 245.207 36.5644 235.912C26.4876 226.617 25.851 210.915 35.1459 200.836C44.4407 190.759 60.1432 190.124 70.2217 199.418Z" fill="#7FEBFF"/>
<path d="M69.6735 225.417C70.2443 226.166 70.2045 227.216 69.5783 227.92C68.3483 229.3 66.3399 230.972 63.8159 232.21C60.1226 234.023 55.8825 234.577 51.8777 233.21C49.3763 232.355 46.9907 230.61 45.1968 228.228L43.0154 229.299C42.2732 229.662 41.3771 229.357 41.0138 228.615L40.9862 228.558C40.6229 227.816 40.9273 226.92 41.6695 226.557L43.4599 225.678C43.1019 225.09 42.8527 224.726 42.6884 224.391C42.4133 223.832 42.14 223.133 41.8944 222.35L40.0485 223.256C39.3064 223.621 38.4103 223.315 38.047 222.573C37.6837 221.831 37.9882 220.934 38.7303 220.571L40.9689 219.473C40.3201 216.598 40.4257 213.698 41.2802 211.195C42.7334 206.941 45.9337 203.703 49.7949 201.807C52.0455 200.701 53.9415 200.255 55.495 200.087C56.5745 199.97 57.5536 200.729 57.7093 201.803L57.7145 201.838C57.8771 202.952 57.0935 203.974 55.9794 204.128C54.7114 204.303 53.2323 204.704 51.5525 205.528C49.0908 206.737 47.0132 208.728 45.9891 211.591C45.4199 213.261 45.266 215.21 45.8369 217.082L58.4255 210.901C59.1676 210.536 60.0637 210.842 60.427 211.584C60.792 212.326 60.4858 213.223 59.7437 213.586L46.5946 220.042C46.8402 220.685 47.0876 221.327 47.2796 221.72C47.527 222.223 47.7744 222.727 48.1601 223.37L61.337 216.9C62.0947 216.528 63.0098 216.841 63.3817 217.597C63.7537 218.355 63.4405 219.27 62.6846 219.642L50.0682 225.837C51.2567 227.268 52.7271 228.281 54.2287 228.794C57.2042 229.762 59.8267 229.447 62.624 228.074C64.3297 227.237 65.7137 226.181 66.7447 225.19C67.5941 224.374 68.9642 224.479 69.6786 225.415L69.6735 225.417Z" fill="white"/>
<path d="M69.67 138.281C70.0627 138.918 69.9502 139.743 69.4019 140.25C68.3258 141.245 66.6098 142.409 64.5218 143.192C61.4667 144.339 58.0761 144.45 55.0193 143.063C53.1095 142.196 51.3622 140.634 50.1288 138.615L48.3245 139.293C47.7104 139.523 47.027 139.214 46.797 138.599L46.7797 138.553C46.5496 137.939 46.8592 137.255 47.4734 137.025L48.9542 136.47C48.7172 135.979 48.5494 135.672 48.4439 135.394C48.2709 134.932 48.1083 134.358 47.975 133.721L46.4475 134.294C45.8334 134.524 45.1501 134.212 44.92 133.6C44.6899 132.986 44.9996 132.303 45.6137 132.073L47.4647 131.377C47.1741 129.057 47.4803 126.777 48.3487 124.867C49.8243 121.62 52.6009 119.311 55.7943 118.112C57.6557 117.413 59.1867 117.207 60.427 117.193C61.2885 117.185 62.003 117.858 62.0428 118.719V118.747C62.086 119.64 61.3889 120.387 60.498 120.421C59.4825 120.461 58.2854 120.664 56.8963 121.186C54.8601 121.951 53.0662 123.362 52.0369 125.546C51.4591 126.819 51.1875 128.346 51.4937 129.869L61.9096 125.959C62.5237 125.729 63.207 126.039 63.4371 126.653C63.6672 127.267 63.3575 127.95 62.7434 128.18L51.8656 132.263C52.011 132.789 52.1545 133.316 52.2774 133.64C52.4331 134.057 52.5905 134.474 52.8448 135.012L63.7467 130.92C64.373 130.685 65.0719 131.002 65.3071 131.63C65.5424 132.256 65.2241 132.955 64.5979 133.19L54.1595 137.108C54.9882 138.33 56.0694 139.243 57.2163 139.764C59.4911 140.758 61.5861 140.712 63.9007 139.843C65.3123 139.314 66.4852 138.587 67.3761 137.883C68.1096 137.304 69.1839 137.492 69.6752 138.288L69.67 138.281Z" fill="#7FEBFF"/>
<path d="M166.336 103.471L169.659 101.789L172.929 103.573C173.301 103.775 173.745 103.464 173.68 103.045L173.107 99.3641L175.814 96.8055C176.122 96.5149 175.963 95.9959 175.544 95.9284L171.867 95.3368L170.27 91.9721C170.088 91.5881 169.545 91.5811 169.351 91.9583L167.651 95.2728L163.957 95.752C163.537 95.8056 163.361 96.3194 163.66 96.6204L166.288 99.262L165.601 102.923C165.523 103.339 165.957 103.665 166.336 103.474V103.471Z" fill="#EBEBEB"/>
<path d="M99.6355 35.924L96.1999 36.2717L95.0287 30.8069L89.9445 30.6979L88.3997 26.752L86.4016 27.5339L88.4689 32.8119L93.2867 32.9157L94.5046 38.6002L99.6736 38.076L99.6355 35.924Z" fill="#7FEBFF"/>
<path d="M170.208 117.808L173.882 119.021C173.882 119.021 179.708 117.133 180.281 115.945C180.855 114.758 181.016 111.876 181.845 111.798C182.673 111.719 184.275 111.988 184.658 113.961C184.934 115.391 182.838 119.529 183.166 119.969C183.371 120.244 185.464 121.001 187 121.529C188.01 121.877 188.74 122.766 188.896 123.838V123.842C189.001 124.567 188.59 125.274 187.912 125.536L186.855 125.944L187.192 127.035C187.443 127.848 186.998 128.722 186.196 128.99L185.377 129.265L185.638 129.93C185.976 130.786 185.5 131.758 184.621 132.012L183.907 132.22L183.936 132.41C184.059 133.204 183.561 133.969 182.791 134.171L182.082 134.358L172.296 131.128C171.379 130.826 170.535 130.336 169.815 129.687L166.564 127.971C166.215 127.786 166.054 127.369 166.185 126.99L169.199 118.313C169.344 117.894 169.794 117.668 170.208 117.804V117.808Z" fill="#7FEBFF"/>
<path d="M52.3965 105.965C52.3498 105.83 51.1976 103.862 49.7116 101.723C42.8006 91.7678 32.5543 82.1719 20.5365 82.5334L20.5278 82.4608C25.9615 81.864 31.2845 83.3119 35.957 85.8912C43.6655 90.0465 51.1786 97.9661 55.2872 104.054L52.3947 105.965H52.3965Z" fill="#EBEBEB"/>
<path d="M131.423 93.5448C131.423 93.5448 131.776 92.8321 131.755 91.1869C131.729 89.1525 131.321 86.0802 131.239 85.8086C131.092 85.3173 137.675 83.2535 137.675 83.2535C137.675 83.2535 148.236 82.7137 149.808 81.5339C151.381 80.3559 152.703 79.8698 151.971 81.0911C150.644 83.3019 147.549 86.5438 146.862 86.9867C146.174 87.4295 137.971 89.4916 137.824 89.4916C137.677 89.4916 137.725 94.6502 137.725 94.6502L131.425 93.5448H131.423Z" fill="#FB9390"/>
<path d="M138.275 91.3457C138.275 91.3457 131.437 90.1832 131.312 90.8666C128.549 105.996 128.081 110.998 127.774 111.155C126.733 111.69 111.849 98.627 109.389 97.7724C108.212 97.3641 106.932 97.4316 105.706 97.4679C102.781 97.5544 103.767 97.4835 102.223 97.5596V97.5631C102.142 97.5683 102.094 97.5717 102.094 97.5717L102.109 100.324C105.407 103.291 112.952 148.217 113.589 148.186C114.298 148.153 129.215 151.907 128.953 150.649C128.909 150.445 118.839 142.204 115.983 130.312C115.025 126.32 114.551 122.021 114.032 118.258C117.346 119.921 130.291 126.29 132.341 125.449C138.723 122.83 138.273 91.3457 138.273 91.3457H138.275Z" fill="white"/>
<path d="M163.964 171.114C163.964 171.114 177.842 181.985 178.305 183.912C178.973 186.689 191.681 183.038 188.616 182.475C187.91 182.345 185.654 181.772 185.469 181.674C184.476 181.143 172.128 166.262 172.128 166.262L163.964 171.114Z" fill="#FB9390"/>
<path d="M194.575 182.474L185.715 181.753C185.715 181.753 183.182 183.85 178.314 183.948C178.314 183.948 177.536 186.171 177.906 188.771C177.97 189.219 178.044 190.576 178.497 190.544C180.134 190.434 184.497 189.347 189.465 188.354C189.465 188.354 196.144 186.939 200.002 184.632C203.86 182.324 194.575 182.476 194.575 182.476V182.474Z" fill="#F4F9FF"/>
<path d="M101.78 143.846C101.78 143.846 111.944 145.553 123.183 142.924C136.189 139.881 150.569 137.068 154.784 139.517C158.176 141.49 179.355 173.493 179.355 173.493L171.176 179.461L147.855 153.346C147.855 153.346 118.102 164.324 111.42 163.108C96.1998 160.337 95.9835 148.183 101.78 143.844V143.846Z" fill="#E8605D"/>
<path d="M112.892 137.387L123.061 149.47L104.196 155.217L101.781 143.845L112.892 137.387Z" fill="#E8605D"/>
<path d="M133.556 192.586C133.556 192.586 132.938 209.371 132.554 212.214C132.172 215.044 139.678 223.567 138.718 220.602C138.496 219.92 137.929 217.663 137.927 217.452C137.922 216.327 140.711 197.179 140.711 197.179L133.554 192.586H133.556Z" fill="#FB9390"/>
<path d="M141.55 225.845L137.976 217.706C137.976 217.706 134.928 216.474 132.528 212.237C132.528 212.237 130.202 212.609 128.091 214.17C127.726 214.44 125.245 216.254 125.417 216.673C126.053 218.214 129.434 221.517 133.129 225.122C133.129 225.122 138.367 229.348 142.232 231.645C146.094 233.943 141.55 225.847 141.55 225.847V225.845Z" fill="#F4F9FF"/>
<path d="M150.028 159.492C146.473 154.754 117.793 150.253 117.793 150.253L109.795 134.881L92.1104 145.786C92.1104 145.786 93.8783 159.857 95.2052 163.618C96.9732 168.628 108.858 168.884 116.116 168.81C122.796 168.741 134.995 170.102 134.995 170.102L130.869 206.503C130.869 206.503 138.979 208.349 141.259 208.051C141.517 208.017 154.45 165.388 150.028 159.492Z" fill="#FF6F80"/>
<path d="M102.194 97.5967L92.216 98.1433C92.216 98.1433 91.9876 98.2229 91.9184 98.2368C91.1053 98.3873 91.844 127.464 92.5689 138.323C93.2937 149.183 94.7641 153.745 94.7641 153.745C94.7641 153.745 108.296 151.342 112.449 149.73C114.172 149.06 118.345 143.846 118.345 143.846C118.345 143.846 114.084 138.117 111.937 128.811C110.282 121.634 108.24 108.91 107.071 106.255C104.388 100.155 102.196 97.5967 102.196 97.5967H102.194Z" fill="#DDE8FE"/>
<path d="M92.5015 89.344L92.2178 98.1527C92.2178 98.1527 98.6773 109.281 101.992 107.731C104.775 106.43 102.305 97.9642 102.305 97.9642C102.305 97.9642 101.824 96.0232 101.155 93.7933C100.687 92.2347 100.3 90.548 100.328 89.3094C100.397 86.2993 92.4998 89.344 92.4998 89.344H92.5015Z" fill="#EF7F7F"/>
<path d="M100.217 69.251C100.217 69.251 103.509 74.2124 103.754 78.3884C104 82.5645 103.116 85.4136 103.116 85.4136L92.5549 72.7887L100.218 69.251H100.217Z" fill="url(#paint0_linear_2017_714)"/>
<path d="M104.848 77.5339C104.997 78.9957 104.429 80.2516 103.578 80.3381C102.729 80.4246 101.919 79.3105 101.771 77.847C101.622 76.3852 102.189 75.1293 103.04 75.0428C103.89 74.9563 104.699 76.0704 104.848 77.5339Z" fill="#EF7F7F"/>
<path d="M89.1368 74.811C88.8947 74.7591 88.9189 86.9135 92.441 89.7731C95.9648 92.6326 102.096 92.8835 103.886 90.0032C105.867 86.8166 103.983 74.01 98.7431 71.2889C93.5032 68.5694 89.1368 74.8092 89.1368 74.8092V74.811Z" fill="#FB9390"/>
<path d="M88.2423 67.2733C85.5522 69.6312 84.2513 71.3542 82.4315 75.5458C80.1947 80.701 84.6337 86.0413 88.3547 88.1639C92.0775 90.2865 92.3924 92.8917 92.3924 92.8917L92.5394 91.2708C92.6986 90.0114 92.318 89.2935 91.9616 88.5323C91.645 87.8542 90.6278 85.5344 90.23 84.922C89.1834 83.3062 88.9758 82.9568 89.493 81.4224C89.8909 80.2408 89.4307 77.6356 90.0449 75.6877L95.0547 74.6065C95.0547 74.6065 98.1893 73.8522 99.7739 72.0254C104.32 66.7803 95.3315 60.9314 88.2388 67.2733H88.2423Z" fill="black"/>
<path d="M90.6884 82.7512C91.3059 84.085 91.1779 85.4568 90.4029 85.8166C89.6279 86.1747 88.4983 85.3859 87.8824 84.0521C87.2648 82.7183 87.3929 81.3465 88.1679 80.9867C88.9429 80.6286 90.0725 81.4174 90.6884 82.7512Z" fill="#FB9390"/>
<path d="M23.2043 87.107L22.3913 81.5073L26.5431 77.6634C27.0153 77.2257 26.7818 76.4351 26.1469 76.3261L20.5714 75.3695L18.1979 70.2334C17.9281 69.6486 17.1046 69.6279 16.8036 70.197L14.1707 75.2051L8.55189 75.8746C7.91182 75.9507 7.63676 76.7275 8.08654 77.1894L12.0359 81.2408L10.9357 86.7904C10.8112 87.4219 11.4651 87.9235 12.0429 87.6381L17.1167 85.1349L22.0557 87.8959C22.6179 88.2107 23.2977 87.7436 23.2043 87.1053V87.107Z" fill="#EBEBEB"/>
<path d="M56.545 49.2236C57.1142 51.5624 58.1417 55.261 58.1417 55.261C58.0604 56.2765 57.7594 60.5079 57.4031 65.6924L65.0234 62.6426C65.0234 62.6426 64.9317 54.1936 65.2725 53.6764C65.5597 53.2387 66.044 53.7854 68.3794 50.4414C69.0541 49.4761 69.1804 47.7531 69.1804 47.7531C69.1804 47.7531 69.3188 45.6305 68.843 45.4333C68.3673 45.2361 67.8207 45.5527 67.6477 45.9194C67.4747 46.2862 67.5196 47.1407 67.3467 47.5075C67.1737 47.8742 66.0717 48.3154 65.6081 48.2929C65.1445 48.2704 65.6652 42.0167 65.6652 42.0167C65.6652 42.0167 65.9247 40.2435 66.0561 39.6623C66.1686 39.1675 66.6184 37.7161 66.6184 37.7161C66.6184 37.7161 67.1477 35.6108 66.4938 35.4499C66.108 35.3548 65.1272 37.0657 64.4542 38.8804C63.7294 40.8352 63.3194 42.9076 63.1118 42.88C62.6257 42.8142 62.8835 39.3855 62.8835 39.3855C62.8835 39.3855 63.3678 37.8147 63.3557 37.0743C63.8142 36.1661 64.1169 34.4812 63.3108 34.3411C63.162 34.3151 62.0998 36.455 62.0998 36.455C62.0998 36.455 61.6829 37.9618 61.439 38.6659C61.01 39.9079 60.9442 41.8697 60.7211 42.7346C60.5342 43.4543 60.3664 43.1585 60.2903 43.1879C60.2315 43.2104 60.3353 42.2191 60.4529 40.8542C60.5135 40.1674 60.4339 39.3751 60.6259 38.5915C60.8041 37.8666 60.9062 36.8304 60.9511 36.2042C61.0809 34.431 59.9651 34.6127 59.5793 36.2336C59.4323 36.8512 59.2766 37.5258 59.1226 38.2092C58.5223 40.8681 58.5396 43.4301 58.2525 43.4508C57.8805 43.4785 58.1262 38.8146 58.1262 38.8146C58.1262 38.8146 57.5553 36.2336 56.9879 38.6295C56.3305 41.4095 56.398 43.6757 56.4066 43.776C56.4672 44.4542 55.9759 46.8813 56.545 49.2218V49.2236Z" fill="#FB9390"/>
<path d="M92.2038 98.1577C92.2038 98.1577 82.3259 97.6923 79.7743 96.5385C78.2278 95.8379 65.5163 85.5967 65.5163 85.5967L65.6581 58.174L56.7196 57.4941C56.7196 57.4941 52.0852 87.8041 53.6905 91.1221C55.3478 94.5491 73.9531 108.653 77.6742 114.774C79.8176 118.299 84.2877 166.256 84.9641 166.689C89.7785 169.193 104.644 171.697 104.294 170.176C94.617 128.175 92.2038 98.1577 92.2038 98.1577Z" fill="white"/>
<path d="M136.372 86.2426C152.791 86.2426 166.101 72.9326 166.101 56.5139C166.101 40.0952 152.791 26.7852 136.372 26.7852C119.954 26.7852 106.644 40.0952 106.644 56.5139C106.644 72.9326 119.954 86.2426 136.372 86.2426Z" fill="#DDE8FE"/>
<path d="M139.098 81.3069C152.794 79.8022 162.676 67.4799 161.172 53.7844C159.667 40.0888 147.345 30.2062 133.649 31.711C119.954 33.2157 110.071 45.538 111.576 59.2335C113.08 72.9291 125.403 82.8117 139.098 81.3069Z" fill="#7FEBFF"/>
<path d="M128.65 72.5301L130.07 68.6153C128.33 67.8939 126.716 66.9321 125.455 65.946C124.403 65.1226 124.169 63.6245 124.924 62.5208L125.015 62.3876C125.846 61.1715 127.539 60.9085 128.686 61.8323C129.856 62.7734 131.264 63.6383 132.878 64.223C135.227 65.0742 137.163 64.7507 137.761 63.1021C138.329 61.5365 137.369 60.0695 134.692 57.933C130.821 54.8503 128.56 51.6984 130.008 47.7023C131.323 44.0764 134.909 42.1579 139.633 42.8914L141.053 38.9766L145.093 40.4418L143.778 44.0677C145.252 44.6784 146.411 45.3254 147.342 45.9741C148.478 46.7664 148.757 48.332 147.977 49.4772C147.169 50.6605 145.539 50.9424 144.385 50.093C143.52 49.4564 142.406 48.7939 140.951 48.2662C138.272 47.2958 136.988 48.1348 136.571 49.2886C136.078 50.6483 137.206 52.0375 140.232 54.6254C144.508 58.1354 145.665 61.1178 144.319 64.8268C142.989 68.4942 139.258 70.686 134.218 69.7917L132.694 73.9954L128.655 72.5301H128.65Z" fill="white"/>
<path d="M135.611 86.3959C135.611 86.3959 138.362 85.2161 139.099 84.9705C139.836 84.7248 142.193 84.2819 142.193 84.2819C142.193 84.2819 145.854 80.5246 146.786 80.4259C147.719 80.3273 144.65 84.5276 144.65 84.5276L143.373 85.7558C143.373 85.7558 145.437 83.9879 145.83 83.7422C146.222 83.4966 149.317 79.0264 150.104 79.3205C150.89 79.6146 148.778 82.7596 147.746 84.429C146.715 86.0984 142 87.1311 142 87.1311L135.615 86.3942L135.611 86.3959Z" fill="#FB9390"/>
<path d="M168.488 98.5315C168.483 99.2684 151.777 99.4708 148.314 114.286L146.088 113.554C151.049 98.4951 167.591 99.1023 168.4 98.547C168.411 98.5384 168.416 98.5297 168.416 98.5315H168.49H168.488Z" fill="#EBEBEB"/>
<path d="M238.783 193.833L239.358 191.857C242.396 191.283 245.009 189.216 245.871 186.252C246.146 185.304 246.336 184.502 246.476 183.429L242.408 182.246L243.131 179.756L246.805 180.824C246.952 179.582 247.163 177.971 247.611 176.432C248.966 171.769 253.05 169.657 257.435 170.932C258.686 171.295 259.653 171.768 260.369 172.25C261.02 172.69 261.191 173.575 260.762 174.233C260.331 174.894 259.454 175.084 258.781 174.67C258.223 174.326 257.512 173.996 256.619 173.736C253.538 172.84 251.652 174.606 250.838 177.412C250.345 179.111 250.213 180.445 250.083 181.777L255.773 183.431L255.05 185.92L249.677 184.358C249.358 185.894 249.002 187.418 248.232 188.736C247.303 190.309 245.942 191.456 244.266 192.21L244.243 192.29L254.626 195.308C255.394 195.532 255.835 196.334 255.612 197.102L255.581 197.206C255.358 197.974 254.555 198.415 253.787 198.192L238.782 193.831L238.783 193.833Z" fill="#EBEBEB"/>
</g>
<g clip-path="url(#clip1_2017_714)">
<rect x="300" y="0.148438" width="260" height="260" rx="30" fill="white"/>
<path d="M511.096 232.069C507.158 209.725 503.219 187.423 499.281 165.079C490.249 132.632 481.175 100.186 472.143 67.6965C468.29 65.0426 464.481 62.3886 460.628 59.7347C429.123 47.8776 397.619 36.0205 366.114 24.1206C364.787 32.4249 365.9 38.7601 367.269 43.1262C373.776 63.7584 398.175 78.0554 428.567 79.9389C430.793 86.9589 432.976 93.9362 435.202 100.956C414.698 96.847 392.525 93.1657 368.896 90.3834C350.575 88.2003 333.068 86.7449 316.417 85.8032C315.261 86.9589 301.948 100.485 305.458 118.721C308.969 137.041 326.562 145.602 337.905 147.614C343.727 148.642 355.198 149.241 357.082 144.661C359.522 138.753 344.968 127.196 333.753 119.277L511.053 231.984L511.096 232.069Z" fill="#EF959A"/>
<path d="M336.749 110.801C334.224 115.467 322.709 138.154 330.799 165.678C333.325 174.239 340.174 191.661 356.91 203.004C376.13 216.017 399.716 215.118 420.048 214.348C423.13 214.219 425.656 214.048 427.411 213.92C427.111 224.107 440.812 267.295 440.512 277.44C450.828 278.767 458.833 277.911 464.141 276.926C471.846 275.514 473.515 273.887 482.29 272.56C491.579 271.148 494.19 272.303 502.28 271.404C507.631 270.805 515.55 269.307 525.053 265.069C510.199 221.622 481.389 145.217 466.535 101.77C423.259 104.766 379.983 107.762 336.706 110.759L336.749 110.801Z" fill="#EF959A"/>
<path d="M446.724 174.278C469.359 151.644 469.359 114.946 446.724 92.3121C424.09 69.6778 387.393 69.6779 364.759 92.3121C342.125 114.946 342.125 151.644 364.759 174.278C387.393 196.912 424.09 196.912 446.724 174.278Z" fill="#4DB6DA"/>
<path d="M459.105 142.218C464.028 112.768 444.145 84.9038 414.696 79.9809C385.246 75.058 357.381 94.9409 352.458 124.391C347.536 153.84 367.418 181.705 396.868 186.628C426.318 191.55 454.182 171.668 459.105 142.218Z" fill="white"/>
<path d="M409.433 68.4243H402.37V78.1411H409.433V68.4243Z" fill="#4DB6DA"/>
<path d="M412.771 64.7856H399.074V72.3622H412.771V64.7856Z" fill="#4DB6DA"/>
<path d="M366.481 79.7979L362.712 82.8979L368.885 90.4022L372.653 87.3022L366.481 79.7979Z" fill="#4DB6DA"/>
<path d="M365.914 75.5356L358.641 81.5181L363.454 87.3694L370.727 81.3869L365.914 75.5356Z" fill="#4DB6DA"/>
<path d="M439.268 87.6184L443.037 90.7178L449.209 83.2125L445.44 80.1131L439.268 87.6184Z" fill="#4DB6DA"/>
<path d="M441.204 81.7343L448.477 87.7168L453.29 81.8655L446.017 75.883L441.204 81.7343Z" fill="#4DB6DA"/>
<path d="M403.697 180.66C402.198 180.575 400.743 180.446 399.33 180.275C399.031 180.275 398.817 179.976 398.86 179.676C398.86 179.376 399.159 179.162 399.459 179.205C400.829 179.376 402.284 179.505 403.697 179.59C403.996 179.59 404.21 179.847 404.21 180.147C404.21 180.446 403.953 180.66 403.697 180.66ZM407.977 180.66C407.677 180.66 407.463 180.446 407.463 180.147C407.463 179.847 407.677 179.59 407.977 179.59C409.39 179.548 410.802 179.419 412.215 179.205C412.472 179.205 412.771 179.376 412.814 179.676C412.814 179.976 412.643 180.232 412.343 180.275C410.931 180.446 409.475 180.618 408.02 180.66H407.977ZM395.136 179.505C393.595 179.162 392.182 178.777 390.812 178.349C390.513 178.263 390.384 177.964 390.47 177.664C390.555 177.364 390.855 177.236 391.155 177.322C392.482 177.75 393.894 178.135 395.264 178.435C395.564 178.52 395.735 178.777 395.649 179.077C395.606 179.333 395.392 179.505 395.136 179.505ZM416.495 179.505C416.239 179.505 416.025 179.333 415.982 179.077C415.896 178.777 416.11 178.52 416.367 178.435C417.78 178.092 419.149 177.75 420.476 177.279C420.776 177.193 421.076 177.364 421.161 177.621C421.247 177.921 421.118 178.221 420.819 178.306C419.449 178.734 418.036 179.119 416.624 179.462C416.624 179.462 416.538 179.462 416.495 179.462V179.505ZM387.002 176.894C387.002 176.894 386.874 176.894 386.788 176.894C385.461 176.337 384.135 175.695 382.85 175.01C382.594 174.882 382.508 174.539 382.636 174.282C382.765 174.026 383.107 173.94 383.364 174.068C384.605 174.753 385.89 175.353 387.174 175.909C387.431 176.037 387.559 176.337 387.473 176.594C387.388 176.808 387.174 176.936 386.96 176.936L387.002 176.894ZM424.671 176.851C424.671 176.851 424.286 176.722 424.158 176.508C424.029 176.251 424.158 175.909 424.457 175.823C425.741 175.267 427.026 174.625 428.267 173.983C428.524 173.854 428.866 173.94 428.995 174.197C429.123 174.454 428.995 174.796 428.781 174.925C427.496 175.609 426.212 176.251 424.885 176.808C424.8 176.808 424.757 176.851 424.671 176.851ZM379.426 172.827C379.426 172.827 379.212 172.827 379.126 172.741C377.885 171.928 376.729 171.072 375.616 170.173C375.402 170.002 375.359 169.659 375.531 169.403C375.702 169.189 376.044 169.146 376.301 169.317C377.371 170.173 378.527 171.029 379.726 171.8C379.982 171.971 380.025 172.313 379.897 172.527C379.811 172.699 379.64 172.784 379.469 172.784L379.426 172.827ZM432.205 172.741C432.205 172.741 431.863 172.656 431.777 172.485C431.606 172.228 431.691 171.928 431.948 171.757C433.104 170.986 434.26 170.13 435.373 169.274C435.629 169.103 435.929 169.146 436.143 169.36C436.357 169.574 436.271 169.916 436.057 170.13C434.945 171.029 433.746 171.885 432.547 172.699C432.462 172.741 432.333 172.784 432.248 172.784L432.205 172.741ZM372.705 167.476C372.705 167.476 372.449 167.434 372.32 167.348C371.25 166.321 370.266 165.293 369.324 164.223C369.11 164.009 369.153 163.667 369.367 163.453C369.581 163.239 369.923 163.281 370.137 163.495C371.036 164.566 372.063 165.593 373.091 166.577C373.305 166.791 373.305 167.134 373.091 167.348C372.962 167.476 372.834 167.519 372.705 167.519V167.476ZM438.925 167.391C438.925 167.391 438.626 167.348 438.54 167.22C438.326 167.006 438.326 166.663 438.54 166.449C439.568 165.465 440.552 164.437 441.494 163.367C441.665 163.153 442.007 163.11 442.264 163.324C442.478 163.538 442.521 163.838 442.307 164.095C441.365 165.165 440.338 166.235 439.311 167.22C439.225 167.305 439.054 167.348 438.925 167.348V167.391ZM367.012 161.013C367.012 161.013 366.67 160.927 366.584 160.799C365.728 159.643 364.915 158.402 364.187 157.16C364.016 156.903 364.102 156.561 364.358 156.433C364.615 156.304 364.958 156.347 365.086 156.604C365.814 157.802 366.584 159.001 367.44 160.157C367.612 160.413 367.569 160.713 367.312 160.884C367.226 160.97 367.098 160.97 367.012 160.97V161.013ZM444.576 160.927C444.576 160.927 444.362 160.927 444.276 160.842C444.019 160.67 443.976 160.328 444.148 160.114C444.961 159.001 445.774 157.802 446.502 156.561C446.673 156.304 446.973 156.219 447.23 156.39C447.487 156.561 447.572 156.861 447.401 157.117C446.673 158.359 445.86 159.6 445.004 160.756C444.918 160.884 444.747 160.97 444.576 160.97V160.927ZM362.603 153.65C362.603 153.65 362.218 153.522 362.133 153.351C361.49 152.024 360.934 150.697 360.42 149.37C360.335 149.113 360.42 148.77 360.72 148.685C360.977 148.599 361.319 148.685 361.405 148.984C361.876 150.269 362.475 151.596 363.074 152.88C363.203 153.137 363.074 153.479 362.817 153.607C362.732 153.607 362.646 153.65 362.603 153.65ZM448.985 153.565C448.985 153.565 448.813 153.565 448.771 153.522C448.514 153.393 448.385 153.094 448.514 152.794C449.113 151.51 449.67 150.183 450.183 148.899C450.269 148.599 450.611 148.471 450.868 148.599C451.125 148.685 451.296 149.027 451.168 149.284C450.654 150.611 450.098 151.981 449.456 153.265C449.37 153.436 449.156 153.565 448.985 153.565ZM359.564 145.603C359.35 145.603 359.093 145.432 359.051 145.218C358.665 143.805 358.323 142.392 358.066 140.98C358.023 140.68 358.194 140.423 358.494 140.338C358.837 140.252 359.051 140.466 359.136 140.766C359.393 142.136 359.693 143.548 360.078 144.918C360.163 145.218 359.992 145.517 359.693 145.56C359.65 145.56 359.607 145.56 359.564 145.56V145.603ZM451.981 145.517C451.553 145.432 451.382 145.132 451.467 144.832C451.853 143.463 452.152 142.093 452.409 140.68C452.452 140.381 452.709 140.209 453.051 140.252C453.351 140.295 453.522 140.595 453.479 140.894C453.222 142.307 452.88 143.762 452.495 145.132C452.452 145.389 452.195 145.517 451.981 145.517ZM358.023 137.17C357.766 137.17 357.51 136.956 357.51 136.699C357.381 135.244 357.296 133.789 357.296 132.376C357.296 132.076 357.552 131.862 357.809 131.862C358.066 131.862 358.323 132.119 358.323 132.376C358.323 133.789 358.408 135.201 358.494 136.614C358.494 136.913 358.323 137.17 358.023 137.213C358.023 137.213 358.023 137.213 357.98 137.213L358.023 137.17ZM453.522 137.042C453.18 137.042 452.966 136.742 453.008 136.442C453.137 135.03 453.18 133.617 453.18 132.205C453.18 131.691 453.436 131.477 453.736 131.477C454.036 131.477 454.25 131.734 454.25 131.991C454.25 132.076 454.25 132.162 454.25 132.248C454.25 133.66 454.207 135.116 454.079 136.571C454.079 136.828 453.822 137.042 453.565 137.042H453.522ZM358.023 128.566C357.681 128.566 357.467 128.267 357.51 127.967C357.638 126.512 357.852 125.056 358.066 123.644C358.109 123.344 358.366 123.173 358.708 123.216C359.008 123.258 359.179 123.558 359.136 123.815C358.879 125.185 358.708 126.597 358.58 128.01C358.58 128.309 358.323 128.481 358.066 128.481L358.023 128.566ZM453.479 128.267C453.222 128.267 452.966 128.053 452.966 127.796C452.837 126.383 452.623 124.971 452.366 123.601C452.324 123.301 452.495 123.044 452.794 122.959C453.094 122.916 453.351 123.087 453.436 123.387C453.693 124.799 453.907 126.255 454.036 127.71C454.036 128.01 453.865 128.267 453.565 128.309C453.565 128.309 453.565 128.309 453.522 128.309L453.479 128.267ZM359.521 120.091C359.093 120.005 358.922 119.706 359.008 119.406C359.393 117.993 359.821 116.624 360.335 115.254C360.42 114.997 360.72 114.826 361.02 114.954C361.276 115.04 361.448 115.382 361.319 115.639C360.848 116.966 360.378 118.336 360.035 119.706C359.992 119.962 359.735 120.091 359.521 120.091ZM451.938 119.791C451.724 119.791 451.51 119.62 451.425 119.406C451.039 118.036 450.569 116.666 450.098 115.382C450.012 115.125 450.098 114.783 450.397 114.697C450.697 114.569 450.997 114.697 451.082 114.997C451.596 116.324 452.024 117.694 452.452 119.106C452.538 119.406 452.366 119.706 452.067 119.748C452.024 119.748 451.981 119.748 451.938 119.748V119.791ZM362.518 112.043C362.518 112.043 362.347 112.043 362.304 112.001C362.047 111.872 361.919 111.573 362.047 111.273C362.689 109.946 363.374 108.662 364.102 107.42C364.23 107.164 364.572 107.078 364.829 107.249C365.086 107.42 365.172 107.72 365.001 107.977C364.273 109.175 363.588 110.46 362.989 111.744C362.903 111.958 362.689 112.043 362.518 112.043ZM448.899 111.787C448.899 111.787 448.514 111.658 448.428 111.487C447.786 110.203 447.101 108.961 446.374 107.763C446.202 107.506 446.288 107.164 446.545 107.035C446.802 106.907 447.144 106.95 447.272 107.206C448 108.448 448.728 109.732 449.37 111.016C449.498 111.273 449.37 111.615 449.113 111.744C449.028 111.744 448.942 111.787 448.899 111.787ZM366.927 104.681C366.927 104.681 366.713 104.681 366.627 104.595C366.37 104.424 366.327 104.082 366.499 103.868C367.355 102.712 368.254 101.556 369.195 100.443C369.409 100.229 369.709 100.186 369.966 100.4C370.18 100.614 370.223 100.914 370.009 101.171C369.067 102.241 368.168 103.354 367.355 104.51C367.269 104.638 367.098 104.724 366.927 104.724V104.681ZM444.447 104.424C444.447 104.424 444.105 104.338 444.019 104.21C443.163 103.054 442.264 101.941 441.365 100.914C441.151 100.7 441.194 100.358 441.408 100.143C441.622 99.9295 441.965 99.9723 442.179 100.186C443.12 101.256 444.062 102.412 444.918 103.568C445.089 103.825 445.047 104.124 444.79 104.296C444.704 104.381 444.576 104.381 444.49 104.381L444.447 104.424ZM372.534 98.1744C372.534 98.1744 372.235 98.1316 372.149 98.0032C371.935 97.7892 371.935 97.4467 372.149 97.2327C373.176 96.2482 374.289 95.2637 375.402 94.3648C375.616 94.1935 375.959 94.2363 376.173 94.4504C376.344 94.6644 376.301 95.0068 376.087 95.2209C374.974 96.1198 373.904 97.0615 372.877 98.046C372.791 98.1316 372.62 98.1744 372.491 98.1744H372.534ZM438.797 98.0032C438.797 98.0032 438.54 97.9604 438.412 97.8748C437.384 96.8903 436.314 95.9486 435.201 95.0925C434.987 94.9212 434.945 94.5788 435.116 94.322C435.287 94.1079 435.629 94.0651 435.843 94.2363C436.956 95.1353 438.069 96.077 439.139 97.1043C439.354 97.3183 439.354 97.6608 439.139 97.8748C439.054 98.0032 438.883 98.046 438.754 98.046L438.797 98.0032ZM379.255 92.8238C379.255 92.8238 378.912 92.7382 378.827 92.5669C378.655 92.3101 378.741 91.9677 378.998 91.8392C380.196 91.0259 381.438 90.2982 382.722 89.6134C382.979 89.4849 383.321 89.5706 383.45 89.8274C383.578 90.0842 383.492 90.4267 383.236 90.5551C381.994 91.24 380.753 91.9677 379.597 92.7382C379.512 92.781 379.383 92.8238 379.298 92.8238H379.255ZM432.034 92.6525C432.034 92.6525 431.82 92.6525 431.734 92.5669C430.536 91.7964 429.294 91.0687 428.096 90.3839C427.839 90.2554 427.753 89.913 427.882 89.6562C428.01 89.3993 428.353 89.3137 428.609 89.4421C429.851 90.127 431.135 90.8547 432.333 91.668C432.59 91.8392 432.633 92.1817 432.505 92.3957C432.419 92.5669 432.248 92.6525 432.077 92.6525H432.034ZM386.788 88.7144C386.788 88.7144 386.403 88.586 386.275 88.372C386.146 88.1152 386.275 87.7727 386.574 87.6871C387.901 87.1307 389.271 86.617 390.641 86.1461C390.941 86.0605 391.24 86.1889 391.326 86.4886C391.411 86.7882 391.283 87.0878 390.983 87.1735C389.614 87.6015 388.287 88.1152 387.002 88.6716C386.917 88.6716 386.874 88.7144 386.788 88.7144ZM424.457 88.586C424.457 88.586 424.329 88.586 424.243 88.586C422.959 88.0296 421.589 87.5587 420.262 87.0878C419.963 87.0022 419.834 86.7026 419.92 86.403C420.005 86.1033 420.305 85.9749 420.605 86.0605C421.975 86.4886 423.344 87.0022 424.671 87.5587C424.928 87.6871 425.056 87.9868 424.971 88.2436C424.885 88.4576 424.671 88.586 424.457 88.586ZM394.964 86.0605C394.707 86.0605 394.493 85.8893 394.451 85.6325C394.365 85.3328 394.579 85.076 394.836 84.9904C396.248 84.6479 397.661 84.3911 399.116 84.2199C399.373 84.1771 399.673 84.3911 399.716 84.6907C399.716 84.9904 399.544 85.2472 399.245 85.29C397.832 85.504 396.42 85.7609 395.05 86.0605C395.05 86.0605 394.964 86.0605 394.921 86.0605H394.964ZM416.281 85.9749C414.783 85.6753 413.371 85.4184 411.958 85.2044C411.658 85.2044 411.444 84.9048 411.487 84.6051C411.487 84.3055 411.744 84.0915 412.086 84.1343C413.542 84.3055 414.954 84.5623 416.367 84.9048C416.667 84.9904 416.838 85.2472 416.752 85.5469C416.709 85.8037 416.495 85.9749 416.239 85.9749H416.281ZM403.483 84.862C403.183 84.862 402.969 84.6479 402.969 84.3483C402.969 84.0487 403.183 83.7918 403.483 83.7918C404.21 83.7918 404.938 83.749 405.708 83.749C406.479 83.749 407.121 83.749 407.849 83.749C408.148 83.749 408.362 84.0059 408.362 84.3055C408.362 84.6051 408.148 84.862 407.806 84.8192C407.121 84.8192 406.436 84.7764 405.708 84.8192C404.981 84.8192 404.253 84.8192 403.525 84.862H403.483Z" fill="black"/>
<path d="M405.751 122.273C396.676 122.273 389.314 114.911 389.314 105.836C389.314 96.7615 396.676 89.3989 405.751 89.3989C414.826 89.3989 422.188 96.7615 422.188 105.836C422.188 114.911 414.826 122.273 405.751 122.273ZM405.751 90.4691C397.276 90.4691 390.384 97.3607 390.384 105.836C390.384 114.312 397.276 121.203 405.751 121.203C414.227 121.203 421.118 114.312 421.118 105.836C421.118 97.3607 414.227 90.4691 405.751 90.4691Z" fill="black"/>
<path d="M400.358 138.155L398.517 134.003L439.867 118.079L440.167 118.764L400.358 138.155Z" fill="black"/>
<path d="M407.079 139.311C410.412 139.311 413.114 136.609 413.114 133.275C413.114 129.942 410.412 127.24 407.079 127.24C403.745 127.24 401.043 129.942 401.043 133.275C401.043 136.609 403.745 139.311 407.079 139.311Z" fill="#FF6F80"/>
<path d="M403.097 107.293L402.37 105.666L418.55 99.4165L418.678 99.7161L403.097 107.293Z" fill="black"/>
<path d="M408.063 105.407C408.063 106.691 406.993 107.761 405.708 107.761C404.424 107.761 403.354 106.691 403.354 105.407C403.354 104.123 404.424 103.053 405.708 103.053C406.993 103.053 408.063 104.123 408.063 105.407Z" fill="#FF6F80"/>
<path d="M362.175 130.021H357.895C357.595 130.021 357.381 129.764 357.381 129.507C357.381 129.25 357.638 128.994 357.895 128.994H362.175C362.475 128.994 362.689 129.25 362.689 129.507C362.689 129.764 362.432 130.021 362.175 130.021Z" fill="black"/>
<path d="M454.592 130.021H450.312C450.012 130.021 449.798 129.764 449.798 129.507C449.798 129.25 450.055 128.994 450.312 128.994H454.592C454.892 128.994 455.106 129.25 455.106 129.507C455.106 129.764 454.849 130.021 454.592 130.021Z" fill="black"/>
<path d="M371.165 163.323C371.165 163.323 370.865 163.281 370.78 163.152C370.566 162.938 370.608 162.596 370.78 162.382L373.904 159.428C374.118 159.214 374.461 159.257 374.675 159.428C374.889 159.642 374.846 159.985 374.675 160.199L371.55 163.152C371.55 163.152 371.336 163.281 371.165 163.281V163.323Z" fill="black"/>
<path d="M438.326 99.8869C438.326 99.8869 438.027 99.8441 437.941 99.7157C437.727 99.5016 437.77 99.1592 437.941 98.9452L441.066 95.9916C441.28 95.7776 441.622 95.8204 441.836 95.9916C442.05 96.2056 442.007 96.5481 441.836 96.7621L438.711 99.7157C438.711 99.7157 438.497 99.8441 438.326 99.8441V99.8869Z" fill="black"/>
<path d="M441.708 163.323C441.708 163.323 441.451 163.28 441.323 163.195L438.198 160.241C438.198 160.241 437.984 159.685 438.198 159.471C438.412 159.257 438.754 159.257 438.968 159.471L442.093 162.424C442.093 162.424 442.307 162.981 442.093 163.195C442.008 163.323 441.836 163.366 441.708 163.366V163.323Z" fill="black"/>
<path d="M374.546 99.8865C374.546 99.8865 374.29 99.8437 374.161 99.7581L371.036 96.8046C371.036 96.8046 370.822 96.2481 371.036 96.0341C371.25 95.82 371.593 95.82 371.807 96.0341L374.932 98.9876C374.932 98.9876 375.146 99.5441 374.932 99.7581C374.846 99.8865 374.675 99.9293 374.546 99.9293V99.8865Z" fill="black"/>
<path d="M406.436 89.5711C406.137 89.5711 405.922 89.3142 405.922 89.0574V84.7768C405.922 84.4772 406.179 84.2632 406.436 84.2632C406.693 84.2632 406.95 84.52 406.95 84.7768V89.0574C406.95 89.357 406.693 89.5711 406.436 89.5711Z" fill="black"/>
<path d="M406.436 181.946C406.137 181.946 405.922 181.689 405.922 181.432V177.151C405.922 176.852 406.179 176.638 406.436 176.638C406.693 176.638 406.95 176.895 406.95 177.151V181.432C406.95 181.732 406.693 181.946 406.436 181.946Z" fill="black"/>
<path d="M349.334 149.24C361.234 146.928 381.824 142.99 390.213 152.579C391.198 153.691 393.424 156.26 393.167 159.556C392.14 171.927 357.382 178.775 352.844 179.632C348.35 180.488 344.198 181.001 340.388 181.301C329.473 182.2 319.585 175.009 320.483 165.549C320.612 164.05 321.04 162.552 321.768 161.097C325.363 153.82 334.994 151.979 349.334 149.24Z" fill="#EF959A"/>
<path d="M366.242 170C366.242 170 366.028 170 365.943 169.914C365.814 169.829 365.729 169.7 365.729 169.572L363.118 153.263C363.118 153.263 363.118 152.964 363.203 152.835C363.289 152.707 363.417 152.664 363.546 152.621L382.209 150.438C382.209 150.438 382.423 150.438 382.508 150.481C386.232 152.493 388.501 156.131 388.33 159.812C388.202 162.209 387.089 164.093 386.19 165.206C386.104 165.291 386.018 165.377 385.89 165.377L366.285 169.957C366.285 169.957 366.2 169.957 366.157 169.957L366.242 170ZM364.273 153.606L366.713 168.802L385.548 164.393C386.318 163.365 387.217 161.781 387.303 159.77C387.474 156.559 385.462 153.306 382.166 151.508L364.23 153.606H364.273Z" fill="black"/>
<path d="M365.301 174.11C377.2 171.799 397.79 167.861 406.18 177.449C407.164 178.562 409.39 181.13 409.133 184.426C408.106 196.797 373.348 203.646 368.811 204.502C364.316 205.358 360.164 205.872 356.354 206.172C345.439 207.07 335.551 199.879 336.45 190.419C336.578 188.921 337.006 187.423 337.734 185.967C341.33 178.69 350.961 176.85 365.301 174.11Z" fill="#EF959A"/>
<path d="M382.209 194.87C382.209 194.87 381.995 194.87 381.909 194.785C381.781 194.699 381.695 194.571 381.695 194.442L379.084 178.133C379.084 178.133 379.084 177.834 379.169 177.705C379.255 177.577 379.384 177.534 379.512 177.491L398.175 175.308C398.175 175.308 398.389 175.308 398.475 175.351C402.199 177.363 404.467 181.001 404.296 184.682C404.168 187.08 403.055 188.963 402.156 190.076C402.07 190.162 401.985 190.247 401.856 190.247L382.251 194.827C382.251 194.827 382.166 194.827 382.123 194.827L382.209 194.87ZM380.197 178.476L382.637 193.672L401.471 189.263C402.242 188.235 403.14 186.652 403.269 184.64C403.44 181.429 401.428 178.176 398.132 176.378L380.197 178.476Z" fill="black"/>
<path d="M388.63 197.911C397.148 194.144 411.873 187.637 419.92 193.759C420.862 194.486 423.002 196.113 423.388 198.724C424.843 208.569 400.016 219.699 396.806 221.111C393.595 222.524 390.556 223.637 387.774 224.493C379.769 226.976 371.037 222.995 370.009 215.461C369.838 214.262 369.881 213.021 370.138 211.78C371.55 205.487 378.399 202.448 388.63 197.954V197.911Z" fill="#EF959A"/>
<path d="M404.939 211.438C404.596 211.353 404.511 211.224 404.425 211.096L399.502 198.768C399.502 198.768 399.459 198.468 399.502 198.34C399.545 198.212 399.674 198.126 399.802 198.04L413.414 193.246C413.414 193.246 413.628 193.246 413.756 193.246C416.924 194.188 419.364 196.713 419.878 199.667C420.22 201.593 419.749 203.263 419.236 204.29C419.193 204.418 419.107 204.504 418.979 204.547L405.11 211.353C405.11 211.353 404.939 211.396 404.896 211.396L404.939 211.438ZM400.744 198.896L405.238 210.154L418.422 203.691C418.808 202.792 419.193 201.422 418.893 199.881C418.422 197.398 416.41 195.215 413.671 194.359L400.744 198.896Z" fill="black"/>
<path d="M370.48 209.211C370.48 209.211 370.266 209.211 370.181 209.125C369.924 208.954 369.881 208.611 370.052 208.397C371.251 206.728 372.706 205.273 374.376 204.117C376.173 202.875 403.868 191.746 404.082 191.66C404.339 191.575 404.682 191.746 404.767 192.003C404.853 192.303 404.725 192.602 404.425 192.688C403.012 193.159 376.43 204.031 375.018 204.973C373.434 206.043 372.064 207.413 370.951 208.997C370.865 209.125 370.694 209.211 370.523 209.211H370.48Z" fill="black"/>
<path d="M327.631 102.241C333.624 110.931 339.874 116.11 344.754 119.235C351.817 123.815 358.195 125.698 360.977 132.419C361.448 133.617 363.374 138.626 361.448 142.35C358.195 148.514 344.839 150.055 328.53 144.19L327.631 102.198V102.241Z" fill="#EF959A"/>
<path d="M350.961 145.089C350.961 145.089 350.832 145.089 350.747 145.089L332.255 137.213C332.255 137.213 331.998 137.042 331.955 136.914C331.912 136.785 331.955 136.614 331.955 136.485L339.489 121.76C339.489 121.76 339.66 121.546 339.831 121.504C339.96 121.461 340.131 121.504 340.259 121.546L356.611 130.835C356.611 130.835 356.782 130.964 356.825 131.092C358.623 134.902 358.323 139.225 356.012 142.093C354.514 143.976 352.502 144.833 351.089 145.175C351.046 145.175 351.004 145.175 350.961 145.175V145.089ZM333.197 136.4L351.004 143.976C352.245 143.634 353.914 142.863 355.156 141.28C357.168 138.797 357.467 134.987 355.883 131.563L340.174 122.659L333.154 136.357L333.197 136.4Z" fill="black"/>
<path d="M342.229 181.516C342.229 181.516 341.8 181.387 341.715 181.173C341.586 180.916 341.715 180.574 342.015 180.488C349.505 177.577 357.296 175.266 365.129 173.597C369.881 172.569 374.761 171.799 379.598 171.242C379.897 171.199 380.154 171.413 380.197 171.713C380.197 172.013 380.026 172.27 379.726 172.312C374.932 172.869 370.095 173.639 365.386 174.624C357.596 176.293 349.848 178.562 342.4 181.473C342.357 181.473 342.271 181.473 342.229 181.473V181.516Z" fill="black"/>
<path d="M328.188 155.49C328.188 155.49 327.76 155.362 327.674 155.148C327.546 154.891 327.674 154.549 327.974 154.463C331.527 153.008 335.251 151.766 338.975 150.782C342.571 149.84 346.295 149.155 349.976 148.684C350.318 148.641 350.532 148.855 350.575 149.155C350.575 149.455 350.404 149.711 350.104 149.754C346.466 150.225 342.785 150.91 339.232 151.852C335.551 152.793 331.912 154.035 328.359 155.447C328.316 155.447 328.231 155.447 328.145 155.447L328.188 155.49Z" fill="black"/>
<path d="M343.042 149.113C341.8 149.113 340.516 149.027 339.275 148.899C335.166 148.385 331.27 147.144 327.675 145.089C327.418 144.961 327.332 144.618 327.461 144.361C327.589 144.105 327.931 144.019 328.188 144.147C331.656 146.116 335.465 147.358 339.403 147.829C342.785 148.257 346.209 148.085 349.548 147.358C349.848 147.272 350.105 147.486 350.19 147.786C350.233 148.085 350.062 148.342 349.762 148.428C347.536 148.899 345.31 149.156 343.042 149.156V149.113Z" fill="black"/>
<path d="M361.748 206.172C361.491 206.172 361.277 206.001 361.234 205.744C361.191 205.444 361.362 205.187 361.662 205.102L379.683 201.677C379.983 201.592 380.24 201.806 380.325 202.105C380.368 202.405 380.197 202.662 379.897 202.747L361.876 206.172H361.79H361.748Z" fill="black"/>
<path d="M348.991 122.317C348.991 122.317 348.82 122.317 348.735 122.231L320.226 105.837C319.969 105.708 319.884 105.366 320.012 105.109C320.141 104.852 320.483 104.767 320.74 104.895L349.248 121.289C349.505 121.418 349.591 121.76 349.462 122.017C349.377 122.188 349.163 122.274 348.991 122.274V122.317Z" fill="black"/>
<path d="M322.623 107.163C322.367 107.163 322.153 106.991 322.11 106.777L320.184 99.586C320.098 99.2864 320.269 98.9867 320.569 98.9439C320.826 98.8583 321.125 99.0295 321.211 99.3292L323.137 106.52C323.223 106.82 323.051 107.12 322.752 107.163C322.709 107.163 322.666 107.163 322.623 107.163Z" fill="black"/>
<path d="M386.96 37.905C384.948 37.905 382.936 37.6481 380.967 37.1773C373.476 35.3367 368.725 30.414 366.584 27.6745C366.413 27.4605 366.456 27.118 366.67 26.904C366.884 26.7328 367.226 26.7756 367.441 26.9896C369.495 29.6435 374.075 34.3521 381.267 36.1072C384.092 36.792 387.045 36.9633 389.999 36.6208C390.341 36.6208 390.555 36.792 390.598 37.0917C390.598 37.3913 390.427 37.6481 390.127 37.691C389.057 37.8194 388.03 37.8622 386.96 37.8622V37.905Z" fill="black"/>
<path d="M509.812 229.886C533.996 229.886 553.602 210.28 553.602 186.096C553.602 161.911 533.996 142.306 509.812 142.306C485.627 142.306 466.022 161.911 466.022 186.096C466.022 210.28 485.627 229.886 509.812 229.886Z" fill="white"/>
<path d="M509.812 232.025C484.471 232.025 463.882 211.436 463.882 186.095C463.882 160.754 484.514 140.165 509.812 140.165C535.11 140.165 555.742 160.754 555.742 186.095C555.742 211.436 535.153 232.025 509.812 232.025ZM509.812 144.446C486.825 144.446 468.162 163.152 468.162 186.095C468.162 209.039 486.868 227.745 509.812 227.745C532.755 227.745 551.461 209.039 551.461 186.095C551.461 163.152 532.755 144.446 509.812 144.446Z" fill="#FF6F80"/>
<path d="M509.812 219.228C491.534 219.228 476.68 204.375 476.68 186.097C476.68 167.819 491.534 152.965 509.812 152.965C528.09 152.965 542.943 167.819 542.943 186.097C542.943 204.375 528.09 219.228 509.812 219.228ZM509.812 157.246C493.931 157.246 480.961 170.173 480.961 186.097C480.961 202.02 493.888 214.948 509.812 214.948C525.735 214.948 538.663 202.02 538.663 186.097C538.663 170.173 525.735 157.246 509.812 157.246Z" fill="#FF6F80"/>
<path d="M509.812 204.544C499.624 204.544 491.363 196.283 491.363 186.095C491.363 175.907 499.624 167.646 509.812 167.646C520 167.646 528.261 175.907 528.261 186.095C528.261 196.283 520 204.544 509.812 204.544ZM509.812 171.927C501.979 171.927 495.643 178.262 495.643 186.095C495.643 193.929 502.021 200.264 509.812 200.264C517.603 200.264 523.981 193.929 523.981 186.095C523.981 178.262 517.603 171.927 509.812 171.927Z" fill="#FF6F80"/>
<path d="M509.812 193.159C513.712 193.159 516.874 189.996 516.874 186.096C516.874 182.195 513.712 179.033 509.812 179.033C505.911 179.033 502.749 182.195 502.749 186.096C502.749 189.996 505.911 193.159 509.812 193.159Z" fill="#FF6F80"/>
<path d="M508.742 186.139C508.442 186.139 508.142 186.011 507.928 185.797L470.731 144.618C470.345 144.19 470.388 143.505 470.816 143.12C471.244 142.734 471.929 142.777 472.314 143.205L509.512 184.384C509.897 184.812 509.855 185.497 509.427 185.882C509.213 186.053 508.956 186.139 508.699 186.139H508.742Z" fill="black"/>
<path d="M472.185 145.687C471.629 145.687 471.158 145.259 471.115 144.66L470.559 133.702C470.559 133.103 470.987 132.589 471.586 132.589C472.228 132.589 472.656 133.017 472.699 133.616L473.256 144.574C473.256 145.174 472.828 145.687 472.228 145.687C472.228 145.687 472.228 145.687 472.185 145.687Z" fill="black"/>
<path d="M472.186 145.687C472.186 145.687 472.015 145.687 471.972 145.687L459.644 142.99C459.087 142.862 458.702 142.305 458.831 141.706C458.959 141.107 459.558 140.764 460.115 140.893L472.443 143.589C472.999 143.718 473.384 144.274 473.256 144.873C473.128 145.387 472.7 145.73 472.229 145.73L472.186 145.687Z" fill="black"/>
<path d="M476.081 149.84C475.525 149.84 475.054 149.412 475.011 148.813L474.455 137.855C474.455 137.255 474.883 136.742 475.482 136.742C476.124 136.742 476.552 137.17 476.595 137.769L477.152 148.727C477.152 149.326 476.724 149.84 476.124 149.84C476.124 149.84 476.124 149.84 476.081 149.84Z" fill="black"/>
<path d="M476.081 149.84C476.081 149.84 475.91 149.84 475.867 149.84L463.539 147.143C462.983 147.014 462.598 146.458 462.726 145.859C462.855 145.259 463.411 144.917 464.01 145.045L476.338 147.742C476.895 147.871 477.28 148.427 477.152 149.026C477.023 149.54 476.595 149.882 476.124 149.882L476.081 149.84Z" fill="black"/>
</g>
<rect y="300.148" width="260" height="260" rx="30" fill="white"/>
<path d="M78.7029 396.583C133.924 363.299 204.796 348.491 214.204 365.914C220.785 378.106 193.744 399.579 201.464 410.716C210.154 423.203 250.399 404.683 255.673 414.048C259.132 420.207 246.054 435.647 228.589 449.991C149.955 514.451 12.2601 531.916 4.0338 508.292C-2.46282 489.561 73.3452 447.839 66.8064 436.955C63.0519 430.712 36.981 442.186 34.1123 436.576C31.2015 430.965 53.5601 411.728 78.7029 396.583Z" fill="#F4F9FF"/>
<path d="M107.052 378.105L104.901 367.896C109.161 366.377 113.38 364.817 117.641 363.298C118.864 362.834 120.088 362.412 121.353 361.948C124.264 360.893 127.133 359.839 130.043 358.826C137.721 359.501 145.357 360.176 153.035 360.851C153.035 361.315 152.908 361.99 152.613 362.792C151.179 366.841 146.369 370.301 125.825 374.688C121.1 375.701 114.688 376.924 107.01 378.063L107.052 378.105Z" fill="#EF959A"/>
<path d="M123.547 376.333C122.155 371.313 120.72 366.251 119.328 361.231C125.614 360.049 129.875 358.278 132.743 356.759C134.557 355.789 138.354 353.595 143.416 353.722C143.965 353.722 144.429 353.764 144.766 353.806C147.551 356.168 150.335 358.531 153.077 360.893C153.246 361.61 153.288 362.285 153.204 362.834C152.613 368.234 144.218 370.849 143.712 370.976C137.004 372.747 130.254 374.519 123.547 376.333Z" fill="#26303C"/>
<path d="M205.218 362.413C206.568 364.522 207.96 366.631 209.31 368.698C205.809 372.158 203.109 375.153 201.295 377.304C193.786 386.121 191.676 390.044 186.235 392.322C184.083 393.208 180.793 394.094 176.11 393.63C175.266 390.804 174.422 388.019 173.579 385.193C176.194 382.535 178.557 380.679 180.075 379.54C188.555 373.339 194.461 372.959 201.59 366.294C203.278 364.691 204.501 363.256 205.176 362.413H205.218Z" fill="#EF959A"/>
<path d="M92.0758 408.774C89.9243 407.466 87.8151 406.158 85.6636 404.85C87.351 400.21 88.49 396.371 89.2072 393.629C92.2024 382.45 92.4133 378.02 96.3366 373.591C97.8975 371.819 100.513 369.541 104.943 367.896C106.883 370.131 108.824 372.367 110.806 374.603C109.583 378.147 108.275 380.847 107.389 382.492C102.411 391.731 97.2225 394.599 93.6789 403.711C92.8352 405.863 92.3711 407.719 92.118 408.774H92.0758Z" fill="#EF959A"/>
<path d="M94.3536 416.748C94.0583 416.959 93.5943 416.706 93.3411 416.579C93.1724 416.453 92.6662 416.115 92.1599 414.512C91.949 413.922 91.7381 413.036 91.6537 411.897C91.3584 411.137 90.9365 410.969 90.6834 410.926C90.3459 410.926 89.2491 411.18 85.9586 418.225C85.9586 418.225 84.904 420.46 83.8493 422.57C83.7649 422.865 82.7103 426.493 81.5291 426.409C81.4025 426.409 81.2338 426.324 81.065 426.198C80.8963 425.185 81.1916 424.257 81.6556 423.16C82.1197 422.064 82.7525 420.798 83.3431 419.111C83.5962 418.309 83.9337 417.128 84.229 415.609C84.1024 415.525 83.8915 415.44 83.6384 415.44C82.5415 415.567 81.8244 417.845 79.8416 421.093C78.9979 422.528 77.1417 425.523 76.3402 425.227C76.0449 425.143 75.9605 424.679 75.9184 424.51C75.4543 422.739 77.0574 421.051 78.3651 419.237C79.2932 417.972 80.5588 416.073 81.74 413.5C80.4323 414.892 79.1245 416.368 77.8167 417.887C76.7199 419.153 75.6652 420.376 74.6528 421.642C74.1887 421.515 74.02 421.262 73.9356 421.135C73.5559 420.503 73.9356 419.321 75.1168 418.351C76.9308 416.031 78.7026 413.753 80.5166 411.433C80.2635 411.053 80.0104 410.673 79.7573 410.294C78.0277 411.644 76.7621 412.951 75.834 413.922C74.9059 414.892 74.02 415.904 73.5559 415.693C73.2185 415.525 73.3028 414.765 73.345 414.681C73.4294 413.795 73.9778 412.994 74.9903 411.981C77.3527 409.998 79.0401 408.48 79.3776 408.184C79.7151 407.847 80.0104 407.509 80.0104 407.509C80.0526 407.425 80.1791 407.341 80.2635 407.214C80.3057 407.13 80.5588 406.877 80.7697 406.539C81.065 406.117 81.1072 405.949 81.3603 405.569C81.3603 405.569 81.6135 405.189 82.0353 404.599C85.6211 400 92.5818 401.477 91.9068 402.405C92.2443 404.472 94.1005 410.589 94.1005 410.589C95.2395 414.47 94.6489 416.537 94.3114 416.79L94.3536 416.748Z" fill="#EF959A"/>
<path d="M199.945 356.549C200.241 356.296 200.747 356.549 200.958 356.675C201.127 356.802 201.675 357.097 202.266 358.658C202.519 359.249 202.772 360.093 202.941 361.232C203.32 361.991 203.7 362.117 203.953 362.117C204.29 362.117 205.387 361.738 208.172 354.524C208.172 354.524 209.058 352.246 209.986 350.052C210.07 349.757 210.871 346.045 212.011 346.087C212.137 346.087 212.306 346.129 212.475 346.298C212.685 347.31 212.475 348.238 212.095 349.377C211.715 350.516 211.125 351.824 210.703 353.554C210.492 354.355 210.239 355.579 210.07 357.097C210.197 357.182 210.407 357.266 210.661 357.224C211.715 357.013 212.306 354.735 214.078 351.318C214.795 349.841 216.44 346.72 217.326 346.931C217.621 346.973 217.706 347.437 217.79 347.605C218.338 349.377 216.904 351.149 215.681 353.005C214.837 354.355 213.74 356.296 212.685 358.996C213.867 357.519 215.09 355.958 216.313 354.355C217.326 353.005 218.296 351.698 219.224 350.39C219.688 350.516 219.899 350.727 219.984 350.854C220.406 351.487 220.11 352.668 219.013 353.722C217.368 356.127 215.723 358.574 214.12 360.978C214.415 361.358 214.668 361.696 214.921 362.075C216.524 360.599 217.748 359.207 218.592 358.194C219.435 357.182 220.279 356.085 220.743 356.296C221.08 356.465 221.038 357.224 221.038 357.266C221.038 358.152 220.49 358.996 219.562 360.05C217.326 362.202 215.765 363.805 215.428 364.142C215.132 364.48 214.837 364.817 214.837 364.817C214.795 364.902 214.71 364.986 214.584 365.113C214.542 365.197 214.331 365.492 214.12 365.83C213.867 366.252 213.825 366.42 213.614 366.842C213.614 366.842 213.403 367.264 212.981 367.855C209.732 372.706 202.645 371.694 203.278 370.723C202.772 368.698 200.536 362.666 200.536 362.666C199.102 358.869 199.608 356.76 199.903 356.465L199.945 356.549Z" fill="#EF959A"/>
<path d="M163.581 350.558C162.526 352.541 161.514 354.523 160.459 356.506C158.814 359.67 157.126 362.834 155.481 365.998L141.391 358.826C145.652 352.625 149.913 346.424 154.173 340.18C155.565 342.205 157.295 344.441 159.489 346.677C160.923 348.153 162.315 349.461 163.665 350.558H163.581Z" fill="#EF959A"/>
<path d="M163.581 350.557C162.526 352.54 161.514 354.522 160.459 356.505C157.844 355.071 157.337 350.768 159.362 346.76C160.797 347.941 162.189 349.249 163.581 350.557Z" fill="#26303C"/>
<path d="M158.772 388.397C158.055 389.494 157.084 390.718 155.819 391.899C152.697 397.678 149.575 403.458 146.496 409.237C144.302 413.287 142.108 417.337 139.915 421.387C136.329 427.968 132.701 434.591 129.115 441.13C126.289 434.717 123.462 428.305 120.636 421.893C119.244 418.729 117.851 415.565 116.459 412.401C119.665 402.783 122.872 393.164 126.12 383.546C126.289 382.027 127.765 370.004 133.924 362.326C137.088 358.361 140.885 355.914 140.885 355.914C142.277 355.028 143.585 354.353 144.682 353.847C145.146 353.636 145.568 353.467 145.905 353.341C149.153 355.83 152.444 358.277 155.692 360.723C155.861 360.976 156.367 361.778 157.042 362.917C158.055 365.617 158.941 368.739 159.447 372.367C160.333 378.779 159.7 384.305 158.814 388.439L158.772 388.397Z" fill="#EF959A"/>
<path d="M135.316 408.86C143.753 413.036 147.845 422.064 144.386 429.067C140.927 436.069 131.309 438.347 122.829 434.171C114.35 429.995 110.3 420.967 113.759 413.964C117.218 406.961 126.837 404.683 135.316 408.86Z" fill="#EF959A"/>
<path d="M190.2 452.73C189.441 454.544 185.981 455.43 180.877 454.966C177.586 454.713 173.579 453.912 169.234 452.477C167.673 451.718 166.154 450.959 164.593 450.199C151.937 443.998 139.324 437.754 126.668 431.553C129.79 422.905 132.912 414.299 136.033 405.651C140.885 407.634 146.369 410.291 152.106 413.961C165.015 422.23 173.579 432.059 178.81 439.231C180.075 440.075 181.341 440.918 182.438 441.804C182.818 442.099 183.155 442.395 183.535 442.69C188.344 446.656 191.086 450.579 190.158 452.688L190.2 452.73Z" fill="#EF959A"/>
<path d="M133.587 431.259C127.512 438.473 117.767 440.203 111.777 435.183C105.828 430.162 105.955 420.249 112.03 413.035C118.105 405.821 127.849 404.092 133.84 409.112C139.788 414.132 139.661 424.046 133.587 431.259Z" fill="#EF959A"/>
<path d="M77.7748 473.909C76.2139 472.728 76.2139 469.185 77.8592 464.333C78.9138 461.212 80.6856 457.499 83.0902 453.618C84.2293 452.31 85.2839 451.003 86.4229 449.695C95.4929 438.895 104.605 428.18 113.717 417.38C121.353 422.485 128.946 427.589 136.582 432.736C133.502 436.955 129.579 441.637 124.643 446.32C113.506 456.866 101.905 462.772 93.6367 466.147C92.4977 467.16 91.3587 468.172 90.2619 469.016C89.8822 469.311 89.5025 469.564 89.1228 469.86C84.1027 473.53 79.6732 475.259 77.817 473.867L77.7748 473.909Z" fill="#EF959A"/>
<path d="M163.454 351.654C160.881 350.895 156.114 348.828 151.389 342.626C151.136 342.289 147.213 336.973 149.533 330.772C151.01 326.807 154.342 324.36 157.38 323.39C163.75 321.365 170.71 325.077 172.103 328.663C172.356 329.253 172.44 329.844 172.524 330.308C172.904 334.4 173.073 336.256 173.073 336.341C173.073 336.341 173.115 336.509 173.073 336.678C173.073 336.805 172.988 336.889 172.988 336.931C172.778 337.437 172.567 337.944 172.356 338.45C172.06 341.951 171.976 343.428 172.018 343.85C172.06 344.736 172.103 345.115 171.934 345.411C171.892 345.495 171.849 345.579 171.849 345.664C171.892 345.832 172.145 345.832 172.187 345.959C172.271 346.17 171.892 346.55 171.849 346.592C171.765 346.676 171.217 347.182 170.71 347.014C170.499 346.929 170.373 346.803 170.373 346.803C170.373 346.803 171.259 347.267 171.217 347.646C171.217 347.815 171.006 347.942 170.964 347.984C170.837 348.11 170.71 348.11 170.626 348.153C170.204 348.364 170.795 350.684 170.373 351.528C169.782 352.793 166.365 352.54 163.37 351.654H163.454Z" fill="#EF959A"/>
<path d="M174.381 343.007C174.296 343.555 173.664 343.935 173.453 344.061C172.82 344.399 172.187 344.356 171.892 344.314C171.723 344.188 171.47 343.892 171.47 343.513C171.47 343.217 171.681 343.049 171.765 342.669C171.85 342.416 171.85 342.078 171.681 341.572C171.892 340.391 172.103 339.21 172.272 338.071C172.567 338.83 172.82 339.421 172.946 339.843C173.453 341.235 173.453 341.277 173.621 341.614C174.043 342.416 174.339 342.585 174.296 343.007H174.381Z" fill="#EF959A"/>
<path d="M145.399 512.171C139.113 504.915 132.785 497.617 126.499 490.361C127.132 489.433 128.229 488.21 129.959 487.577C130.633 487.324 131.14 487.281 131.393 487.239C132.827 487.028 134.979 486.353 138.016 484.371C139.324 485.552 140.589 486.733 141.897 487.956C139.45 498.756 140.547 502.764 142.108 504.367C143.205 505.506 143.542 507.193 144.513 508.374C145.145 509.134 146.031 510.02 145.905 511.074C145.82 511.581 145.567 511.918 145.356 512.171H145.399Z" fill="#EF959A"/>
<path d="M183.577 442.775C185.686 446.192 187.795 449.652 189.905 453.069C189.398 453.575 188.892 454.081 188.302 454.587C185.433 457.076 182.438 458.637 179.864 459.607C177.207 461.168 174.507 462.814 171.765 464.585C159.657 472.474 149.659 481.207 141.56 489.686L140.758 490.488C140.336 490.952 139.872 491.458 139.408 491.922C139.028 491.5 138.649 491.036 138.227 490.614C137.004 489.222 135.78 487.83 134.557 486.438C134.557 486.353 134.641 486.311 134.683 486.227C139.197 478.591 143.542 472.432 146.959 467.918C156.873 454.756 161.978 451.423 164.593 450.242C164.973 450.073 165.31 449.947 165.606 449.82C167.462 449.145 169.571 448.723 173.157 447.12C177.038 445.391 180.16 443.45 182.438 441.847C182.817 442.142 183.155 442.438 183.535 442.733L183.577 442.775Z" fill="#EF959A"/>
<path d="M145.61 512.888L126.162 490.276C126.837 489.601 127.638 488.884 128.651 488.209C130.634 486.901 132.49 486.226 133.882 485.889C132.616 489.939 133.038 491.162 133.587 491.542C134.599 492.259 136.371 490.487 139.746 490.403C141.391 490.403 142.699 490.74 143.5 491.035C143.078 492.048 142.657 493.06 142.193 494.031C142.952 496.773 143.669 498.966 144.175 500.401C146.116 506.138 147.677 509.217 146.242 511.875C146.031 512.297 145.778 512.592 145.61 512.803V512.888Z" fill="#26303C"/>
<path d="M47.4428 533.307C47.3584 533.813 47.1475 534.193 46.8944 534.404C40.6087 527.148 34.323 519.849 27.9951 512.593C28.3326 512.129 28.7123 511.581 29.3029 511.075C29.556 510.864 29.8513 510.653 30.1466 510.484C30.231 510.4 30.3575 510.358 30.4419 510.315C30.7372 510.104 31.0747 509.936 31.4544 509.809C32.1293 509.556 32.6356 509.514 32.8887 509.472C33.4793 509.387 34.2808 509.219 35.1667 508.839C36.3479 508.417 37.7822 507.742 39.5541 506.603C40.8196 507.784 42.1274 508.965 43.393 510.147C43.182 511.075 42.9711 511.961 42.8446 512.804C41.368 520.693 42.0008 524.321 43.2242 526.051C43.1399 526.894 43.1399 527.696 43.0977 528.54C44.5742 529.341 45.7554 530.269 46.5569 531.197C46.7257 531.408 46.8944 531.619 46.9788 531.788C47.0631 531.872 47.1053 531.999 47.1897 532.083C47.4006 532.505 47.5272 532.927 47.4428 533.349V533.307Z" fill="#EF959A"/>
<path d="M85.1151 465.008C89.7977 463.447 92.5398 463.236 93.3835 464.418C94.7757 466.358 90.8102 472.18 81.4027 481.84C78.745 483.401 76.003 485.046 73.3031 486.818C61.1957 494.707 51.1976 503.439 43.098 511.919L42.2964 512.72C41.8746 513.184 41.4105 513.691 40.9465 514.155C40.5668 513.733 40.1871 513.269 39.7653 512.847C38.5419 511.455 37.3185 510.063 36.0951 508.671C36.0951 508.586 36.1795 508.544 36.2216 508.46C40.7355 500.824 45.0807 494.665 48.4977 490.151C58.4114 476.989 63.5159 473.656 66.1315 472.475C66.5111 472.306 66.8486 472.18 67.1439 472.053C69.0001 471.378 71.1094 470.956 74.6952 469.353C78.5763 467.624 81.6981 465.683 83.9761 464.08C84.3558 464.375 84.6932 464.671 85.0729 464.966L85.1151 465.008Z" fill="#EF959A"/>
<path d="M47.7384 534.235C47.6541 534.488 47.4853 534.826 47.1057 535.121C44.7011 535.036 42.2965 534.952 39.8919 534.868C35.7998 527.443 31.7078 520.018 27.658 512.551C28.122 512.087 28.6704 511.581 29.3454 511.117C29.5985 510.906 29.8938 510.695 30.1891 510.526C30.2735 510.442 30.4 510.4 30.4844 510.358C32.3406 509.134 34.1124 508.502 35.4202 508.164C35.3358 508.417 35.2936 508.628 35.2092 508.881C34.1546 512.383 34.5764 513.522 35.1249 513.859C36.1373 514.576 37.9513 512.805 41.284 512.72C41.8324 512.72 42.3808 512.72 42.8871 512.805C43.773 512.931 44.5323 513.184 45.0386 513.353L43.7308 516.348C43.562 519.554 43.3933 522.803 43.2667 526.009C43.1824 526.852 43.1824 527.654 43.1402 528.498C44.6167 529.299 45.7979 530.227 46.5994 531.155C46.7682 531.366 46.9369 531.577 47.0213 531.746C47.1057 531.83 47.1478 531.957 47.2322 532.041C47.7806 532.843 47.9916 533.602 47.7806 534.235H47.7384Z" fill="#26303C"/>
<path d="M46.2618 508.711C42.2963 505.294 38.3308 501.877 34.3654 498.502C41.1995 489.77 51.1553 479.561 65.1189 471.166C68.4516 469.141 71.7842 467.453 74.9482 465.935C77.5637 460.957 80.7277 455.641 84.5244 450.157C91.4429 440.159 98.6988 432.186 105.238 425.942C105.913 423.327 107.22 419.361 110.089 415.143C112.958 410.966 116.164 408.266 118.357 406.706C125.656 414.932 132.954 423.2 140.252 431.427C134.219 438.598 127.174 446.192 118.906 453.912C105.828 466.061 93.0037 475.426 81.6557 482.598L46.304 508.627L46.2618 508.711Z" fill="#4DB6DA"/>
<path d="M162.02 449.946L127.512 436.447C124.432 426.575 121.395 416.662 118.315 406.79C125.234 413.16 133.84 415.818 140.758 413.16C142.319 412.57 144.386 411.43 146.495 409.237C150.588 411.81 154.848 414.721 159.151 418.054C170.541 426.786 179.443 436.025 186.235 444.293C189.145 445.939 190.959 448.849 190.917 451.929C190.917 454.502 189.567 456.358 189.019 457.033C174.718 467.538 160.459 478.042 146.158 488.546C141.686 485.087 137.257 481.67 132.785 478.211C137.805 471.841 144.091 464.922 151.853 458.13C155.312 455.093 158.729 452.393 162.02 449.988V449.946Z" fill="#4DB6DA"/>
<path d="M158.771 388.399C158.518 389.58 158.223 390.593 157.928 391.563C155.312 398.228 152.655 404.894 150.039 411.517C148.731 414.85 145.778 417.296 144.302 418.646C143.078 419.785 141.602 420.713 139.872 421.388C134.979 423.371 128.271 423.456 120.635 421.937C113.084 420.418 104.605 417.339 95.9567 412.993C113.886 393.461 121.859 380.679 125.529 371.989C126.963 368.614 131.013 358.152 140.378 354.777C142.108 354.144 143.627 353.891 144.681 353.807C148.816 356.802 152.865 359.881 157 362.877C158.012 365.577 158.898 368.698 159.404 372.326C160.29 378.739 159.657 384.265 158.771 388.399Z" fill="#26303C"/>
<path d="M132.996 439.106C132.996 439.106 132.743 439.064 132.659 438.979C132.448 438.769 132.406 438.473 132.617 438.22L140.97 428.813C140.97 428.813 141.476 428.602 141.729 428.771C141.94 428.981 141.982 429.277 141.771 429.53L133.418 438.937C133.418 438.937 133.165 439.106 133.039 439.106H132.996Z" fill="#26303C"/>
<path d="M163.032 449.946C163.032 449.946 162.653 449.82 162.568 449.651C162.442 449.398 162.568 449.06 162.822 448.934L167.8 446.529C168.053 446.403 168.39 446.529 168.517 446.782C168.643 447.035 168.517 447.373 168.264 447.499L163.286 449.904C163.286 449.904 163.117 449.946 163.075 449.946H163.032Z" fill="#26303C"/>
<path d="M165.648 450.368C165.395 450.368 165.142 450.157 165.142 449.862C165.142 449.567 165.353 449.314 165.606 449.314L168.812 449.061C169.107 449.061 169.36 449.271 169.36 449.567C169.36 449.862 169.149 450.115 168.896 450.115L165.69 450.368H165.648Z" fill="#26303C"/>
<path d="M75.8345 468.128C75.5392 468.128 75.3282 467.917 75.3282 467.622C75.3282 467.327 75.5392 467.074 75.8345 467.074L80.6437 466.905C80.9812 466.905 81.1921 467.116 81.1921 467.411C81.1921 467.706 80.9812 467.959 80.6859 467.959L75.8767 468.128H75.8345Z" fill="#26303C"/>
<path d="M183.029 385.825L176.11 393.63C172.356 391.141 168.601 388.652 164.804 386.121C163.708 385.403 162.611 384.686 161.514 383.927C158.941 382.197 156.367 380.552 153.836 378.822C149.828 372.241 145.779 365.703 141.771 359.164C142.151 358.911 142.741 358.573 143.585 358.32C147.677 357.055 153.33 358.826 169.107 372.705C172.735 375.912 177.545 380.299 183.029 385.783V385.825Z" fill="#EF959A"/>
<path d="M171.765 373.633C168.559 377.767 165.353 381.901 162.189 386.036L149.364 376.586C146.833 370.764 144.302 364.985 141.771 359.163C142.235 358.573 142.783 358.193 143.247 357.898C147.93 355.113 155.017 360.344 155.439 360.64L171.765 373.633Z" fill="#26303C"/>
<path d="M159.447 385.318C159.447 385.318 159.236 385.318 159.151 385.234L147.339 377.472C147.086 377.303 147.044 376.965 147.17 376.754C147.339 376.501 147.677 376.459 147.888 376.586L159.7 384.348C159.953 384.517 159.995 384.854 159.868 385.065C159.784 385.234 159.615 385.318 159.447 385.318Z" fill="#4DB6DA"/>
<path d="M124.306 375.49C124.306 375.49 124.137 375.49 124.095 375.448C123.842 375.321 123.715 375.026 123.842 374.731L131.731 358.025C131.857 357.772 132.195 357.645 132.448 357.772C132.701 357.898 132.827 358.194 132.701 358.489L124.812 375.195C124.812 375.195 124.517 375.49 124.348 375.49H124.306Z" fill="#4DB6DA"/>
<path d="M170.331 326.596C170.331 326.301 170.331 325.837 170.204 325.246C169.149 320.69 162.062 318.539 161.598 319.256C161.429 319.551 162.273 320.184 162.02 320.606C161.683 321.154 159.826 320.184 157.633 319.973C153.92 319.593 150.63 321.365 150.714 321.787C150.756 322.082 152.992 321.745 153.077 322.167C153.245 322.926 146.96 324.529 147.086 326.385C147.086 327.018 147.846 327.187 148.099 328.242C148.352 329.381 147.761 330.393 147.592 330.731C145.989 333.894 149.66 343.682 151.558 343.429C153.288 343.175 152.149 334.316 155.439 333.388C157.591 332.798 159.573 336.004 161.345 335.16C163.454 334.148 161.893 329.127 164.425 327.904C165.268 327.482 165.943 327.862 168.728 327.103C169.403 326.934 169.993 326.723 170.331 326.639V326.596Z" fill="black"/>
<path d="M22.1735 353.426C28.417 363.214 34.6605 373.001 40.904 382.788C43.0133 379.202 45.1648 375.658 47.2741 372.073C53.1379 380.763 58.9596 389.495 64.8234 398.186C59.1283 385.614 53.4754 373.043 47.7803 360.472C44.7429 364.353 41.6633 368.234 38.626 372.157C33.1418 365.913 27.6576 359.628 22.1735 353.384V353.426Z" fill="#FFEA5B"/>
<path d="M3.65393 395.149C13.4411 398.609 23.2282 402.068 33.0153 405.527C32.5513 401.857 32.0872 398.144 31.6232 394.474C40.5244 397.385 49.4678 400.296 58.369 403.207C47.4429 397.469 36.5167 391.774 25.5906 386.037C25.5906 390.467 25.5906 394.896 25.5906 399.326L3.65393 395.149Z" fill="#FFEA5B"/>
<path d="M72.4392 450.988C76.3928 434.302 66.0713 417.57 49.3855 413.617C32.6997 409.663 15.9681 419.985 12.0146 436.67C8.06097 453.356 18.3825 470.088 35.0683 474.041C51.7541 477.995 68.4856 467.673 72.4392 450.988Z" fill="#FF6F80"/>
<path d="M44.2791 443.79C44.2791 444.886 43.3932 445.814 42.2542 445.814C41.1152 445.814 40.2292 444.929 40.2292 443.79C40.2292 442.651 41.1152 441.765 42.2542 441.765C43.3932 441.765 44.2791 442.651 44.2791 443.79Z" fill="white"/>
<path d="M41.073 443.622C40.8199 444.254 36.4326 443.115 31.3281 441.09C26.2236 439.023 22.2581 436.83 22.5112 436.197C22.7643 435.564 27.1517 436.703 32.2562 438.728C37.3607 440.795 41.3261 442.989 41.073 443.622Z" fill="white"/>
<path d="M59.2975 424.258C59.8459 424.723 56.682 429.321 52.2103 434.594C47.7808 439.825 43.7309 443.748 43.2247 443.284C42.7184 442.82 45.8402 438.222 50.3119 432.949C54.7414 427.718 58.7913 423.794 59.2975 424.258Z" fill="white"/>
<path d="M19.3051 444.802C19.3051 445.223 17.9552 445.519 16.2677 445.519C14.5803 445.519 13.2303 445.181 13.2303 444.802C13.2303 444.422 14.5803 444.084 16.2677 444.084C17.9552 444.084 19.3051 444.422 19.3051 444.802Z" fill="white"/>
<path d="M72.4593 444.802C72.4593 445.223 71.1093 445.519 69.4219 445.519C67.7345 445.519 66.3845 445.181 66.3845 444.802C66.3845 444.422 67.7345 444.084 69.4219 444.084C71.1093 444.084 72.4593 444.422 72.4593 444.802Z" fill="white"/>
<path d="M41.959 421.261C41.5794 421.261 41.1997 419.911 41.1153 418.266C41.031 416.621 41.3263 415.229 41.7059 415.187C42.1278 415.187 42.4653 416.536 42.5496 418.182C42.634 419.869 42.3387 421.219 41.959 421.261Z" fill="white"/>
<path d="M43.9838 474.372C43.6042 474.372 43.2245 473.022 43.1401 471.377C43.0557 469.732 43.351 468.34 43.7307 468.297C44.1104 468.297 44.4901 469.647 44.5744 471.293C44.6588 472.98 44.3635 474.33 43.9838 474.372Z" fill="white"/>
<rect x="300" y="300.148" width="260" height="260" rx="30" fill="#4DB6DA"/>
<path d="M359.061 417.148V393.348H362.699L373.103 410.722H371.199L381.433 393.348H385.071L385.105 417.148H380.923L380.889 399.91H381.773L373.069 414.428H371.097L362.257 399.91H363.277V417.148H359.061ZM401.971 417.148V413.476L401.733 412.694V406.268C401.733 405.022 401.359 404.058 400.611 403.378C399.863 402.676 398.73 402.324 397.211 402.324C396.191 402.324 395.183 402.483 394.185 402.8C393.211 403.118 392.383 403.56 391.703 404.126L390.037 401.032C391.012 400.284 392.168 399.729 393.505 399.366C394.865 398.981 396.271 398.788 397.721 398.788C400.351 398.788 402.379 399.423 403.807 400.692C405.258 401.939 405.983 403.877 405.983 406.506V417.148H401.971ZM396.259 417.386C394.899 417.386 393.709 417.16 392.689 416.706C391.669 416.23 390.876 415.584 390.309 414.768C389.765 413.93 389.493 412.989 389.493 411.946C389.493 410.926 389.731 410.008 390.207 409.192C390.706 408.376 391.511 407.73 392.621 407.254C393.732 406.778 395.205 406.54 397.041 406.54H402.311V409.362H397.347C395.897 409.362 394.922 409.6 394.423 410.076C393.925 410.53 393.675 411.096 393.675 411.776C393.675 412.547 393.981 413.159 394.593 413.612C395.205 414.066 396.055 414.292 397.143 414.292C398.186 414.292 399.115 414.054 399.931 413.578C400.77 413.102 401.371 412.4 401.733 411.47L402.447 414.02C402.039 415.086 401.303 415.913 400.237 416.502C399.195 417.092 397.869 417.386 396.259 417.386ZM419.461 417.386C417.557 417.386 415.857 416.99 414.361 416.196C412.888 415.38 411.732 414.27 410.893 412.864C410.054 411.459 409.635 409.861 409.635 408.07C409.635 406.257 410.054 404.659 410.893 403.276C411.732 401.871 412.888 400.772 414.361 399.978C415.857 399.185 417.557 398.788 419.461 398.788C421.229 398.788 422.782 399.151 424.119 399.876C425.479 400.579 426.51 401.622 427.213 403.004L423.949 404.908C423.405 404.047 422.736 403.412 421.943 403.004C421.172 402.596 420.334 402.392 419.427 402.392C418.384 402.392 417.444 402.619 416.605 403.072C415.766 403.526 415.109 404.183 414.633 405.044C414.157 405.883 413.919 406.892 413.919 408.07C413.919 409.249 414.157 410.269 414.633 411.13C415.109 411.969 415.766 412.615 416.605 413.068C417.444 413.522 418.384 413.748 419.427 413.748C420.334 413.748 421.172 413.544 421.943 413.136C422.736 412.728 423.405 412.094 423.949 411.232L427.213 413.136C426.51 414.496 425.479 415.55 424.119 416.298C422.782 417.024 421.229 417.386 419.461 417.386ZM440.683 398.788C442.133 398.788 443.425 399.072 444.559 399.638C445.715 400.205 446.621 401.078 447.279 402.256C447.936 403.412 448.265 404.908 448.265 406.744V417.148H444.015V407.288C444.015 405.679 443.629 404.478 442.859 403.684C442.111 402.891 441.057 402.494 439.697 402.494C438.699 402.494 437.815 402.698 437.045 403.106C436.274 403.514 435.673 404.126 435.243 404.942C434.835 405.736 434.631 406.744 434.631 407.968V417.148H430.381V391.92H434.631V403.888L433.713 402.392C434.347 401.236 435.265 400.352 436.467 399.74C437.691 399.106 439.096 398.788 440.683 398.788ZM453.316 417.148V398.992H457.566V417.148H453.316ZM455.458 396C454.665 396 454.007 395.751 453.486 395.252C452.987 394.754 452.738 394.153 452.738 393.45C452.738 392.725 452.987 392.124 453.486 391.648C454.007 391.15 454.665 390.9 455.458 390.9C456.251 390.9 456.897 391.138 457.396 391.614C457.917 392.068 458.178 392.646 458.178 393.348C458.178 394.096 457.929 394.731 457.43 395.252C456.931 395.751 456.274 396 455.458 396ZM473.106 398.788C474.557 398.788 475.849 399.072 476.982 399.638C478.138 400.205 479.045 401.078 479.702 402.256C480.36 403.412 480.688 404.908 480.688 406.744V417.148H476.438V407.288C476.438 405.679 476.053 404.478 475.282 403.684C474.534 402.891 473.48 402.494 472.12 402.494C471.123 402.494 470.239 402.698 469.468 403.106C468.698 403.514 468.097 404.126 467.666 404.942C467.258 405.736 467.054 406.744 467.054 407.968V417.148H462.804V398.992H466.85V403.888L466.136 402.392C466.771 401.236 467.689 400.352 468.89 399.74C470.114 399.106 471.52 398.788 473.106 398.788ZM494.307 417.386C492.29 417.386 490.522 416.99 489.003 416.196C487.507 415.38 486.34 414.27 485.501 412.864C484.685 411.459 484.277 409.861 484.277 408.07C484.277 406.257 484.674 404.659 485.467 403.276C486.283 401.871 487.394 400.772 488.799 399.978C490.227 399.185 491.848 398.788 493.661 398.788C495.429 398.788 497.004 399.174 498.387 399.944C499.77 400.715 500.858 401.803 501.651 403.208C502.444 404.614 502.841 406.268 502.841 408.172C502.841 408.354 502.83 408.558 502.807 408.784C502.807 409.011 502.796 409.226 502.773 409.43H487.643V406.608H500.529L498.863 407.492C498.886 406.45 498.67 405.532 498.217 404.738C497.764 403.945 497.14 403.322 496.347 402.868C495.576 402.415 494.681 402.188 493.661 402.188C492.618 402.188 491.7 402.415 490.907 402.868C490.136 403.322 489.524 403.956 489.071 404.772C488.64 405.566 488.425 406.506 488.425 407.594V408.274C488.425 409.362 488.674 410.326 489.173 411.164C489.672 412.003 490.374 412.649 491.281 413.102C492.188 413.556 493.23 413.782 494.409 413.782C495.429 413.782 496.347 413.624 497.163 413.306C497.979 412.989 498.704 412.49 499.339 411.81L501.617 414.428C500.801 415.38 499.77 416.117 498.523 416.638C497.299 417.137 495.894 417.386 494.307 417.386ZM396.67 443.348H401.09V467.148H396.67V443.348ZM384.362 467.148H379.942V443.348H384.362V467.148ZM397.01 456.948H383.988V453.174H397.01V456.948ZM406.719 467.148V448.992H410.969V467.148H406.719ZM408.861 446C408.068 446 407.41 445.751 406.889 445.252C406.39 444.754 406.141 444.153 406.141 443.45C406.141 442.725 406.39 442.124 406.889 441.648C407.41 441.15 408.068 440.9 408.861 440.9C409.654 440.9 410.3 441.138 410.799 441.614C411.32 442.068 411.581 442.646 411.581 443.348C411.581 444.096 411.332 444.731 410.833 445.252C410.334 445.751 409.677 446 408.861 446ZM416.207 467.148V448.992H420.253V453.99L419.777 452.528C420.321 451.304 421.171 450.375 422.327 449.74C423.506 449.106 424.968 448.788 426.713 448.788V452.834C426.532 452.789 426.362 452.766 426.203 452.766C426.044 452.744 425.886 452.732 425.727 452.732C424.118 452.732 422.837 453.208 421.885 454.16C420.933 455.09 420.457 456.484 420.457 458.342V467.148H416.207ZM429.978 467.148V448.992H434.228V467.148H429.978ZM432.12 446C431.327 446 430.67 445.751 430.148 445.252C429.65 444.754 429.4 444.153 429.4 443.45C429.4 442.725 429.65 442.124 430.148 441.648C430.67 441.15 431.327 440.9 432.12 440.9C432.914 440.9 433.56 441.138 434.058 441.614C434.58 442.068 434.84 442.646 434.84 443.348C434.84 444.096 434.591 444.731 434.092 445.252C433.594 445.751 432.936 446 432.12 446ZM449.768 448.788C451.219 448.788 452.511 449.072 453.644 449.638C454.8 450.205 455.707 451.078 456.364 452.256C457.022 453.412 457.35 454.908 457.35 456.744V467.148H453.1V457.288C453.1 455.679 452.715 454.478 451.944 453.684C451.196 452.891 450.142 452.494 448.782 452.494C447.785 452.494 446.901 452.698 446.13 453.106C445.36 453.514 444.759 454.126 444.328 454.942C443.92 455.736 443.716 456.744 443.716 457.968V467.148H439.466V448.992H443.512V453.888L442.798 452.392C443.433 451.236 444.351 450.352 445.552 449.74C446.776 449.106 448.182 448.788 449.768 448.788ZM470.663 473.982C468.986 473.982 467.342 473.756 465.733 473.302C464.146 472.872 462.843 472.237 461.823 471.398L463.727 468.202C464.52 468.86 465.518 469.381 466.719 469.766C467.943 470.174 469.178 470.378 470.425 470.378C472.42 470.378 473.882 469.914 474.811 468.984C475.74 468.078 476.205 466.706 476.205 464.87V461.64L476.545 457.526L476.409 453.412V448.992H480.455V464.394C480.455 467.681 479.616 470.095 477.939 471.636C476.262 473.2 473.836 473.982 470.663 473.982ZM470.119 466.332C468.396 466.332 466.832 465.97 465.427 465.244C464.044 464.496 462.945 463.465 462.129 462.15C461.336 460.836 460.939 459.294 460.939 457.526C460.939 455.781 461.336 454.251 462.129 452.936C462.945 451.622 464.044 450.602 465.427 449.876C466.832 449.151 468.396 448.788 470.119 448.788C471.66 448.788 473.043 449.094 474.267 449.706C475.491 450.318 476.466 451.27 477.191 452.562C477.939 453.854 478.313 455.509 478.313 457.526C478.313 459.544 477.939 461.21 477.191 462.524C476.466 463.816 475.491 464.78 474.267 465.414C473.043 466.026 471.66 466.332 470.119 466.332ZM470.765 462.728C471.83 462.728 472.782 462.513 473.621 462.082C474.46 461.629 475.106 461.017 475.559 460.246C476.035 459.453 476.273 458.546 476.273 457.526C476.273 456.506 476.035 455.611 475.559 454.84C475.106 454.047 474.46 453.446 473.621 453.038C472.782 452.608 471.83 452.392 470.765 452.392C469.7 452.392 468.736 452.608 467.875 453.038C467.036 453.446 466.379 454.047 465.903 454.84C465.45 455.611 465.223 456.506 465.223 457.526C465.223 458.546 465.45 459.453 465.903 460.246C466.379 461.017 467.036 461.629 467.875 462.082C468.736 462.513 469.7 462.728 470.765 462.728Z" fill="white"/>
<defs>
<linearGradient id="paint0_linear_2017_714" x1="92.2347" y1="57.3251" x2="115.807" y2="68.7623" gradientUnits="userSpaceOnUse">
<stop/>
<stop offset="1"/>
</linearGradient>
<clipPath id="clip0_2017_714">
<rect y="0.148438" width="260" height="260" rx="30" fill="white"/>
</clipPath>
<clipPath id="clip1_2017_714">
<rect x="300" y="0.148438" width="260" height="260" rx="30" fill="white"/>
</clipPath>
</defs>
</svg>
