<svg width="466" height="420" viewBox="0 0 466 420" fill="none" xmlns="http://www.w3.org/2000/svg">
<path d="M248.524 165.417H218.435V201.437H248.524V165.417Z" fill="#26303C"/>
<path d="M255.575 154.501H211.374V165.417H255.575V154.501Z" fill="#7FEBFF"/>
<path d="M316.741 195.354L291.744 178.607L271.696 208.532L296.693 225.279L316.741 195.354Z" fill="#26303C"/>
<path d="M328.668 190.206L291.946 165.605L285.87 174.673L322.592 199.275L328.668 190.206Z" fill="#7FEBFF"/>
<path d="M170.249 225.279L195.246 208.532L175.198 178.607L150.201 195.353L170.249 225.279Z" fill="#26303C"/>
<path d="M144.344 199.273L181.066 174.671L174.991 165.603L138.268 190.204L144.344 199.273Z" fill="#7FEBFF"/>
<path d="M233.476 414.038C299.256 414.038 352.581 360.713 352.581 294.933C352.581 229.153 299.256 175.828 233.476 175.828C167.696 175.828 114.371 229.153 114.371 294.933C114.371 360.713 167.696 414.038 233.476 414.038Z" fill="#7FEBFF"/>
<path d="M233.474 397.91C290.348 397.91 336.453 351.805 336.453 294.931C336.453 238.058 290.348 191.953 233.474 191.953C176.601 191.953 130.495 238.058 130.495 294.931C130.495 351.805 176.601 397.91 233.474 397.91Z" fill="white"/>
<path d="M233.474 209.413C236.185 209.413 238.383 207.216 238.383 204.505C238.383 201.793 236.185 199.596 233.474 199.596C230.763 199.596 228.565 201.793 228.565 204.505C228.565 207.216 230.763 209.413 233.474 209.413Z" fill="#7FEBFF"/>
<path d="M238.383 385.358C238.383 388.071 236.187 390.267 233.474 390.267C230.761 390.267 228.565 388.071 228.565 385.358C228.565 382.645 230.761 380.449 233.474 380.449C236.187 380.449 238.383 382.645 238.383 385.358Z" fill="#7FEBFF"/>
<path d="M323.901 299.84C326.612 299.84 328.81 297.642 328.81 294.931C328.81 292.22 326.612 290.022 323.901 290.022C321.19 290.022 318.992 292.22 318.992 294.931C318.992 297.642 321.19 299.84 323.901 299.84Z" fill="#7FEBFF"/>
<path d="M143.048 299.84C145.759 299.84 147.956 297.642 147.956 294.931C147.956 292.22 145.759 290.022 143.048 290.022C140.336 290.022 138.139 292.22 138.139 294.931C138.139 297.642 140.336 299.84 143.048 299.84Z" fill="#7FEBFF"/>
<path d="M300.885 227.52L290.658 237.747" stroke="#339DC0" stroke-width="2.15302" stroke-miterlimit="10" stroke-linecap="round"/>
<path d="M176.29 352.126L166.063 362.353" stroke="#339DC0" stroke-width="2.15302" stroke-miterlimit="10" stroke-linecap="round"/>
<path d="M166.063 227.52L176.29 237.747" stroke="#339DC0" stroke-width="2.15302" stroke-miterlimit="10" stroke-linecap="round"/>
<path d="M290.658 352.126L300.885 362.353" stroke="#339DC0" stroke-width="2.15302" stroke-miterlimit="10" stroke-linecap="round"/>
<path d="M228.049 289.312L281.831 248.954L238.814 300.637C235.799 304.254 230.309 304.437 227.069 301.024C223.829 297.612 224.281 292.143 228.049 289.312Z" fill="#339DC0"/>
<path d="M174.557 125.887H25.6111C23.774 125.887 22.2847 127.376 22.2847 129.214V129.849C22.2847 131.686 23.774 133.175 25.6111 133.175H174.557C176.394 133.175 177.883 131.686 177.883 129.849V129.214C177.883 127.376 176.394 125.887 174.557 125.887Z" fill="#26303C"/>
<path d="M174.557 406.759H25.6111C23.774 406.759 22.2847 408.248 22.2847 410.085V410.721C22.2847 412.558 23.774 414.047 25.6111 414.047H174.557C176.394 414.047 177.883 412.558 177.883 410.721V410.085C177.883 408.248 176.394 406.759 174.557 406.759Z" fill="#26303C"/>
<path d="M150.561 322.899C144.425 312.963 136.416 306.202 127.567 298.871C121.033 293.446 104.907 280.237 105.348 269.967C104.907 259.697 121.033 246.489 127.567 241.063C136.416 233.732 144.415 226.961 150.561 217.035C156.471 207.465 160.411 196.808 163.167 185.935C163.985 182.727 171.446 133.186 169.433 133.186H30.7352C28.7222 133.186 36.1931 182.727 37.0005 185.935C39.7564 196.808 43.6964 207.465 49.6064 217.035C55.7425 226.971 63.7517 233.732 72.6006 241.063C79.135 246.489 95.2611 259.697 94.8198 269.967C95.2611 280.237 79.135 293.446 72.6006 298.871C63.7517 306.202 55.7533 312.974 49.6064 322.899C43.6964 332.469 39.7564 343.127 37.0005 353.999C36.1824 357.207 28.7222 406.748 30.7352 406.748H169.443C171.456 406.748 163.985 357.207 163.178 353.999C160.422 343.127 156.482 332.469 150.572 322.899H150.561Z" fill="#4DB6DA"/>
<path d="M125.888 236.498C134.188 229.469 141.702 222.999 147.472 213.483C153.027 204.322 156.719 194.105 159.313 183.696C159.486 182.996 159.981 179.992 160.627 175.773C155.083 175.546 149.453 176.074 143.962 176.892C133.639 178.431 123.412 180.951 112.98 181.273C98.1139 181.736 83.5165 177.732 69.1774 173.759C58.7891 170.885 48.4008 168 38.0125 165.126C39.3258 174.448 40.5853 182.501 40.8867 183.706C43.4703 194.116 47.1735 204.332 52.7283 213.493C58.4876 223.01 66.0017 229.48 74.3123 236.509C80.4484 241.698 98.34 254.358 97.9201 264.197V341.576C54.5046 343.643 43.2658 406.78 43.2658 406.78H156.967C156.967 406.78 145.728 343.643 102.312 341.576V264.197C101.892 254.368 119.784 241.709 125.92 236.509L125.888 236.498Z" fill="#EBEBEB"/>
<g style="mix-blend-mode:multiply">
<path d="M53.8048 353.999C56.5607 343.127 60.5007 332.469 66.4107 322.899C72.5468 312.963 80.556 306.202 89.4049 298.871C94.0555 295.018 103.539 287.224 108.481 279.344C106.468 276.146 105.208 272.928 105.337 269.967C105.208 266.996 106.468 263.788 108.481 260.591C103.539 252.722 94.0447 244.928 89.4049 241.063C80.556 233.732 72.5576 226.961 66.4107 217.035C60.5007 207.465 56.5607 196.808 53.8048 185.935C52.9867 182.727 45.5265 133.186 47.5395 133.186H30.7352C28.7222 133.186 36.1931 182.727 37.0005 185.935C39.7564 196.808 43.6964 207.465 49.6064 217.035C55.7425 226.971 63.7517 233.732 72.6006 241.063C79.135 246.489 95.2611 259.697 94.8198 269.967C95.2611 280.237 79.135 293.446 72.6006 298.871C63.7517 306.202 55.7533 312.974 49.6064 322.899C43.6964 332.469 39.7564 343.127 37.0005 353.999C36.1824 357.207 28.7222 406.748 30.7352 406.748H47.5395C45.5265 406.748 52.9974 357.207 53.8048 353.999Z" fill="#4DB6DA"/>
</g>
<g style="mix-blend-mode:screen" opacity="0.5">
<path d="M150.561 322.899C144.425 312.963 136.416 306.202 127.567 298.871C121.033 293.446 104.907 280.237 105.348 269.967C104.907 259.697 121.033 246.489 127.567 241.063C136.416 233.732 144.415 226.961 150.561 217.035C156.471 207.465 160.411 196.808 163.167 185.935C163.985 182.727 171.446 133.186 169.433 133.186H166.72C168.733 133.186 161.262 182.727 160.454 185.935C157.699 196.808 153.759 207.465 147.849 217.035C141.712 226.971 133.703 233.732 124.854 241.063C118.32 246.489 102.194 259.697 102.635 269.967C102.194 280.237 118.32 293.446 124.854 298.871C133.703 306.202 141.702 312.974 147.849 322.899C153.759 332.469 157.699 343.127 160.454 353.999C161.273 357.207 168.733 406.748 166.72 406.748H169.433C171.446 406.748 163.975 357.207 163.167 353.999C160.411 343.127 156.471 332.469 150.561 322.899Z" fill="#4DB6DA"/>
</g>
<path d="M466 414.036H0.948364V420H466V414.036Z" fill="#7FEBFF"/>
<path d="M397.103 340.941H348.714C346.717 340.941 345.097 342.561 345.097 344.558V345.743C345.097 347.74 346.717 349.36 348.714 349.36H397.103C399.101 349.36 400.72 347.74 400.72 345.743V344.558C400.72 342.561 399.101 340.941 397.103 340.941Z" fill="#26303C"/>
<path d="M353.537 349.36L343.666 414.036H346.518L359.878 349.36H353.537Z" fill="#339DC0"/>
<path d="M392.27 349.36L402.142 414.036H399.289L385.94 349.36H392.27Z" fill="#339DC0"/>
<path d="M347.239 234.798C347.239 236.595 345.786 238.059 343.978 238.059C342.169 238.059 340.716 236.606 340.716 234.798C340.716 232.989 342.169 231.536 343.978 231.536C345.786 231.536 347.239 232.989 347.239 234.798Z" fill="#EF959A"/>
<path d="M370.234 238.329L350.555 243.205L360.664 254.186L370.234 238.329Z" fill="#4DB6DA"/>
<path d="M366.778 230.352L368.92 240.503L395.768 248.674C400.139 249.998 403.433 253.604 404.37 258.072L414.704 305.632C415.576 309.809 412.39 313.727 408.127 313.727H320.876L330.726 259.407C331.555 255.434 334.278 252.119 338.014 250.536L360.362 241.084L361.837 230.341H366.767L366.778 230.352Z" fill="#EF959A"/>
<g style="mix-blend-mode:multiply" opacity="0.5">
<path d="M358.597 246.047C363.527 245.111 367.176 241.278 368.102 236.638L366.767 230.352H361.837L360.362 241.095L351.093 245.014C353.343 246.123 355.948 246.553 358.597 246.047Z" fill="#EF959A"/>
</g>
<path d="M326.129 284.758H337.508L340.899 313.727H320.886L326.129 284.758Z" fill="#EF959A"/>
<g style="mix-blend-mode:multiply" opacity="0.4">
<path d="M335.958 284.758L333.385 313.727H340.899L337.508 284.758H335.958Z" fill="#EF959A"/>
</g>
<path d="M349.662 245.617L360.663 254.186L371.461 241.267L396.694 248.943C400.559 250.116 403.616 253.088 404.908 256.92L414.069 284.156H390.763L395.241 302.499L355.119 304.265V313.706H340.91L337.529 284.737H322.103L327.948 260.257C328.863 256.435 331.544 253.271 335.161 251.731L349.672 245.595L349.662 245.617Z" fill="#ABEDF9"/>
<g style="mix-blend-mode:multiply">
<path d="M389.74 279.677V302.758L395.23 302.51L389.74 279.677Z" fill="#EBEBEB"/>
</g>
<path d="M337.508 284.758H322.082L323.04 280.775H337.045L337.508 284.758Z" fill="white"/>
<path d="M360.664 254.186C361.331 258.309 361.891 262.453 362.418 266.598C362.957 270.742 363.398 274.887 363.893 279.031C364.302 283.187 364.754 287.342 365.12 291.497L365.648 297.741C365.788 299.829 365.96 301.907 366.057 303.996C365.712 301.929 365.433 299.862 365.12 297.795L364.291 291.583C363.753 287.439 363.312 283.294 362.817 279.15C362.408 274.994 361.955 270.85 361.589 266.684C361.223 262.528 360.879 258.362 360.653 254.186H360.664Z" fill="#339DC0"/>
<path d="M355.109 304.286L339.618 301.294L321.791 309.378H355.109V304.286Z" fill="#EF959A"/>
<path d="M323.481 301.294L288.053 305.094V313.727H320.886L323.481 301.294Z" fill="white" stroke="#26303C" stroke-width="1.07651" stroke-miterlimit="10"/>
<path d="M332.082 309.378H272.487L262.4 268.611H322.006L332.082 309.378Z" fill="#FF6F80"/>
<path d="M364.98 309.378H272.487V313.727H364.98V309.378Z" fill="#EF959A"/>
<path d="M339.618 301.293C339.112 299.022 338.724 296.74 338.358 294.458C337.981 292.175 337.68 289.882 337.389 287.59C337.12 285.297 336.851 282.993 336.668 280.689L336.388 277.223C336.334 276.06 336.248 274.908 336.227 273.746C336.485 274.876 336.679 276.017 336.916 277.158L337.486 280.581C337.863 282.864 338.164 285.157 338.455 287.45C338.724 289.743 338.993 292.046 339.176 294.35C339.37 296.654 339.553 298.968 339.618 301.283V301.293Z" fill="#339DC0"/>
<path d="M360.663 254.185L356.379 259.503L349.661 245.616L350.555 243.205L360.663 254.185Z" fill="white"/>
<path d="M360.664 254.186L366.929 259.504L371.461 241.278L370.234 238.329L360.664 254.186Z" fill="white"/>
<path d="M389.74 279.677H412.551L414.069 284.166H390.752L389.74 279.677Z" fill="white"/>
<path d="M376.23 318.733L378.835 331.005C379.922 336.129 376.015 340.952 370.783 340.952H315.978L322.178 399.589H306.87L288.193 332.781C286.223 325.73 291.519 318.744 298.85 318.744H376.251L376.23 318.733Z" fill="#339DC0"/>
<path d="M401.905 318.733L404.51 331.005C405.597 336.129 401.689 340.952 396.457 340.952H341.652L347.853 399.589H332.545L313.868 332.781C311.898 325.73 317.194 318.744 324.525 318.744H401.926L401.905 318.733Z" fill="#4DB6DA"/>
<path d="M306.86 399.579L280.334 414.036H325.849L322.168 399.579H306.86Z" fill="#4DB6DA"/>
<path d="M332.524 399.579L306.009 414.036H351.513L347.842 399.579H332.524Z" fill="#339DC0"/>
<path d="M370.858 228.08C370.858 229.889 369.405 231.342 367.596 231.342C367.359 231.342 367.122 231.32 366.907 231.267C366.875 230.965 366.821 230.653 366.767 230.352L365.831 225.346C366.347 225.012 366.95 224.818 367.596 224.818C369.405 224.818 370.858 226.282 370.858 228.08Z" fill="#EF959A"/>
<path d="M357.24 244.335C350.749 245.563 344.494 241.289 343.267 234.798L341.566 225.819C340.339 219.328 344.613 213.074 351.104 211.846C357.596 210.619 363.85 214.893 365.077 221.384L366.778 230.362C368.005 236.854 363.732 243.108 357.24 244.335Z" fill="#EF959A"/>
<path d="M366.509 228.941L363.365 223.72L362.73 219.167C362.73 219.167 356.831 222.859 348.122 220.491C348.122 220.491 346.217 224.495 341.566 225.809L342.772 228.08L343.267 234.798C343.267 234.798 339.198 228.317 338.574 224.183C337.949 220.049 339.424 213.86 342.664 211.943C342.664 211.943 349.36 202.352 360.394 208.552C371.429 214.753 366.509 228.952 366.509 228.952V228.941Z" fill="black"/>
<path d="M395.23 302.51C394.391 299.905 393.659 297.278 392.948 294.651C392.227 292.025 391.581 289.377 390.946 286.728C390.332 284.069 389.719 281.421 389.18 278.741L388.384 274.725C388.158 273.38 387.899 272.045 387.695 270.688C388.125 271.991 388.491 273.304 388.89 274.607L389.977 278.547C390.698 281.174 391.344 283.822 391.979 286.47C392.593 289.129 393.206 291.777 393.734 294.458C394.272 297.127 394.8 299.808 395.219 302.51H395.23Z" fill="#339DC0"/>
<path d="M445.697 313.727H229.34V318.733H445.697V313.727Z" fill="#7FEBFF"/>
<path d="M245.725 318.733L227.758 414.036H233.28L253.971 318.733H245.725Z" fill="#339DC0"/>
<path d="M429.302 318.733L447.269 414.036H441.746L421.056 318.733H429.302Z" fill="#339DC0"/>
<path d="M432.058 93.1398H361.977V182.049H432.058V93.1398Z" fill="#4DB6DA"/>
<path d="M382.678 105.681H371.945V116.414H382.678V105.681Z" fill="#7FEBFF"/>
<path d="M372.516 106.941L377.371 111.473L384.218 102.893L377.371 114.692L370.406 110.235L372.516 106.941Z" fill="white"/>
<path d="M423.618 105.681H388.782V107.576H423.618V105.681Z" fill="#7FEBFF"/>
<path d="M412.605 111.042H388.782V112.937H412.605V111.042Z" fill="#7FEBFF"/>
<path d="M382.678 124.821H371.945V135.554H382.678V124.821Z" fill="#7FEBFF"/>
<path d="M372.516 126.07L377.371 130.613L384.218 122.033L377.371 133.832L370.406 129.375L372.516 126.07Z" fill="white"/>
<path d="M423.618 124.821H388.782V126.716H423.618V124.821Z" fill="#7FEBFF"/>
<path d="M412.605 130.182H388.782V132.077H412.605V130.182Z" fill="#7FEBFF"/>
<path d="M382.678 143.962H371.945V154.694H382.678V143.962Z" fill="#7FEBFF"/>
<path d="M372.516 145.21L377.371 149.753L384.218 141.174L377.371 152.972L370.406 148.515L372.516 145.21Z" fill="white"/>
<path d="M423.618 143.962H388.782V145.856H423.618V143.962Z" fill="#7FEBFF"/>
<path d="M412.605 149.323H388.782V151.217H412.605V149.323Z" fill="#7FEBFF"/>
<path d="M262.884 89.7272H248.168V129.536H262.884V89.7272Z" fill="#4DB6DA"/>
<path d="M284.425 80.2324H269.709V129.537H284.425V80.2324Z" fill="#FF6F80"/>
<path d="M305.966 101.084H291.25V129.537H305.966V101.084Z" fill="#4DB6DA"/>
<path d="M327.518 72.6323H312.802V129.537H327.518V72.6323Z" fill="#FF6F80"/>
<path d="M241.903 65.0322V129.526H334.214" stroke="#339DC0" stroke-width="1.07651" stroke-miterlimit="10"/>
<path d="M204.161 72.6323H145.9V102.807H204.161V72.6323Z" fill="#EBEBEB"/>
<path d="M145.9 102.807L175.031 82.3209L204.15 102.807H145.9Z" fill="#FF6F80"/>
<path d="M145.9 72.6323L175.031 92.0095L204.15 72.6323H145.9Z" fill="#FF6F80"/>
<path d="M145.9 72.6322L175.031 52.8676L204.15 72.6322H145.9Z" fill="#EBEBEB"/>
<path d="M175.031 43.3728H153.425V77.6381L175.031 92.0095L196.625 77.6381V43.3728H175.031Z" fill="#7FEBFF"/>
<path d="M163.006 51.3497H191.35" stroke="white" stroke-width="1.07651" stroke-miterlimit="10"/>
<path d="M158.7 57.5613H191.35" stroke="white" stroke-width="1.07651" stroke-miterlimit="10"/>
<path d="M158.7 63.7618H191.35" stroke="white" stroke-width="1.07651" stroke-miterlimit="10"/>
<path d="M158.7 69.9733H191.35" stroke="white" stroke-width="1.07651" stroke-miterlimit="10"/>
<path d="M158.7 76.174H180.585" stroke="white" stroke-width="1.07651" stroke-miterlimit="10"/>
<path d="M47.1951 82.4392C47.1951 72.3524 60.4577 64.1709 76.8098 64.1709C93.162 64.1709 106.425 72.3524 106.425 82.4392C106.425 92.5261 93.162 100.708 76.8098 100.708C72.8052 100.708 68.9836 100.212 65.4957 99.3189L58.4769 106.295L60.6191 97.7257C52.5346 94.4638 47.1951 88.8337 47.1951 82.4392Z" fill="#FF6F80"/>
<path d="M122.54 77.2505C122.54 67.1636 109.277 58.9822 92.9252 58.9822C76.573 58.9822 63.3104 67.1636 63.3104 77.2505C63.3104 87.3374 76.573 95.5189 92.9252 95.5189C96.9298 95.5189 100.751 95.0237 104.239 94.1302L111.258 101.106L109.116 92.5369C117.2 89.2751 122.54 83.645 122.54 77.2505Z" fill="#4DB6DA"/>
<path d="M83.7318 81.9119C83.7318 83.0961 82.7737 84.0649 81.5788 84.0649C80.3839 84.0649 79.4258 83.1069 79.4258 81.9119C79.4258 80.717 80.3839 79.7589 81.5788 79.7589C82.7737 79.7589 83.7318 80.717 83.7318 81.9119Z" fill="white"/>
<path d="M95.0783 81.9119C95.0783 83.0961 94.1202 84.0649 92.9252 84.0649C91.7303 84.0649 90.7722 83.1069 90.7722 81.9119C90.7722 80.717 91.7303 79.7589 92.9252 79.7589C94.1202 79.7589 95.0783 80.717 95.0783 81.9119Z" fill="white"/>
<path d="M106.425 81.9119C106.425 83.0961 105.467 84.0649 104.272 84.0649C103.077 84.0649 102.119 83.1069 102.119 81.9119C102.119 80.717 103.077 79.7589 104.272 79.7589C105.467 79.7589 106.425 80.717 106.425 81.9119Z" fill="white"/>
<path d="M153.425 160.885C153.425 160.885 151.466 196.237 132.724 216.497" stroke="white" stroke-width="4.30603" stroke-miterlimit="10" stroke-linecap="round"/>
<path d="M122.54 303.995C122.54 303.995 145.136 319.336 152.219 343.654" stroke="white" stroke-width="4.30603" stroke-miterlimit="10" stroke-linecap="round"/>
<path d="M403.358 212.137C403.358 215.636 400.516 218.478 397.017 218.478C393.519 218.478 390.677 215.636 390.677 212.137C390.677 208.638 393.519 205.796 397.017 205.796C400.516 205.796 403.358 208.638 403.358 212.137Z" stroke="#4DB6DA" stroke-width="1.07651" stroke-miterlimit="10"/>
<path d="M418.946 368.694C418.946 372.192 416.104 375.034 412.605 375.034C409.106 375.034 406.265 372.192 406.265 368.694C406.265 365.195 409.106 362.353 412.605 362.353C416.104 362.353 418.946 365.195 418.946 368.694Z" stroke="#4DB6DA" stroke-width="1.07651" stroke-miterlimit="10"/>
<path d="M68.1871 276.211C68.1871 279.71 65.3451 282.552 61.8465 282.552C58.3478 282.552 55.5059 279.71 55.5059 276.211C55.5059 272.712 58.3478 269.87 61.8465 269.87C65.3451 269.87 68.1871 272.712 68.1871 276.211Z" stroke="#4DB6DA" stroke-width="1.07651" stroke-miterlimit="10"/>
<path d="M217.714 129.526C217.714 133.024 214.872 135.866 211.373 135.866C207.875 135.866 205.033 133.024 205.033 129.526C205.033 126.027 207.875 123.185 211.373 123.185C214.872 123.185 217.714 126.027 217.714 129.526Z" stroke="#4DB6DA" stroke-width="1.07651" stroke-miterlimit="10"/>
<path d="M337.099 156.406C337.099 158.882 335.097 160.895 332.61 160.895C330.123 160.895 328.121 158.893 328.121 156.406C328.121 153.919 330.123 151.917 332.61 151.917C335.097 151.917 337.099 153.93 337.099 156.406Z" stroke="#4DB6DA" stroke-width="1.07651" stroke-miterlimit="10"/>
<path d="M432.262 236.359L427.913 240.718L423.553 236.359L421.056 238.856L425.416 243.205L421.056 247.565L423.553 250.062L427.913 245.703L432.262 250.062L434.76 247.565L430.4 243.205L434.76 238.856L432.262 236.359Z" fill="#4DB6DA"/>
<path d="M377.263 385.961L372.904 390.321L368.555 385.961L366.057 388.458L370.417 392.807L366.057 397.167L368.555 399.665L372.904 395.305L377.263 399.665L379.761 397.167L375.401 392.807L379.761 388.458L377.263 385.961Z" fill="#4DB6DA"/>
<path d="M359.469 58.1748L355.109 62.5347L350.749 58.1748L348.251 60.6723L352.611 65.0322L348.251 69.392L350.749 71.8788L355.109 67.5189L359.469 71.8788L361.955 69.392L357.596 65.0322L361.955 60.6723L359.469 58.1748Z" fill="#4DB6DA"/>
<path d="M35.5149 240.492L31.1551 244.841L26.7952 240.492L24.2977 242.979L28.6576 247.339L24.2977 251.699L26.7952 254.185L31.1551 249.836L35.5149 254.185L38.0017 251.699L33.6418 247.339L38.0017 242.979L35.5149 240.492Z" fill="#4DB6DA"/>
</svg>
