<svg width="791" height="517" viewBox="0 0 791 517" fill="none" xmlns="http://www.w3.org/2000/svg">
<path d="M645.18 503.352H213.615L359.095 98.2743H790.66L645.18 503.352Z" fill="white" fill-opacity="0.3"/>
<path d="M251.948 384.77C147.52 384.77 62.8496 300.378 62.8496 196.296C62.8496 92.2133 147.52 7.82199 251.948 7.82199H441.046V196.296C441.046 300.378 356.375 384.77 251.948 384.77Z" fill="white" fill-opacity="0.3"/>
<path d="M600.338 68.0454H142.413C129.498 68.0454 119.029 78.5147 119.029 91.4293V387.824C119.029 400.739 129.498 411.208 142.413 411.208H600.338C613.253 411.208 623.722 400.739 623.722 387.824V91.4293C623.722 78.5147 613.253 68.0454 600.338 68.0454Z" fill="white"/>
<path d="M600.338 68.0454H142.413C129.498 68.0454 119.029 78.5147 119.029 91.4293V387.824C119.029 400.739 129.498 411.208 142.413 411.208H600.338C613.253 411.208 623.722 400.739 623.722 387.824V91.4293C623.722 78.5147 613.253 68.0454 600.338 68.0454Z" stroke="black" stroke-width="1.17212" stroke-miterlimit="10"/>
<path d="M138.451 100.666H604.3" stroke="black" stroke-width="1.17212" stroke-miterlimit="10"/>
<path d="M530.796 84.7834C530.796 89.003 527.385 92.4139 523.165 92.4139C518.946 92.4139 515.535 89.003 515.535 84.7834C515.535 80.5637 518.946 77.1528 523.165 77.1528C527.385 77.1528 530.796 80.5637 530.796 84.7834Z" fill="#4DB6DA"/>
<path d="M561.318 84.7834C561.318 89.003 557.907 92.4139 553.688 92.4139C549.468 92.4139 546.057 89.003 546.057 84.7834C546.057 80.5637 549.468 77.1528 553.688 77.1528C557.907 77.1528 561.318 80.5637 561.318 84.7834Z" fill="#5EBDC4"/>
<path d="M591.852 84.7834C591.852 89.003 588.441 92.4139 584.221 92.4139C580.002 92.4139 576.591 89.003 576.591 84.7834C576.591 80.5637 580.002 77.1528 584.221 77.1528C588.441 77.1528 591.852 80.5637 591.852 84.7834Z" fill="#FF6F80"/>
<path d="M380.307 34.6751H255.968C243.733 34.6751 233.815 44.5934 233.815 56.8283V244.555C233.815 256.79 243.733 266.709 255.968 266.709H380.307C392.542 266.709 402.46 256.79 402.46 244.555V56.8283C402.46 44.5934 392.542 34.6751 380.307 34.6751Z" fill="#FF6F80"/>
<path d="M379.709 29.9866H247.189C237.213 29.9866 229.127 38.0734 229.127 48.049V243.958C229.127 253.933 237.213 262.02 247.189 262.02H379.709C389.685 262.02 397.772 253.933 397.772 243.958V48.049C397.772 38.0734 389.685 29.9866 379.709 29.9866Z" fill="white" stroke="black" stroke-width="1.17212" stroke-miterlimit="10"/>
<path d="M361.998 201.714H264.888C261.489 201.714 258.734 198.96 258.734 195.561C258.734 192.162 261.489 189.407 264.888 189.407H361.998C365.398 189.407 368.152 192.162 368.152 195.561C368.152 198.96 365.398 201.714 361.998 201.714Z" fill="#4DB6DA"/>
<path d="M352.973 213.717H273.925C272.448 213.717 271.253 212.521 271.253 211.045C271.253 209.568 272.448 208.372 273.925 208.372H352.973C354.45 208.372 355.645 209.568 355.645 211.045C355.645 212.521 354.45 213.717 352.973 213.717Z" fill="#4DB6DA"/>
<path d="M352.973 225.731H273.925C272.448 225.731 271.253 224.536 271.253 223.059C271.253 221.582 272.448 220.386 273.925 220.386H352.973C354.45 220.386 355.645 221.582 355.645 223.059C355.645 224.536 354.45 225.731 352.973 225.731Z" fill="#4DB6DA"/>
<path d="M352.973 237.745H273.925C272.448 237.745 271.253 236.55 271.253 235.073C271.253 233.596 272.448 232.401 273.925 232.401H352.973C354.45 232.401 355.645 233.596 355.645 235.073C355.645 236.55 354.45 237.745 352.973 237.745Z" fill="#4DB6DA"/>
<path d="M258.746 162.507L261.395 167.887L267.338 168.754L263.036 172.939L264.056 178.858L258.746 176.068L253.425 178.858L254.445 172.939L250.143 168.754L256.085 167.887L258.746 162.507Z" fill="#FFEA5B"/>
<path d="M286.092 162.507L288.753 167.887L294.683 168.754L290.393 172.939L291.402 178.858L286.092 176.068L280.782 178.858L281.79 172.939L277.5 168.754L283.431 167.887L286.092 162.507Z" fill="#FFEA5B"/>
<path d="M313.437 162.507L316.098 167.887L322.041 168.754L317.739 172.939L318.759 178.858L313.437 176.068L308.128 178.858L309.147 172.939L304.846 168.754L310.788 167.887L313.437 162.507Z" fill="#FFEA5B"/>
<path d="M340.795 162.507L343.444 167.887L349.387 168.754L345.097 172.939L346.105 178.858L340.795 176.068L335.485 178.858L336.493 172.939L332.203 168.754L338.134 167.887L340.795 162.507Z" fill="#FFEA5B"/>
<path d="M368.14 162.507L370.801 167.887L376.744 168.754L372.442 172.939L373.462 178.858L368.14 176.068L362.831 178.858L363.85 172.939L359.549 168.754L365.491 167.887L368.14 162.507Z" fill="#FFEA5B"/>
<path d="M366.933 108.542C374.364 79.0048 356.443 49.0453 326.905 41.614C297.368 34.1828 267.385 52.0928 259.953 81.6303C252.979 109.339 268.334 137.447 294.648 146.953L267.959 253.018L278.766 255.738L305.455 149.672C333.141 153.751 359.947 136.263 366.921 108.542H366.933ZM301.986 140.658C276.82 134.329 261.548 108.788 267.877 83.6229C274.207 58.4575 299.735 43.1964 324.901 49.5376C350.066 55.8671 365.327 81.3842 358.998 106.55C352.668 131.715 327.151 146.988 301.986 140.658Z" fill="#26303C"/>
<path d="M115.067 446.008L104.94 470.025L128.559 480.504L141.194 456.604L115.067 446.008Z" fill="#EF959A"/>
<g style="mix-blend-mode:multiply">
<path d="M112.969 450.943C115.56 459.312 125.816 467.317 134.548 469.158L141.182 456.604L115.056 446.008L112.969 450.943Z" fill="#EF959A"/>
</g>
<path d="M224.204 455.866L229.654 481.348L256.754 478.218L251.678 449.571L224.204 455.866Z" fill="#EF959A"/>
<g style="mix-blend-mode:multiply">
<path d="M224.204 455.854L228.072 473.952C237.214 473.412 249.815 468.677 254.316 464.399L251.69 449.583L224.204 455.854Z" fill="#EF959A"/>
</g>
<path d="M132.837 211.419C132.837 211.419 123.741 231.674 123.178 236.667C122.241 244.989 146.152 286.377 146.152 286.377L157.932 278.184C157.932 278.184 144.792 246.044 144.616 243.993C144.441 241.942 153.489 219.437 153.489 219.437L132.825 211.408L132.837 211.419Z" fill="#EF959A"/>
<path d="M137.267 386.441C140.936 378.916 146.398 373.126 146.398 373.126C146.398 373.126 146.293 320.767 145.601 310.476C141.768 289.553 144.827 285.041 147.101 275.933C148.461 270.506 220.195 274.749 220.195 274.749L223.231 283.259L231.787 331.972L254.48 461.762C247.248 465.454 228.693 468.665 218.765 466.743C218.765 466.743 204.008 395.091 203.574 391.047C202.554 381.729 203.949 374.251 203.949 374.251C203.949 374.251 195.17 352.918 187.868 334.997C187.868 334.997 187.692 370.524 183.754 381.506C180.776 389.84 142.049 463.391 142.049 463.391C130.387 462.91 120.623 458.573 113.028 449.876C113.028 449.876 131.969 397.33 137.279 386.441H137.267Z" fill="#7FEBFF"/>
<path d="M159.315 124.225C162.808 111.262 183.941 105.272 193.178 117.45C197.737 123.452 203.152 149.18 197.737 155.861C195.78 158.275 191.935 158.85 188.384 158.768C189.521 163.667 191.291 171.216 191.431 171.415C192.451 172.857 193.705 174.709 188.853 176.139C178.21 179.233 166.09 177.065 166.09 177.065L170.392 152.626C169.161 151.618 154.943 140.365 159.303 124.237L159.315 124.225Z" fill="#EF959A"/>
<path d="M233.522 195.725L244.927 209.907L281.86 179.632C281.86 179.632 282.81 176.068 285.06 171.239C286.021 169.176 288.6 165.707 289.96 164.382C292.515 161.909 294.449 159.705 295.023 159.834C295.598 159.928 297.52 162.061 296.02 164.699C295.469 165.636 294.132 167.77 293.757 169.293C293.476 170.454 294.004 171.204 294.379 171.052C298.422 169.387 302.255 162.436 302.255 162.436L303.381 157.982C303.381 157.982 306.006 159.53 306.498 162.073C306.698 163.093 305.936 165.191 305.467 166.351C305.901 166.785 306.475 168.168 306.534 168.696C306.627 169.657 306.733 171.134 305.561 173.173C305.865 173.865 305.924 174.943 305.854 175.892C305.397 181.788 299.255 186.02 293.042 189.114C292.48 189.606 267.244 224.36 250.635 238.589C245.267 243.184 238.632 242.176 236.171 240.676C230.568 237.241 213.737 214.83 213.737 214.83L233.534 195.713L233.522 195.725Z" fill="#EF959A"/>
<path d="M129.719 215.545C129.719 215.545 138.252 195.221 142.694 187.45C147.137 179.678 152.095 178.682 152.095 178.682C164.707 173.712 202.531 170.712 210.466 171.603C213.033 171.896 215.893 172.95 221.355 179.362C225.036 183.675 233.077 193.838 240.238 203.367C235.245 207.458 228.341 213.014 219.386 220.269C219.668 223.75 224.391 255.491 227.826 281.372C227.826 281.372 222.774 283.939 214.17 286.963L208.685 276.461L207.853 289.049C191.666 294.078 167.274 299.059 140.913 295.379C143.069 265.279 144.57 241.848 145.707 222.906L129.719 215.534V215.545Z" fill="#4DB6DA"/>
<path d="M195.299 122.408C201.347 116.771 202.602 106.081 197.819 101.299C197.046 100.525 192.685 100.044 187.036 100.314C187.634 98.7316 187.493 97.0086 185.184 95.7896C179.804 92.9765 164.953 104.241 164.953 104.241C164.953 104.241 162.773 101.041 159.057 104.241C155.342 107.44 155.295 117.298 155.295 117.298C155.154 119.15 155.424 121.189 156.174 123.428C148.836 125.409 150.348 131.774 150.594 134.329C151.626 144.796 163.582 156.611 168.997 159.178L182.523 155.158C182.523 155.158 183.637 144.597 183.625 144.233C183.543 142.159 185.418 140.272 186.543 136.544C187.821 132.289 186.602 128.21 185.946 127.32C185.946 127.32 189.251 128.023 195.299 122.385V122.408Z" fill="#26303C"/>
<path d="M215.471 222.379L198.745 201.714L210.033 225.731L215.471 222.379Z" fill="black"/>
<path d="M187.856 334.996L174.283 305.963C174.283 305.963 187.317 352.848 187.364 352.473C187.411 352.098 187.868 334.996 187.868 334.996H187.856Z" fill="black"/>
<path d="M145.695 222.906L147.383 198.21L140.854 220.679L145.695 222.906Z" fill="black"/>
<path d="M229.654 481.348L248.302 479.191L255.898 473.412C255.898 473.412 264.9 483 265.076 483.551L274.617 482.801C295.211 482.344 292.316 502.446 292.316 502.446H228.587C226.102 487.044 229.654 481.348 229.654 481.348Z" fill="#26303C"/>
<path d="M106.159 467.13C106.159 467.13 113.895 469.802 123.448 474.831L131.336 475.229L135.052 484.161C137.853 483.645 144.769 482.789 150.946 485.392C162.866 490.408 159.631 502.446 159.631 502.446H120.693L93.0314 489.81C93.0314 489.81 99.7594 472.862 106.159 467.13Z" fill="#26303C"/>
<path d="M305.256 166.703C305.256 166.703 303.521 171.075 299.231 174.662" stroke="black" stroke-width="0.468849" stroke-linecap="round" stroke-linejoin="round"/>
<path d="M305.432 173.337C305.432 173.337 303.041 176.959 300.146 178.881" stroke="black" stroke-width="0.468849" stroke-linecap="round" stroke-linejoin="round"/>
<mask id="mask0_2013_92" style="mask-type:luminance" maskUnits="userSpaceOnUse" x="266" y="48" width="95" height="95">
<path d="M313.437 142.077C339.39 142.077 360.428 121.038 360.428 95.0864C360.428 69.1343 339.39 48.0959 313.437 48.0959C287.485 48.0959 266.447 69.1343 266.447 95.0864C266.447 121.038 287.485 142.077 313.437 142.077Z" fill="white"/>
</mask>
<g mask="url(#mask0_2013_92)">
<path d="M323.459 104.838C322.334 102.236 321.865 100.068 321.701 98.4269C321.607 97.5244 321.619 96.7859 321.654 96.2233C321.701 95.3794 321.83 94.934 321.83 94.934L321.385 95.0512C321.385 94.9809 321.396 94.934 321.396 94.934L313.473 97.1493L305.549 94.934C305.549 94.934 305.549 94.9809 305.561 95.0512L305.115 94.934C305.115 94.934 305.244 95.3794 305.291 96.2233C305.326 96.7859 305.326 97.5244 305.244 98.4269C305.08 100.068 304.611 102.236 303.486 104.838C303.486 104.838 302.748 106.714 297.649 107.37C297.649 107.37 298.024 108.742 298.938 110.629C299.044 110.851 299.161 111.086 299.29 111.32C299.595 111.906 299.958 112.539 300.368 113.184C301.025 114.215 301.822 115.282 302.759 116.302C303.697 118.986 305.784 121.236 308.186 121.6C309.382 121.787 310.519 121.869 311.597 121.869C312.031 121.869 312.453 121.846 312.863 121.822C313.074 121.811 313.273 121.787 313.473 121.776C313.672 121.799 313.871 121.811 314.082 121.822C314.492 121.846 314.914 121.869 315.348 121.869C316.426 121.869 317.563 121.787 318.759 121.6C321.162 121.225 323.248 118.974 324.186 116.302C325.135 115.282 325.921 114.204 326.577 113.184C326.987 112.539 327.339 111.918 327.655 111.32C327.902 110.851 328.113 110.394 328.3 109.984C329.003 108.437 329.191 107.698 329.191 107.698C324.092 107.042 323.459 104.838 323.459 104.838Z" fill="#FF6F80"/>
<path d="M321.713 98.4269C321.619 97.5243 321.642 96.7859 321.677 96.2233L321.349 95.5903L313.484 97.6884L305.619 95.5903L305.291 96.2233C305.326 96.7859 305.326 97.5243 305.244 98.4269C306.311 100.162 308.936 103.467 313.473 103.467C318.009 103.455 320.611 100.15 321.677 98.4152L321.713 98.4269Z" fill="black"/>
<path d="M299.208 80.0363C299.208 80.0363 300.099 83.0252 300.837 86.9166C301.247 89.0733 300.931 90.14 299.032 89.8469C297.555 89.6125 293.793 85.1936 295.082 81.3842C295.387 80.4934 296.957 78.9227 299.22 80.0245L299.208 80.0363Z" fill="#FF6F80"/>
<path d="M328.054 89.8587C327.96 89.8704 327.878 89.8821 327.796 89.8938C326.12 90.0579 325.85 88.9796 326.237 86.9284C326.284 86.6471 326.343 86.3775 326.389 86.1079C327.093 82.615 327.855 80.0363 327.855 80.0363C330.117 78.9345 331.699 80.5051 331.992 81.3959C333.282 85.1936 329.519 89.6242 328.042 89.8587H328.054Z" fill="#FF6F80"/>
<path d="M313.496 70.2021H296.653C296.653 70.2021 298.083 75.0782 299.079 80.5872C300.72 89.7649 301.107 101.521 313.508 101.521C325.909 101.521 326.296 89.7883 327.925 80.5989C328.886 75.1602 330.351 70.2021 330.351 70.2021H313.496Z" fill="#FF6F80"/>
<path d="M356.947 147.82C356.911 147.433 356.876 147.046 356.853 146.648C359.584 145.523 361.494 144.608 361.494 144.608C357.017 129.09 352.305 120.263 348.847 115.552C346.034 111.73 331.394 108.109 331.394 108.109C329.742 107.605 328.3 107.171 327.444 106.866C327.128 106.854 326.835 107.03 326.706 107.323C326.46 107.874 325.991 108.87 325.288 110.078C325.182 110.148 325.112 110.265 325.1 110.394C323.26 113.512 319.978 117.837 315.196 119.818C314.129 120.263 312.898 120.263 311.832 119.818C307.049 117.837 303.767 113.5 301.927 110.394C301.915 110.265 301.845 110.148 301.74 110.078C301.036 108.87 300.567 107.874 300.321 107.323C300.192 107.03 299.899 106.854 299.571 106.866C298.563 106.925 295.75 107.534 292.843 108.402C292.843 108.402 292.773 108.425 292.656 108.46C291.378 108.847 290.1 109.292 288.952 109.761C285.306 111.156 280.114 113.489 277.887 116.161C273.89 120.943 271.147 129.558 265.533 144.608C265.533 144.608 278.028 150.633 284.826 150.891L285.342 167.078L285.506 172.118C293.98 176.197 303.486 178.483 313.531 178.483C323.576 178.483 332.953 176.221 341.404 172.177L342.084 150.856C345.999 150.727 351.86 148.664 356.114 146.941L356.97 147.797L356.947 147.82Z" fill="#4DB6DA"/>
<path d="M334.032 60.8017C331.523 56.6993 309.933 50.3815 301.986 54.7536C297.145 57.4143 299.396 61.9152 299.396 61.9152C299.396 61.9152 294.637 60.3329 294.625 66.0528C294.625 69.0535 295.106 69.663 295.821 71.7376C296.055 75.8518 297.731 79.7549 297.731 79.7549L299.067 80.5754C299.067 80.5754 300.931 71.6321 302.818 70.8703C306.604 70.0029 311.41 73.8357 320.869 74.0819C322.674 74.1288 324.338 73.8943 325.862 73.4606C327.022 76.3558 327.913 80.5754 327.913 80.5754L329.25 79.7549C329.25 79.7549 331.289 74.9492 331.559 70.3545C334.653 67.5531 335.802 63.6969 334.02 60.7666L334.032 60.8017Z" fill="#FFEA5B"/>
<path d="M340.385 129.91C340.385 129.91 340.42 130.238 340.49 130.813C340.561 131.387 340.654 132.196 340.76 133.18C340.865 134.165 340.994 135.302 341.123 136.533C341.24 137.763 341.358 139.064 341.486 140.377C341.592 141.69 341.686 142.991 341.78 144.222C341.862 145.452 341.908 146.601 341.967 147.586C342.061 149.555 342.049 150.879 342.049 150.879C342.049 150.879 341.979 150.551 341.873 149.989C341.78 149.414 341.604 148.617 341.463 147.633C341.322 146.66 341.135 145.523 340.994 144.292C340.842 143.073 340.713 141.76 340.596 140.448C340.49 139.135 340.396 137.822 340.338 136.591C340.267 135.36 340.279 134.2 340.256 133.216C340.244 132.231 340.291 131.399 340.303 130.824C340.326 130.25 340.361 129.922 340.361 129.922L340.385 129.91Z" fill="black"/>
<path d="M286.502 129.91C286.502 129.91 286.537 130.238 286.561 130.813C286.572 131.387 286.631 132.219 286.607 133.204C286.584 134.188 286.596 135.349 286.525 136.579C286.478 137.81 286.373 139.123 286.268 140.436C286.15 141.749 286.021 143.061 285.869 144.28C285.728 145.511 285.541 146.648 285.4 147.621C285.259 148.594 285.084 149.403 284.99 149.977C284.873 150.539 284.814 150.868 284.814 150.868C284.814 150.868 284.814 149.543 284.896 147.574C284.955 146.589 284.99 145.441 285.084 144.21C285.177 142.979 285.283 141.678 285.377 140.365C285.494 139.053 285.623 137.752 285.74 136.521C285.869 135.302 285.998 134.153 286.103 133.169C286.221 132.184 286.314 131.375 286.373 130.801C286.443 130.227 286.478 129.898 286.478 129.898L286.502 129.91Z" fill="black"/>
<path d="M315.758 119.971C316.145 119.888 316.309 119.818 316.309 119.818L317.446 115.61L313.484 112.821L309.523 115.61L310.66 119.818C310.66 119.818 310.824 119.888 311.21 119.971C310.953 122.069 305.854 164.558 306.088 168.379C306.569 176.209 311.164 183.347 312.851 185.738C313.156 186.172 313.801 186.172 314.106 185.738C315.805 183.347 320.388 176.209 320.869 168.379C321.103 164.558 316.004 122.069 315.747 119.971H315.758Z" fill="white"/>
<path d="M299.571 106.866L303.556 104.674C303.556 104.674 305.737 109.14 313.484 112.809C313.484 112.809 312.488 113.594 311.621 116.149C311.316 117.052 310.706 119.853 310.706 119.853C310.706 119.853 302.959 117.509 299.571 106.854V106.866Z" fill="black"/>
<path d="M327.386 106.866L323.401 104.674C323.401 104.674 321.22 109.14 313.473 112.809C313.473 112.809 314.469 113.594 315.336 116.149C315.641 117.052 316.251 119.853 316.251 119.853C316.251 119.853 323.998 117.509 327.386 106.854V106.866Z" fill="black"/>
</g>
<path d="M564.823 206.098H432.302C422.327 206.098 414.24 214.185 414.24 224.16V420.069C414.24 430.045 422.327 438.132 432.302 438.132H564.823C574.798 438.132 582.885 430.045 582.885 420.069V224.16C582.885 214.185 574.798 206.098 564.823 206.098Z" fill="white" stroke="black" stroke-width="1.17212" stroke-miterlimit="10"/>
<mask id="mask1_2013_92" style="mask-type:luminance" maskUnits="userSpaceOnUse" x="449" y="234" width="100" height="100">
<path d="M498.562 333.074C525.893 333.074 548.05 310.918 548.05 283.587C548.05 256.256 525.893 234.1 498.562 234.1C471.232 234.1 449.075 256.256 449.075 283.587C449.075 310.918 471.232 333.074 498.562 333.074Z" fill="white"/>
</mask>
<g mask="url(#mask1_2013_92)">
<path d="M484.474 269.955C484.474 269.955 482.505 268.15 481.004 269.205C479.504 270.26 479.961 277.504 485.47 277.879L484.462 269.955H484.474Z" fill="#EF959A"/>
<path d="M511.597 269.791C511.597 269.791 513.542 267.963 515.054 268.994C516.566 270.037 516.191 277.281 510.682 277.715L511.597 269.78V269.791Z" fill="#EF959A"/>
<path d="M513.026 296.176C511.737 299.024 507.775 305.412 498.293 305.904C488.963 305.412 484.989 299.223 483.618 296.305C485.306 295.766 487.697 294.804 488.928 293.492C490.006 292.343 490.826 289.964 491.366 288.006C491.659 286.963 491.448 285.205 491.237 284.009H505.279C505.126 285.228 505.009 286.799 505.208 287.901C505.537 289.753 506.064 291.78 506.885 292.8C507.822 293.984 510.647 295.262 513.026 296.176Z" fill="#EF959A"/>
<path d="M492.303 287.314C492.303 287.314 494.87 291.194 498 291.3C501.141 291.417 504.224 287.045 504.224 287.045L492.303 287.303V287.314Z" fill="black"/>
<path d="M511.808 263.602L497.965 257.765L484.192 263.767C484.192 263.767 483.935 272.804 485.529 278.395C487.017 283.646 492.081 288.147 497.156 289.682C497.801 289.881 498.504 289.87 499.149 289.682C504.212 288.088 509.217 283.529 510.647 278.254C512.171 272.639 511.808 263.614 511.808 263.614V263.602Z" fill="#EF959A"/>
<path d="M494.976 253.792C494.976 253.792 492.163 250.229 492.21 244.591C492.397 236.163 506.803 233.502 509.698 243.383C510.6 245.622 508.678 252.62 504.704 255.62C501.516 258.023 497.672 256.828 494.976 253.792Z" fill="black"/>
<path d="M490.979 249.537C490.979 249.537 491.366 245.751 499.336 246.443C505.326 246.958 510.342 249.654 509.838 252.772C509.123 257.121 490.698 253.968 490.979 249.537Z" fill="#FF6F80"/>
<path d="M511.772 252.866C508.701 251.072 505.701 251.846 504.306 252.713C502.149 249.373 496.031 248.716 493.335 248.951C485.646 249.607 480.301 254.108 481.051 261.516C481.309 264.036 482.27 268.971 482.27 268.971C494.8 274.714 502.747 266.533 504.962 262.77C505.923 265.126 508.549 270.659 514.304 270.823C514.304 270.823 515.289 267.236 515.863 264.552C516.789 260.274 515.886 255.292 511.784 252.878L511.772 252.866Z" fill="black"/>
<path d="M519.414 377.439C519.414 377.439 519.414 377.486 519.438 377.509C515.429 378.963 507.635 380.698 498.445 380.698C489.256 380.698 480.406 378.189 476.28 376.431C476.538 375.716 478.918 372.223 479.164 364.253C479.539 351.77 476.421 328.386 474.792 323.275C473.667 319.724 469.646 302.107 469.646 302.107L485.95 295.238C486.009 295.308 486.044 295.379 486.103 295.437C492.28 303.525 504.611 303.525 510.776 295.437C510.835 295.367 510.881 295.297 510.94 295.238L526.271 301.181C526.271 301.181 520.551 327.952 518.36 347.878C516.367 365.941 518.875 375.611 519.368 377.251C519.391 377.334 519.414 377.404 519.426 377.451L519.414 377.439Z" fill="white"/>
<path d="M491.026 374.79H474.557C475.425 371.848 476.409 368.718 477.488 365.448C480.055 357.724 477.007 335.36 477.007 335.36L476.749 334.152C475.905 336.169 475.003 338.314 474.135 340.412L457.726 334.446C458.054 332.969 462.168 317.731 464.407 309.468C465.098 306.889 466.739 302.728 470.232 301.181C473.596 299.692 484.028 296.047 484.028 296.047C484.028 296.047 489.748 307.557 491.752 323.639C495.152 350.914 494.519 364.651 491.026 374.79Z" fill="#4DB6DA"/>
<path d="M520.118 335.36C520.118 335.36 517.07 357.724 519.637 365.448C520.716 368.718 521.7 371.848 522.568 374.79H506.099C502.606 364.651 501.973 350.914 505.373 323.639C507.377 307.557 513.097 296.047 513.097 296.047C513.097 296.047 523.529 299.692 526.893 301.181C530.386 302.728 532.027 306.889 532.73 309.468C534.957 317.731 539.071 332.969 539.399 334.446L522.99 340.412C522.122 338.314 521.22 336.169 520.376 334.152L520.118 335.36Z" fill="#4DB6DA"/>
<path d="M482.188 298.789L479.258 313.054L485.997 317.708L481.625 322.607C481.625 322.607 494.097 347.245 490.979 369.515" stroke="black" stroke-width="0.468849" stroke-linecap="round" stroke-linejoin="round"/>
<path d="M515.711 298.789L518.641 313.054L511.901 317.708L516.273 322.607C516.273 322.607 503.802 347.245 506.92 369.515" stroke="black" stroke-width="0.468849" stroke-linecap="round" stroke-linejoin="round"/>
</g>
<path d="M498.562 333.074C525.893 333.074 548.05 310.918 548.05 283.587C548.05 256.256 525.893 234.1 498.562 234.1C471.232 234.1 449.075 256.256 449.075 283.587C449.075 310.918 471.232 333.074 498.562 333.074Z" stroke="#FF6F80" stroke-width="2.34425" stroke-miterlimit="10"/>
<path d="M455.007 345.956L457.116 350.246L461.852 350.937L458.429 354.266L459.238 358.978L455.007 356.751L450.775 358.978L451.584 354.266L448.161 350.937L452.897 350.246L455.007 345.956Z" fill="#FFEA5B"/>
<path d="M476.784 345.956L478.906 350.246L483.63 350.937L480.207 354.266L481.016 358.978L476.784 356.751L472.553 358.978L473.362 354.266L469.939 350.937L474.675 350.246L476.784 345.956Z" fill="#FFEA5B"/>
<path d="M498.563 345.956L500.684 350.246L505.408 350.937L501.985 354.266L502.794 358.978L498.563 356.751L494.331 358.978L495.14 354.266L491.717 350.937L496.453 350.246L498.563 345.956Z" fill="#FFEA5B"/>
<path d="M520.352 345.956L522.462 350.246L527.186 350.937L523.775 354.266L524.572 358.978L520.352 356.751L516.121 358.978L516.93 354.266L513.507 350.937L518.231 350.246L520.352 345.956Z" fill="black"/>
<path d="M542.13 345.956L544.24 350.246L548.976 350.937L545.553 354.266L546.362 358.978L542.13 356.751L537.899 358.978L538.708 354.266L535.285 350.937L540.009 350.246L542.13 345.956Z" fill="black"/>
<path d="M541.755 370.488H455.382C452.358 370.488 449.908 372.936 449.908 375.956C449.908 378.976 452.358 381.424 455.382 381.424H541.755C544.778 381.424 547.229 378.976 547.229 375.956C547.229 372.936 544.778 370.488 541.755 370.488Z" fill="#4DB6DA"/>
<path d="M533.726 392.114H463.411C462.098 392.114 461.031 391.047 461.031 389.735C461.031 388.422 462.098 387.355 463.411 387.355H533.726C535.039 387.355 536.106 388.422 536.106 389.735C536.106 391.047 535.039 392.114 533.726 392.114Z" fill="#4DB6DA"/>
<path d="M533.726 398.045H463.411C462.097 398.045 461.031 399.108 461.031 400.418C461.031 401.729 462.097 402.792 463.411 402.792H533.726C535.04 402.792 536.106 401.729 536.106 400.418C536.106 399.108 535.04 398.045 533.726 398.045Z" fill="#4DB6DA"/>
<path d="M533.726 413.482H463.411C462.098 413.482 461.031 412.415 461.031 411.102C461.031 409.79 462.098 408.723 463.411 408.723H533.726C535.039 408.723 536.106 409.79 536.106 411.102C536.106 412.415 535.039 413.482 533.726 413.482Z" fill="#4DB6DA"/>
<path d="M519.649 210.775H477.851C475.272 210.775 473.174 208.688 473.174 206.098C473.174 203.519 475.261 201.421 477.851 201.421H519.649C522.228 201.421 524.326 203.508 524.326 206.098C524.326 208.677 522.239 210.775 519.649 210.775Z" fill="black"/>
<path opacity="0.3" d="M694.867 457.303C700.095 455.124 702.566 449.119 700.387 443.891C698.207 438.662 692.202 436.191 686.974 438.37C681.746 440.55 679.274 446.555 681.454 451.783C683.633 457.011 689.638 459.483 694.867 457.303Z" stroke="#FF6F80" stroke-width="1.17212" stroke-miterlimit="10"/>
<path d="M9.30666 320.65C14.4466 320.65 18.6133 316.483 18.6133 311.343C18.6133 306.203 14.4466 302.036 9.30666 302.036C4.16673 302.036 0 306.203 0 311.343C0 316.483 4.16673 320.65 9.30666 320.65Z" fill="#FF6F80"/>
<path d="M94.3207 418.686C98.4507 418.686 101.799 415.338 101.799 411.208C101.799 407.078 98.4507 403.73 94.3207 403.73C90.1906 403.73 86.8425 407.078 86.8425 411.208C86.8425 415.338 90.1906 418.686 94.3207 418.686Z" stroke="#FF6F80" stroke-width="1.17212" stroke-miterlimit="10"/>
<path d="M705.852 327.26C705.852 331.386 702.512 334.739 698.374 334.739C694.237 334.739 690.896 331.398 690.896 327.26C690.896 323.123 694.237 319.782 698.374 319.782C702.512 319.782 705.852 323.123 705.852 327.26Z" fill="#FF6F80"/>
<path d="M375.618 8.47815C375.618 12.604 372.278 15.9563 368.14 15.9563C364.003 15.9563 360.662 12.6157 360.662 8.47815C360.662 4.34055 364.003 1 368.14 1C372.278 1 375.618 4.34055 375.618 8.47815Z" stroke="#FF6F80" stroke-width="1.17212" stroke-miterlimit="10"/>
<path d="M720 342.369C720 344.795 718.031 346.765 715.604 346.765C713.178 346.765 711.209 344.795 711.209 342.369C711.209 339.943 713.178 337.974 715.604 337.974C718.031 337.974 720 339.943 720 342.369Z" fill="#FF6F80"/>
<path d="M676.303 29.9866C676.303 32.4129 674.334 34.3821 671.908 34.3821C669.481 34.3821 667.512 32.4129 667.512 29.9866C667.512 27.5603 669.481 25.5911 671.908 25.5911C674.334 25.5911 676.303 27.5603 676.303 29.9866Z" fill="#FF6F80"/>
<path d="M118.701 23.7626C118.701 26.1889 116.732 28.1581 114.306 28.1581C111.879 28.1581 109.91 26.1889 109.91 23.7626C109.91 21.3364 111.879 19.3672 114.306 19.3672C116.732 19.3672 118.701 21.3364 118.701 23.7626Z" fill="#FF6F80"/>
<path d="M106.874 273.179C106.874 275.605 104.905 277.574 102.479 277.574C100.053 277.574 98.0834 275.605 98.0834 273.179C98.0834 270.752 100.053 268.783 102.479 268.783C104.905 268.783 106.874 270.752 106.874 273.179Z" fill="#FF6F80"/>
<path d="M710.248 190.509C710.248 192.935 708.279 194.904 705.852 194.904C703.426 194.904 701.457 192.935 701.457 190.509C701.457 188.083 703.426 186.113 705.852 186.113C708.279 186.113 710.248 188.083 710.248 190.509Z" fill="#FF6F80"/>
<path opacity="0.3" d="M431.587 48.9164C434.17 48.9164 436.264 46.8225 436.264 44.2396C436.264 41.6567 434.17 39.5628 431.587 39.5628C429.004 39.5628 426.911 41.6567 426.911 44.2396C426.911 46.8225 429.004 48.9164 431.587 48.9164Z" fill="#FF6F80"/>
<path opacity="0.3" d="M86.8425 102.389C95.4781 102.389 102.479 95.3881 102.479 86.7525C102.479 78.1169 95.4781 71.1164 86.8425 71.1164C78.2069 71.1164 71.2064 78.1169 71.2064 86.7525C71.2064 95.3881 78.2069 102.389 86.8425 102.389Z" fill="#FF6F80"/>
<path opacity="0.3" d="M277.823 432.432C278.873 425.985 274.498 419.908 268.051 418.858C261.604 417.808 255.527 422.183 254.477 428.63C253.427 435.077 257.802 441.154 264.249 442.204C270.696 443.254 276.773 438.879 277.823 432.432Z" fill="#FF6F80"/>
<path d="M271.241 268.232C252.921 293.527 254.468 337.212 296.313 346.987C354.52 360.584 366.417 305.307 351.098 303.033C328.218 299.633 317.716 392.841 406.598 371.426" stroke="black" stroke-width="0.586061" stroke-linejoin="round"/>
<path d="M566.862 147.832C597.9 128.89 661.429 150.024 634.646 216.272" stroke="black" stroke-width="0.586061" stroke-linejoin="round"/>
<path d="M361.447 100.15C373.313 100.15 382.932 90.5307 382.932 78.6648C382.932 66.799 373.313 57.1798 361.447 57.1798C349.582 57.1798 339.962 66.799 339.962 78.6648C339.962 90.5307 349.582 100.15 361.447 100.15Z" fill="white"/>
<path d="M361.447 54.0385C347.851 54.0385 336.821 65.0565 336.821 78.6649C336.821 92.2732 347.851 103.279 361.447 103.279C375.044 103.279 386.074 92.2615 386.074 78.6649C386.074 65.0682 375.044 54.0385 361.447 54.0385ZM361.447 97.5829C350.992 97.5829 342.529 89.1085 342.529 78.6649C342.529 68.2212 350.992 59.7468 361.447 59.7468C371.903 59.7468 380.366 68.2095 380.366 78.6649C380.366 89.1202 371.891 97.5829 361.447 97.5829Z" fill="#FF6F80"/>
<path d="M345.87 73.6951C345.87 73.6951 354.028 79.0868 361.447 91.2066C361.447 91.2066 368.691 74.2929 393.235 58.8912L385.535 51.0379C385.535 51.0379 370.778 63.5562 361.459 83.5995C361.459 83.5995 353.371 73.9295 345.882 73.7068L345.87 73.6951Z" fill="#FF6F80"/>
<path d="M622.526 277.445C634.392 277.445 644.011 267.826 644.011 255.96C644.011 244.094 634.392 234.475 622.526 234.475C610.66 234.475 601.041 244.094 601.041 255.96C601.041 267.826 610.66 277.445 622.526 277.445Z" fill="white"/>
<path d="M622.526 231.334C608.93 231.334 597.9 242.352 597.9 255.96C597.9 269.569 608.93 280.575 622.526 280.575C636.123 280.575 647.152 269.557 647.152 255.96C647.152 242.364 636.123 231.334 622.526 231.334ZM622.526 274.878C612.071 274.878 603.608 266.404 603.608 255.96C603.608 245.517 612.071 237.042 622.526 237.042C632.982 237.042 641.444 245.505 641.444 255.96C641.444 266.416 632.97 274.878 622.526 274.878Z" fill="#FF6F80"/>
<path d="M606.949 251.002C606.949 251.002 615.107 256.394 622.526 268.514C622.526 268.514 629.77 251.6 654.314 236.198L646.613 228.345C646.613 228.345 631.856 240.863 622.538 260.907C622.538 260.907 614.45 251.237 606.96 251.014L606.949 251.002Z" fill="#FF6F80"/>
<path d="M643.727 325.855C645.639 314.144 637.695 303.101 625.984 301.19C614.273 299.278 603.23 307.222 601.318 318.933C599.407 330.644 607.351 341.687 619.062 343.599C630.773 345.51 641.816 337.566 643.727 325.855Z" fill="white"/>
<path d="M622.526 297.781C608.929 297.781 597.9 308.799 597.9 322.408C597.9 336.016 608.929 347.022 622.526 347.022C636.123 347.022 647.152 336.004 647.152 322.408C647.152 308.811 636.123 297.781 622.526 297.781ZM622.526 341.326C612.071 341.326 603.608 332.851 603.608 322.408C603.608 311.964 612.071 303.49 622.526 303.49C632.981 303.49 641.444 311.952 641.444 322.408C641.444 332.863 632.97 341.326 622.526 341.326Z" fill="#FF6F80"/>
<path d="M606.949 317.438C606.949 317.438 615.107 322.83 622.526 334.949C622.526 334.949 629.77 318.036 654.314 302.634L646.613 294.781C646.613 294.781 631.856 307.299 622.538 327.342C622.538 327.342 614.45 317.672 606.96 317.45L606.949 317.438Z" fill="#FF6F80"/>
<path d="M134.719 120.8V179.558C134.719 182.864 132.046 185.548 128.741 185.548H45.1335C41.8281 185.548 39.1556 182.864 39.1556 179.558V120.8C39.1556 117.494 41.8281 114.81 45.1335 114.81H128.741C132.046 114.81 134.719 117.494 134.719 120.8Z" fill="white"/>
<path d="M134.719 120.8V179.558C134.719 182.864 132.046 185.548 128.741 185.548H45.1335C41.8281 185.548 39.1556 182.864 39.1556 179.558V120.8C39.1556 117.494 41.8281 114.81 45.1335 114.81H128.741C132.046 114.81 134.719 117.494 134.719 120.8Z" stroke="#26303C" stroke-width="1.17212" stroke-miterlimit="10"/>
<path d="M134.719 120.8V128.02H39.1556V120.8C39.1556 117.494 41.8281 114.81 45.1335 114.81H128.741C132.046 114.81 134.719 117.494 134.719 120.8Z" fill="#26303C"/>
<path d="M129.303 121.421C129.303 123.308 127.78 124.832 125.893 124.832C124.005 124.832 122.482 123.308 122.482 121.421C122.482 119.534 124.005 118.01 125.893 118.01C127.78 118.01 129.303 119.534 129.303 121.421Z" fill="#FF6F80"/>
<path d="M118.274 121.421C118.274 123.308 116.75 124.832 114.863 124.832C112.976 124.832 111.452 123.308 111.452 121.421C111.452 119.534 112.976 118.01 114.863 118.01C116.75 118.01 118.274 119.534 118.274 121.421Z" fill="#5EBDC4"/>
<path d="M107.244 121.421C107.244 123.308 105.72 124.832 103.833 124.832C101.946 124.832 100.422 123.308 100.422 121.421C100.422 119.534 101.946 118.01 103.833 118.01C105.72 118.01 107.244 119.534 107.244 121.421Z" fill="#4DB6DA"/>
<path opacity="0.5" d="M67.0872 132.029H49.2006C47.1162 132.029 45.4264 133.718 45.4264 135.803V176.768C45.4264 178.853 47.1162 180.543 49.2006 180.543H67.0872C69.1717 180.543 70.8615 178.853 70.8615 176.768V135.803C70.8615 133.718 69.1717 132.029 67.0872 132.029Z" fill="#4DB6DA"/>
<path opacity="0.5" d="M125.705 132.029H78.492C76.5111 132.029 74.9053 133.634 74.9053 135.615V149.095C74.9053 151.076 76.5111 152.681 78.492 152.681H125.705C127.686 152.681 129.292 151.076 129.292 149.095V135.615C129.292 133.634 127.686 132.029 125.705 132.029Z" fill="#4DB6DA"/>
<path opacity="0.2" d="M126.315 162.598H77.8942C76.2415 162.598 74.9053 161.261 74.9053 159.609C74.9053 157.956 76.2415 156.62 77.8942 156.62H126.315C127.967 156.62 129.304 157.956 129.304 159.609C129.304 161.261 127.967 162.598 126.315 162.598Z" fill="#4DB6DA"/>
<path opacity="0.2" d="M126.315 171.564H77.8942C76.2415 171.564 74.9053 170.228 74.9053 168.575C74.9053 166.923 76.2415 165.586 77.8942 165.586H126.315C127.967 165.586 129.304 166.923 129.304 168.575C129.304 170.228 127.967 171.564 126.315 171.564Z" fill="#4DB6DA"/>
<path opacity="0.2" d="M126.315 180.543H77.8942C76.2415 180.543 74.9053 179.207 74.9053 177.554C74.9053 175.901 76.2415 174.565 77.8942 174.565H126.315C127.967 174.565 129.304 175.901 129.304 177.554C129.304 179.207 127.967 180.543 126.315 180.543Z" fill="#4DB6DA"/>
<path d="M428.059 296.012H314.692C308.444 296.012 303.369 290.948 303.369 284.689C303.369 278.442 308.432 273.366 314.692 273.366H428.059C434.307 273.366 439.382 278.43 439.382 284.689C439.382 290.936 434.318 296.012 428.059 296.012Z" fill="white" stroke="#FF6F80" stroke-width="1.05491" stroke-miterlimit="10"/>
<path d="M426.395 283.915C426.395 287.244 423.699 289.94 420.37 289.94C417.041 289.94 414.345 287.244 414.345 283.915C414.345 280.586 417.041 277.891 420.37 277.891C423.699 277.891 426.395 280.586 426.395 283.915Z" stroke="#FF6F80" stroke-width="1.95745" stroke-miterlimit="10"/>
<path d="M424.625 288.17L427.954 291.499" stroke="#FF6F80" stroke-width="1.95745" stroke-miterlimit="10" stroke-linecap="round"/>
<path d="M696.851 109.48H646.942C644.417 109.48 642.37 111.527 642.37 114.051V143.624C642.37 146.149 644.417 148.195 646.942 148.195H696.851C699.375 148.195 701.422 146.149 701.422 143.624V114.051C701.422 111.527 699.375 109.48 696.851 109.48Z" stroke="white" stroke-width="1.17212" stroke-linejoin="round"/>
<path d="M701.434 117.392L675.155 135.138C673.197 136.462 670.63 136.462 668.661 135.138L642.382 117.392" stroke="white" stroke-width="1.17212" stroke-linejoin="round"/>
<path d="M660.339 129.523L642.37 143.612" stroke="white" stroke-width="1.17212" stroke-linejoin="round"/>
<path d="M683.465 129.523L701.434 143.612" stroke="white" stroke-width="1.17212" stroke-linejoin="round"/>
<path d="M455.006 1V76.8012" stroke="black" stroke-width="1.17212" stroke-linejoin="round"/>
<path d="M459.343 85.5335H450.681V79.2275C450.681 76.8364 452.615 74.8906 455.018 74.8906C457.409 74.8906 459.355 76.8246 459.355 79.2275V85.5335H459.343Z" fill="black"/>
<path d="M459.343 85.5335L486.114 104.041V108.671H423.898V104.041L450.669 85.5335H459.343Z" fill="white" stroke="black" stroke-width="1.17212" stroke-linejoin="round"/>
<path d="M597.818 427.231L563.686 419.46L571.457 453.592L576.977 443.043L587.866 456.815L601.041 443.641L587.269 432.752L597.818 427.231Z" fill="#FFEA5B"/>
<path d="M453.365 180.64C448.782 178.248 445.184 174.896 442.582 170.595C439.98 166.293 438.679 161.405 438.679 155.943C438.679 150.481 439.98 145.593 442.582 141.291C445.184 136.99 448.782 133.637 453.365 131.246C457.948 128.855 463.106 127.648 468.826 127.648C474.077 127.648 478.765 128.574 482.891 130.426C487.017 132.278 490.416 134.962 493.089 138.467L481.567 148.746C478.214 144.526 474.276 142.405 469.74 142.405C465.931 142.405 462.86 143.624 460.539 146.074C458.218 148.523 457.058 151.805 457.058 155.931C457.058 160.057 458.218 163.339 460.539 165.789C462.86 168.239 465.919 169.458 469.74 169.458C474.276 169.458 478.214 167.348 481.567 163.116L493.089 173.396C490.404 176.901 487.005 179.585 482.891 181.437C478.765 183.289 474.077 184.215 468.826 184.215C463.106 184.215 457.948 183.019 453.365 180.616V180.64Z" fill="#26303C"/>
<path d="M556.172 128.879L533.292 182.984H515.359L492.479 128.879H512.112L525.017 160.491L538.239 128.879H556.172Z" fill="#26303C"/>
<path d="M302.255 385.316C302.255 385.316 297.801 386.722 299.301 394.341C300.802 401.96 303.252 402.886 302.185 409.708C301.13 416.529 308.972 421.734 310.226 425.953C311.492 430.185 308.608 437.663 312.031 443.324C313.883 446.395 318.571 448.798 324.725 449.407C338.697 450.79 349.984 443.676 352.985 431.169C353.442 429.235 353.665 427.242 353.512 425.238C352.621 413.2 338.931 412.966 335.122 410.294C331.312 407.621 330.281 397.717 326.987 395.466C323.693 393.216 320.025 396.545 314.445 391.587C308.866 386.628 305.795 384.237 302.243 385.316H302.255Z" fill="#5EBDC4"/>
<path d="M302.806 388.773C302.806 388.773 344.358 437.674 349.832 475.862" stroke="black" stroke-width="1.26589" stroke-miterlimit="10" stroke-linecap="round"/>
<path d="M304.084 401.057C304.084 401.057 311.925 403.05 317.34 407.797" stroke="black" stroke-width="0.843929" stroke-miterlimit="10" stroke-linecap="round"/>
<path d="M324.232 397.447C324.232 397.447 320.751 407.609 322.029 414.607" stroke="black" stroke-width="0.843929" stroke-miterlimit="10" stroke-linecap="round"/>
<path d="M310.917 421.757C310.917 421.757 325.217 423.492 329.929 427.032" stroke="black" stroke-width="0.843929" stroke-miterlimit="10" stroke-linecap="round"/>
<path d="M341.123 418.628C341.123 418.628 335.075 430.818 335.168 436.233" stroke="black" stroke-width="0.843929" stroke-miterlimit="10" stroke-linecap="round"/>
<path d="M317.27 441.917C317.27 441.917 328.897 439.585 337.7 441.062" stroke="black" stroke-width="0.843929" stroke-miterlimit="10" stroke-linecap="round"/>
<path d="M325.522 409.86C325.522 409.86 324.315 415.041 324.373 418.147" stroke="black" stroke-width="0.843929" stroke-miterlimit="10" stroke-linecap="round"/>
<path d="M378.572 379.033C378.572 379.033 383.214 379.49 383.307 387.261C383.401 395.033 381.198 396.439 383.636 402.898C386.074 409.356 379.463 416.049 379.088 420.456C378.725 424.851 383.073 431.591 380.893 437.827C379.709 441.214 375.607 444.531 369.711 446.383C356.314 450.603 343.807 445.95 338.321 434.334C337.478 432.541 336.856 430.63 336.587 428.637C334.993 416.67 348.343 413.634 351.531 410.247C354.719 406.859 353.688 396.943 356.454 394.071C359.22 391.188 363.487 393.696 367.929 387.695C372.372 381.694 374.892 378.728 378.584 379.057L378.572 379.033Z" fill="#7FEBFF"/>
<path d="M378.725 382.526C378.725 382.526 348.085 438.905 350.558 477.409" stroke="white" stroke-width="1.26589" stroke-miterlimit="10" stroke-linecap="round"/>
<path d="M380.002 394.81C380.002 394.81 372.735 398.373 368.41 404.128" stroke="white" stroke-width="0.843929" stroke-miterlimit="10" stroke-linecap="round"/>
<path d="M359.537 395.408C359.537 395.408 365.034 404.644 365.21 411.759" stroke="white" stroke-width="0.843929" stroke-miterlimit="10" stroke-linecap="round"/>
<path d="M377.564 416.471C377.564 416.471 363.932 421.101 360.041 425.531" stroke="white" stroke-width="0.843929" stroke-miterlimit="10" stroke-linecap="round"/>
<path d="M347.359 419.6C347.359 419.6 355.786 430.29 356.794 435.612" stroke="white" stroke-width="0.843929" stroke-miterlimit="10" stroke-linecap="round"/>
<path d="M375.478 437.499C375.478 437.499 363.616 437.604 355.306 440.851" stroke="white" stroke-width="0.843929" stroke-miterlimit="10" stroke-linecap="round"/>
<path d="M360.826 407.82C360.826 407.82 363.077 412.638 363.651 415.697" stroke="white" stroke-width="0.843929" stroke-miterlimit="10" stroke-linecap="round"/>
<path d="M365.175 502.446H332.93L326.202 455.795H371.903L365.175 502.446Z" fill="#E2BDBC"/>
<g style="mix-blend-mode:multiply">
<path d="M326.202 455.795L326.94 460.941L370.508 465.454L371.903 455.795H326.202Z" fill="#E2BDBC"/>
</g>
<path d="M374.892 451.142H323.224V458.316H374.892V451.142Z" fill="#E2BDBC"/>
<path d="M699.206 502.446H12.3893V507.088H699.206V502.446Z" fill="white"/>
<path d="M323.224 515.773H374.2" stroke="white" stroke-width="1.17212" stroke-linejoin="round"/>
<path d="M86.8425 515.773H298.985" stroke="white" stroke-width="1.17212" stroke-linejoin="round"/>
</svg>
